<?xml version="1.0" encoding="UTF-8" standalone="no"?>
<svg
   xmlns:dc="http://purl.org/dc/elements/1.1/"
   xmlns:cc="http://creativecommons.org/ns#"
   xmlns:rdf="http://www.w3.org/1999/02/22-rdf-syntax-ns#"
   xmlns:svg="http://www.w3.org/2000/svg"
   xmlns="http://www.w3.org/2000/svg"
   xmlns:sodipodi="http://sodipodi.sourceforge.net/DTD/sodipodi-0.dtd"
   xmlns:inkscape="http://www.inkscape.org/namespaces/inkscape"
   width="17.876217mm"
   height="17.876217mm"
   viewBox="0 0 17.876217 17.876217"
   version="1.1"
   id="svg855"
   inkscape:version="1.0.2 (1.0.2+r75+1)"
   sodipodi:docname="favicon.svg">
  <defs
     id="defs849" />
  <sodipodi:namedview
     inkscape:snap-center="true"
     inkscape:snap-object-midpoints="true"
     inkscape:snap-bbox-midpoints="true"
     inkscape:snap-bbox-edge-midpoints="true"
     inkscape:bbox-nodes="true"
     inkscape:bbox-paths="true"
     inkscape:snap-bbox="true"
     inkscape:guide-bbox="true"
     showguides="true"
     inkscape:snap-midpoints="true"
     inkscape:snap-smooth-nodes="true"
     inkscape:snap-intersection-paths="true"
     inkscape:object-paths="true"
     inkscape:snap-global="false"
     id="base"
     pagecolor="#ffffff"
     bordercolor="#666666"
     borderopacity="1.0"
     inkscape:pageopacity="0.0"
     inkscape:pageshadow="2"
     inkscape:zoom="3.492653"
     inkscape:cx="28.318206"
     inkscape:cy="43.306898"
     inkscape:document-units="mm"
     inkscape:current-layer="layer1"
     inkscape:document-rotation="0"
     showgrid="false"
     inkscape:window-width="1366"
     inkscape:window-height="699"
     inkscape:window-x="0"
     inkscape:window-y="0"
     inkscape:window-maximized="1">
    <sodipodi:guide
       id="guide872"
       orientation="1,0"
       position="8.9377004,13.240997" />
  </sodipodi:namedview>
  <metadata
     id="metadata852">
    <rdf:RDF>
      <cc:Work
         rdf:about="">
        <dc:format>image/svg+xml</dc:format>
        <dc:type
           rdf:resource="http://purl.org/dc/dcmitype/StillImage" />
        <dc:title />
      </cc:Work>
    </rdf:RDF>
  </metadata>
  <g
     inkscape:label="Capa 1"
     inkscape:groupmode="layer"
     id="layer1"
     transform="translate(-168.1445,-102.14098)">
    <rect
       y="102.14098"
       x="168.1445"
       height="17.876217"
       width="17.876217"
       id="rect837"
       style="fill:#00222b;fill-opacity:1;stroke-width:0.499999;stroke-linejoin:round;stop-color:#000000" />
    <g
       id="g847"
       transform="matrix(0.16695403,0,0,0.12414574,167.08718,103.81517)"
       style="fill:#ffffff">
      <path
         fill="#ffffff"
         d="m 115.121,94.27 h -7.428 L 88.143,1.854 C 87.919,0.735 86.925,-0.037 85.777,0 a 2.346,2.346 0 0 0 -2.24,2.037 L 60.65,107.554 44.318,35.775 A 2.334,2.334 0 0 0 42.09,33.962 c -1.048,-0.01 -2.02,0.688 -2.301,1.721 l -12.14,44.51 -9.12,-23.758 c -0.346,-0.902 -1.213,-1.543 -2.18,-1.543 H 2.337 a 2.336,2.336 0 0 0 0,4.671 h 12.41 l 11.102,28.912 a 2.36,2.36 0 0 0 2.297,1.517 2.324,2.324 0 0 0 2.136,-1.706 l 11.56,-42.384 16.608,72.661 a 2.337,2.337 0 0 0 4.592,-0.209 L 85.784,11.81 103.488,97.109 c 0.218,1.091 1.177,1.832 2.29,1.832 h 9.343 a 2.336,2.336 0 0 0 0,-4.672 z m 27.741,0 h -11.678 a 2.336,2.336 0 0 0 0,4.67 h 11.678 a 2.336,2.336 0 0 0 0,-4.67 z"
         id="path833"
         style="fill:#ffffff" />
    </g>
  </g>
</svg>
