<?xml version="1.0" encoding="UTF-8" standalone="no"?>
<svg
   xmlns:dc="http://purl.org/dc/elements/1.1/"
   xmlns:cc="http://creativecommons.org/ns#"
   xmlns:rdf="http://www.w3.org/1999/02/22-rdf-syntax-ns#"
   xmlns:svg="http://www.w3.org/2000/svg"
   xmlns="http://www.w3.org/2000/svg"
   xmlns:sodipodi="http://sodipodi.sourceforge.net/DTD/sodipodi-0.dtd"
   xmlns:inkscape="http://www.inkscape.org/namespaces/inkscape"
   viewBox="0 0 120 65.367934"
   version="1.1"
   id="svg910"
   sodipodi:docname="logo.svg"
   width="120"
   height="65.367935"
   inkscape:version="1.0.2 (1.0.2+r75+1)">
  <metadata
     id="metadata916">
    <rdf:RDF>
      <cc:Work
         rdf:about="">
        <dc:format>image/svg+xml</dc:format>
        <dc:type
           rdf:resource="http://purl.org/dc/dcmitype/StillImage" />
      </cc:Work>
    </rdf:RDF>
  </metadata>
  <defs
     id="defs914" />
  <sodipodi:namedview
     pagecolor="#ffffff"
     bordercolor="#666666"
     borderopacity="1"
     objecttolerance="10"
     gridtolerance="10"
     guidetolerance="10"
     inkscape:pageopacity="0"
     inkscape:pageshadow="2"
     inkscape:window-width="1366"
     inkscape:window-height="699"
     id="namedview912"
     showgrid="false"
     inkscape:zoom="2.2199514"
     inkscape:cx="69.758414"
     inkscape:cy="29.426146"
     inkscape:window-x="0"
     inkscape:window-y="0"
     inkscape:window-maximized="1"
     inkscape:current-layer="svg910" />
  <rect
     style="fill:#1a1a1a;stroke:none;stroke-width:0.190477;stop-color:#000000"
     id="rect934"
     width="120"
     height="65.367935"
     x="0"
     y="0"
     ry="5.7333612" />
  <g
     id="g938"
     transform="matrix(0.77387548,0,0,0.77387548,13.567468,8.6569659)">
    <path
       fill="#fff"
       d="M 59.360006,48.630066 H 55.528254 L 45.443339,0.95704795 C 45.327788,0.37980911 44.815031,-0.01842896 44.222832,6.5757712e-4 A 1.2101898,1.2101898 0 0 0 43.067323,1.0514489 L 31.261009,55.482647 22.836107,18.455278 a 1.2039996,1.2039996 0 0 0 -1.149319,-0.93524 c -0.540614,-0.0052 -1.042022,0.354906 -1.186977,0.887782 L 14.237363,41.368411 9.5327888,29.112789 c -0.178485,-0.465299 -0.625729,-0.79596 -1.1245583,-0.79596 h -7.228124 a 1.2050313,1.2050313 0 0 0 0,2.409547 h 6.4017284 l 5.7269931,14.914325 a 1.2174117,1.2174117 0 0 0 1.184913,0.782548 1.198841,1.198841 0 0 0 1.101861,-0.880044 l 5.963254,-21.863889 8.567277,37.48235 a 1.2055471,1.2055471 0 0 0 2.368795,-0.107813 L 44.226443,6.0928748 53.359095,50.094571 c 0.112456,0.562795 0.607158,0.945041 1.181302,0.945041 h 4.819609 a 1.2050313,1.2050313 0 0 0 0,-2.410062 z m 14.310262,0 h -6.024125 a 1.2050313,1.2050313 0 0 0 0,2.409031 h 6.024125 a 1.2050313,1.2050313 0 0 0 0,-2.409031 z"
       id="path906"
       style="fill:#ffffff;stroke:none;stroke-width:0.515852" />
    <path
       fill="#fff"
       d="m 65.287666,35.245243 c 1.055434,0 1.87306,0.222848 2.452878,0.668545 0.579473,0.431252 0.980806,1.018464 1.204,1.761636 0.237638,0.728039 0.356454,1.545494 0.356454,2.452362 v 5.974603 c 0,0.326706 -0.111424,0.601656 -0.334272,0.824848 -0.208059,0.20806 -0.468224,0.312091 -0.780485,0.312091 -0.326705,0 -0.594262,-0.104031 -0.802666,-0.312091 -0.208059,-0.222848 -0.312091,-0.497969 -0.312091,-0.825364 v -5.951389 c 0,-0.535111 -0.07428,-1.010727 -0.222848,-1.426848 -0.148566,-0.431253 -0.408726,-0.773091 -0.780485,-1.025515 -0.356624,-0.267555 -0.86199,-0.401333 -1.51609,-0.401333 -0.609392,0 -1.144507,0.133778 -1.605333,0.401333 -0.460827,0.252424 -0.825018,0.594262 -1.092576,1.025515 -0.252422,0.416121 -0.378635,0.891737 -0.378635,1.426848 v 5.952937 c 0,0.326706 -0.111595,0.601655 -0.334788,0.824848 -0.208059,0.20806 -0.468049,0.31209 -0.779969,0.31209 -0.327051,0 -0.594608,-0.10403 -0.802667,-0.31209 -0.208058,-0.222849 -0.31209,-0.49797 -0.31209,-0.825364 v -9.452996 c 0,-0.326706 0.104032,-0.594262 0.31209,-0.802666 0.208059,-0.222849 0.475616,-0.334273 0.802667,-0.334273 0.31192,0 0.57191,0.111424 0.779969,0.334273 0.223193,0.208404 0.334788,0.47596 0.334788,0.802666 v 1.248363 l -0.401333,0.223364 c 0.103856,-0.326706 0.282171,-0.653757 0.534939,-0.981151 0.267557,-0.341839 0.58721,-0.653929 0.958969,-0.936272 0.371414,-0.297131 0.787537,-0.527546 1.248363,-0.691243 0.460826,-0.178141 0.951232,-0.267211 1.471211,-0.267211 z m 16.63263,0.08873 c 0.31192,0 0.57191,0.111595 0.779969,0.334788 0.223194,0.20806 0.334788,0.475616 0.334788,0.802666 v 9.630965 c 0,0.327394 -0.111594,0.602516 -0.334788,0.825364 -0.208059,0.20806 -0.468049,0.31209 -0.779969,0.31209 -0.327051,0 -0.594608,-0.10403 -0.802666,-0.31209 -0.208059,-0.222848 -0.312091,-0.49797 -0.312091,-0.825364 v -1.604301 l 0.445696,0.06706 c 0,0.267555 -0.111424,0.564686 -0.334272,0.891393 -0.208059,0.32705 -0.497968,0.646707 -0.869727,0.958969 -0.371414,0.297131 -0.809889,0.549899 -1.315424,0.758303 -0.505535,0.192929 -1.048042,0.289394 -1.627514,0.289394 -1.025515,0 -1.947173,-0.260162 -2.764969,-0.780485 -0.817111,-0.534767 -1.463644,-1.262979 -1.939605,-2.184635 -0.475271,-0.921657 -0.712909,-1.969525 -0.712909,-3.143605 0,-1.203999 0.237808,-2.259262 0.713424,-3.165786 0.475616,-0.921657 1.114757,-1.642646 1.917424,-2.162969 0.817456,-0.51998 1.723979,-0.779969 2.719574,-0.779969 0.639311,0 1.226527,0.10403 1.761636,0.31209 0.549899,0.208061 1.025514,0.475616 1.426848,0.802667 0.401333,0.326706 0.713424,0.675767 0.936272,1.04718 0.222848,0.35697 0.334272,0.69898 0.334272,1.026031 l -0.691242,0.06706 v -2.029364 c 0,-0.312262 0.104202,-0.579818 0.312607,-0.802666 0.208058,-0.223193 0.475615,-0.334788 0.802666,-0.334788 z m -4.548271,10.077692 c 0.698464,0 1.307856,-0.178313 1.828181,-0.534938 0.535109,-0.35697 0.951232,-0.840152 1.248363,-1.449546 0.297131,-0.624181 0.445696,-1.315423 0.445696,-2.073727 0,-0.772746 -0.148565,-1.463817 -0.445696,-2.07321 -0.297131,-0.609394 -0.713254,-1.092404 -1.248363,-1.44903 -0.520325,-0.356626 -1.129717,-0.534939 -1.828181,-0.534939 -0.683675,0 -1.293072,0.178313 -1.828181,0.534939 -0.535109,0.356626 -0.951232,0.839808 -1.248363,1.449545 -0.297476,0.60905 -0.446212,1.30012 -0.446212,2.073211 0,0.757959 0.148565,1.449202 0.445696,2.073727 0.297477,0.60905 0.706202,1.09206 1.226182,1.44903 0.535109,0.356625 1.152068,0.534938 1.850878,0.534938 z m 11.169753,0.690727 c 0,0.327394 -0.111425,0.602516 -0.334273,0.825364 -0.208059,0.20806 -0.468224,0.31209 -0.780484,0.31209 -0.312261,0 -0.579819,-0.10403 -0.802667,-0.31209 -0.208059,-0.222848 -0.312091,-0.49797 -0.312091,-0.825364 V 31.87879 c 0,-0.326706 0.111425,-0.594262 0.334273,-0.802666 0.223194,-0.222849 0.490746,-0.334273 0.802666,-0.334273 0.327051,0 0.58721,0.111424 0.780485,0.334273 0.208059,0.20806 0.312091,0.475616 0.312091,0.802666 z m 5.417482,0 c 0,0.327394 -0.104032,0.602516 -0.312091,0.825364 -0.208059,0.20806 -0.475616,0.31209 -0.802666,0.31209 -0.311921,0 -0.579303,-0.10403 -0.802151,-0.31209 -0.208404,-0.222848 -0.312606,-0.49797 -0.312606,-0.825364 v -9.541207 c 0,-0.32705 0.104202,-0.594606 0.312606,-0.802666 0.222848,-0.223192 0.49023,-0.334788 0.802151,-0.334788 0.32705,0 0.594607,0.111596 0.802666,0.334788 0.208059,0.20806 0.312091,0.475616 0.312091,0.802666 z M 92.822321,33.952001 c -0.430907,0 -0.742998,-0.07428 -0.936272,-0.222848 C 91.692774,33.565456 91.59614,33.2979 91.59614,32.926486 v -0.35697 c 0,-0.371413 0.104032,-0.631575 0.312091,-0.780484 0.208058,-0.148566 0.520149,-0.222849 0.936272,-0.222849 0.446042,0 0.765695,0.08185 0.958969,0.245546 0.193275,0.148566 0.289909,0.401333 0.289909,0.758303 v 0.355938 c 0,0.386546 -0.104032,0.654273 -0.31209,0.803183 -0.193275,0.148565 -0.512928,0.222848 -0.95897,0.222848 z m 3.99115,1.694059 h 5.238999 c 0.29748,0 0.54285,0.104202 0.73612,0.312607 0.20806,0.192929 0.31209,0.43813 0.31209,0.735605 0,0.282343 -0.10403,0.520151 -0.31209,0.713424 -0.19327,0.193273 -0.43864,0.289909 -0.73612,0.289909 h -5.238999 c -0.297476,0 -0.550244,-0.09664 -0.758303,-0.289909 -0.193274,-0.20806 -0.289909,-0.453262 -0.289909,-0.735605 0,-0.297475 0.09663,-0.542849 0.289909,-0.736122 0.208059,-0.193273 0.460827,-0.289909 0.758303,-0.289909 z m 2.340939,-2.898059 c 0.326704,0 0.594262,0.111424 0.802666,0.334273 0.208064,0.20806 0.312094,0.475616 0.312094,0.802666 v 10.344905 c 0,0.267555 0.0445,0.483182 0.13361,0.646879 0.0894,0.163353 0.2084,0.274777 0.35697,0.334272 0.16335,0.05949 0.3267,0.08924 0.49006,0.08924 0.16369,0 0.30504,-0.02975 0.42403,-0.08924 0.13377,-0.05949 0.28974,-0.08924 0.46787,-0.08924 0.17849,0 0.34202,0.08168 0.49058,0.24503 0.14857,0.163697 0.22285,0.386718 0.22285,0.669061 0,0.356626 -0.1931,0.646535 -0.5793,0.869727 -0.38655,0.222848 -0.80267,0.334272 -1.24837,0.334272 -0.25311,0 -0.55058,-0.02235 -0.89242,-0.06706 -0.341845,-0.04471 -0.676288,-0.156132 -1.003338,-0.334273 -0.31192,-0.178485 -0.57191,-0.460828 -0.779969,-0.847029 C 98.143684,45.59015 98.039652,45.032686 98.039652,44.31909 V 33.88494 c 0,-0.326706 0.104032,-0.594262 0.312091,-0.802666 0.222848,-0.222849 0.490406,-0.334273 0.802667,-0.334273 z m 8.51673,13.354388 c 0,0.327394 -0.10403,0.602516 -0.31209,0.825364 -0.20806,0.20806 -0.47562,0.31209 -0.80267,0.31209 -0.31226,0 -0.57982,-0.10403 -0.80267,-0.31209 -0.20806,-0.222848 -0.31209,-0.49797 -0.31209,-0.825364 v -9.541207 c 0,-0.32705 0.10403,-0.594606 0.31209,-0.802666 0.22285,-0.223192 0.49041,-0.334788 0.80267,-0.334788 0.3267,0 0.59426,0.111596 0.80267,0.334788 0.20806,0.20806 0.31209,0.475616 0.31209,0.802666 z M 106.5342,33.952001 c -0.43125,0 -0.74352,-0.07428 -0.93679,-0.222848 -0.19327,-0.163697 -0.28991,-0.431253 -0.28991,-0.802667 v -0.35697 c 0,-0.371413 0.1042,-0.631575 0.31261,-0.780484 0.20806,-0.148566 0.52015,-0.222849 0.93627,-0.222849 0.4457,0 0.76518,0.08185 0.95845,0.245546 0.19328,0.148566 0.28991,0.401333 0.28991,0.758303 v 0.355938 c 0,0.386546 -0.10403,0.654273 -0.31209,0.803183 -0.19327,0.148565 -0.51276,0.222848 -0.95845,0.222848 z m 9.25233,1.293242 c 0.80266,0 1.5087,0.08907 2.11809,0.267211 0.62418,0.163697 1.11458,0.401505 1.47121,0.713424 0.35697,0.297475 0.53545,0.646879 0.53545,1.048212 0,0.252424 -0.0819,0.490232 -0.24554,0.713424 -0.14857,0.208061 -0.36402,0.312091 -0.64637,0.312091 -0.22284,0 -0.40855,-0.03714 -0.55712,-0.111424 -0.13412,-0.07463 -0.2605,-0.164041 -0.37915,-0.268243 -0.11899,-0.103858 -0.26773,-0.207717 -0.44621,-0.311575 -0.16335,-0.08941 -0.40856,-0.163697 -0.73561,-0.222848 -0.31226,-0.05949 -0.5946,-0.08924 -0.84703,-0.08924 -0.78787,0 -1.47172,0.178313 -2.05154,0.534939 -0.56469,0.356626 -1.01056,0.839808 -1.33761,1.449545 -0.31226,0.60905 -0.46839,1.30012 -0.46839,2.073211 0,0.772747 0.15613,1.463989 0.46839,2.073727 0.32671,0.60905 0.76518,1.09206 1.31543,1.44903 0.56469,0.356625 1.21861,0.534938 1.96178,0.534938 0.44605,0 0.81024,-0.02975 1.09258,-0.08924 0.29748,-0.07428 0.54268,-0.163525 0.73561,-0.267727 0.23797,-0.133778 0.43125,-0.267556 0.57981,-0.401334 0.14857,-0.148565 0.3642,-0.222848 0.64688,-0.222848 0.32671,0 0.57191,0.104031 0.73561,0.312091 0.17814,0.193273 0.26721,0.438646 0.26721,0.736121 0,0.326707 -0.2005,0.646192 -0.60148,0.958454 -0.38655,0.297131 -0.90687,0.542333 -1.56097,0.735606 -0.6541,0.193273 -1.37492,0.289909 -2.16246,0.289909 -1.15929,0 -2.17002,-0.267556 -3.03218,-0.802667 -0.84737,-0.53511 -1.50887,-1.263322 -1.98448,-2.184635 -0.46083,-0.921656 -0.69124,-1.962131 -0.69124,-3.121423 0,-1.174424 0.24537,-2.214898 0.73612,-3.121423 0.4904,-0.921656 1.17408,-1.65004 2.05103,-2.185151 0.87695,-0.534767 1.88767,-0.80215 3.03218,-0.80215 z M 59.538491,3.1963633 c 0.416123,0 0.780314,0.1561314 1.092575,0.468394 0.333241,0.2916286 0.499861,0.6664814 0.499861,1.1245583 V 23.458531 c -0.02063,0.457733 -0.197741,0.842903 -0.531328,1.155509 -0.31192,0.291285 -0.686429,0.436927 -1.123526,0.436927 -0.478711,0 -0.8742,-0.145814 -1.186461,-0.437443 -0.291286,-0.312262 -0.436927,-0.69726 -0.436927,-1.154993 V 4.7887998 c 0,-0.4577331 0.156133,-0.8324139 0.468394,-1.1240425 0.312261,-0.3122626 0.718067,-0.468394 1.217412,-0.468394 z m 14.080192,0 c 0.499691,0 0.895174,0.1561314 1.18646,0.468394 0.291287,0.2916286 0.436927,0.6664814 0.436927,1.1245583 V 23.458531 c 0,0.457733 -0.155957,0.842903 -0.467878,1.155509 -0.291627,0.291285 -0.687115,0.436927 -1.18646,0.436927 -0.437098,0 -0.811782,-0.145814 -1.124043,-0.437443 -0.312261,-0.312262 -0.468394,-0.69726 -0.468394,-1.154993 V 4.7887998 c 0,-0.4577331 0.156133,-0.8324139 0.468394,-1.1240425 0.332895,-0.3122626 0.718067,-0.468394 1.15551,-0.468394 z M 59.413655,12.500278 H 73.65015 L 73.6192,15.49738 H 59.382703 Z m 22.759409,12.550173 c -0.499346,0 -0.936443,-0.145642 -1.311297,-0.436927 -0.374509,-0.312262 -0.561764,-0.69726 -0.561764,-1.154993 V 4.7887998 c 0,-0.4577331 0.156133,-0.8324139 0.468394,-1.1240425 0.312261,-0.3122626 0.686946,-0.468394 1.124043,-0.468394 h 8.804053 c 1.123872,0 2.15403,0.2811396 3.090472,0.8434187 0.936788,0.5409573 1.686151,1.3006359 2.248085,2.2790362 0.582568,0.9574221 0.873854,2.0604864 0.873854,3.3091933 0,0.8322415 -0.16645,1.6335325 -0.499345,2.4038725 -0.332895,0.749362 -0.780315,1.415327 -1.342248,1.997896 -0.561934,0.582913 -1.196778,1.020012 -1.904527,1.311297 l -0.343558,-0.59323 c 0.645161,0.229038 1.207095,0.562107 1.685806,0.999206 0.478711,0.416121 0.853565,0.915638 1.124558,1.498551 0.290941,0.561935 0.446898,1.207267 0.467878,1.935994 l 0.156303,1.623388 c 0.06225,0.416121 0.145471,0.759507 0.249673,1.030157 0.103856,0.270651 0.291286,0.478711 0.562279,0.624182 0.374163,0.208404 0.602861,0.520667 0.686084,0.936788 0.104202,0.416121 0.02099,0.790801 -0.249673,1.124042 -0.187084,0.249673 -0.42644,0.416121 -0.718066,0.499345 -0.270307,0.06259 -0.551276,0.07291 -0.842903,0.03095 -0.291287,-0.06225 -0.540959,-0.14547 -0.749018,-0.249672 -0.333241,-0.20806 -0.676628,-0.499345 -1.030157,-0.873854 -0.333241,-0.395487 -0.603893,-0.936616 -0.811952,-1.623388 -0.208059,-0.687115 -0.312091,-1.592608 -0.312091,-2.716479 0,-0.520323 -0.08322,-0.967739 -0.249672,-1.342248 -0.166791,-0.374853 -0.395829,-0.676626 -0.687116,-0.905321 -0.291286,-0.249672 -0.634668,-0.426781 -1.030157,-0.531328 -0.395489,-0.124492 -0.832586,-0.186738 -1.311297,-0.186738 h -6.618386 l 0.436927,-0.624182 v 7.46129 c 0,0.457733 -0.125007,0.842903 -0.375025,1.155509 -0.249673,0.291285 -0.59306,0.436927 -1.030157,0.436927 z M 83.17227,13.904944 h 7.461805 c 0.478711,-0.02063 0.936618,-0.207889 1.373715,-0.561763 0.457731,-0.374853 0.821923,-0.87437 1.092575,-1.498552 0.291287,-0.624525 0.436927,-1.332102 0.436927,-2.1227323 0,-0.999378 -0.301773,-1.8319638 -0.905321,-2.4977575 C 92.049058,6.5373679 91.351796,6.1939819 90.54019,6.1939819 h -7.305502 l 0.343558,-0.8119517 v 9.1785618 z m 33.8425,-10.7709988 c 0.4371,0 0.81195,0.1458143 1.12456,0.4374428 0.31192,0.2912847 0.46788,0.6449875 0.46788,1.0611085 0,0.2290385 -0.0521,0.468394 -0.1563,0.7180667 l -7.89822,18.6697308 c -0.16645,0.354219 -0.39531,0.61438 -0.6866,0.780485 -0.27065,0.166792 -0.55162,0.250188 -0.8429,0.250188 -0.29163,-0.02063 -0.5726,-0.114347 -0.84291,-0.281139 -0.25001,-0.166449 -0.44776,-0.405804 -0.59323,-0.718067 L 99.687801,5.3500474 c -0.04163,-0.1038582 -0.0729,-0.2078887 -0.09389,-0.3120909 -0.02063,-0.1248363 -0.03095,-0.2496726 -0.03095,-0.3745089 0,-0.478711 0.176937,-0.8533918 0.530819,-1.1240424 0.35353,-0.2706506 0.69692,-0.4059759 1.03016,-0.4059759 0.66613,0 1.15516,0.3435577 1.46708,1.0306732 l 7.14972,16.9524585 h -0.90532 l 6.74322,-16.9839255 c 0.29163,-0.6661374 0.77034,-0.9992062 1.43613,-0.9992062 z M 87.981046,48.630066 h -6.02464 c -1.559701,0.04565 -1.559701,2.363379 0,2.409031 h 6.02464 c 1.5597,-0.04565 1.5597,-2.363379 0,-2.409031 z m 14.310264,0 h -6.024126 c -1.559701,0.04565 -1.559701,2.363379 0,2.409031 h 6.024126 c 1.5597,-0.04565 1.5597,-2.363379 0,-2.409031 z m 14.31026,0 h -6.02412 c -1.5597,0.04565 -1.5597,2.363379 0,2.409031 h 6.02412 c 1.5597,-0.04565 1.5597,-2.363379 0,-2.409031 z"
       id="path908"
       style="fill:#ffffff;stroke:none;stroke-width:0.515852"
       sodipodi:nodetypes="cccsscscssccsccsssscsscscscccccccscsscscscccccsccsccscccccscssccsscsscsccsssscsscscssscscsscscssscsscscsscssscscsscscsscssccscscscssccsscsscscsscscssscsscscsscssccscsccccsccsccscccscscssccsccsscsccscsscsccsscscssccccccccccsscssccscccccccccccccccccscccsccscccccccscsccccccsccccccccscsccccccccccccccccccccc" />
  </g>
</svg>
