<?xml version="1.0" encoding="UTF-8" standalone="no"?>
<svg
   xmlns:dc="http://purl.org/dc/elements/1.1/"
   xmlns:cc="http://creativecommons.org/ns#"
   xmlns:rdf="http://www.w3.org/1999/02/22-rdf-syntax-ns#"
   xmlns:svg="http://www.w3.org/2000/svg"
   xmlns="http://www.w3.org/2000/svg"
   xmlns:xlink="http://www.w3.org/1999/xlink"
   xmlns:sodipodi="http://sodipodi.sourceforge.net/DTD/sodipodi-0.dtd"
   xmlns:inkscape="http://www.inkscape.org/namespaces/inkscape"
   viewBox="0 0 120 65.367934"
   version="1.1"
   id="svg910"
   sodipodi:docname="logo.svg"
   width="120"
   height="65.367935"
   inkscape:version="1.0.2 (1.0.2+r75+1)">
  <metadata
     id="metadata916">
    <rdf:RDF>
      <cc:Work
         rdf:about="">
        <dc:format>image/svg+xml</dc:format>
        <dc:type
           rdf:resource="http://purl.org/dc/dcmitype/StillImage" />
      </cc:Work>
    </rdf:RDF>
  </metadata>
  <defs
     id="defs914">
    <linearGradient
       inkscape:collect="always"
       id="linearGradient837">
      <stop
         style="stop-color:#004658;stop-opacity:1"
         offset="0"
         id="stop833" />
      <stop
         style="stop-color:#00222b;stop-opacity:1"
         offset="1"
         id="stop835" />
    </linearGradient>
    <radialGradient
       inkscape:collect="always"
       xlink:href="#linearGradient837"
       id="radialGradient853"
       cx="60"
       cy="32.683968"
       fx="60"
       fy="32.683968"
       r="60"
       gradientTransform="matrix(1,0,0,0.82778288,0,5.6287391)"
       gradientUnits="userSpaceOnUse" />
  </defs>
  <sodipodi:namedview
     pagecolor="#ffffff"
     bordercolor="#666666"
     borderopacity="1"
     objecttolerance="10"
     gridtolerance="10"
     guidetolerance="10"
     inkscape:pageopacity="0"
     inkscape:pageshadow="2"
     inkscape:window-width="1366"
     inkscape:window-height="699"
     id="namedview912"
     showgrid="false"
     inkscape:zoom="4.4399028"
     inkscape:cx="69.758414"
     inkscape:cy="29.426146"
     inkscape:window-x="0"
     inkscape:window-y="0"
     inkscape:window-maximized="1"
     inkscape:current-layer="svg910"
     inkscape:document-rotation="0"
     inkscape:snap-bbox="true"
     inkscape:bbox-paths="true"
     inkscape:bbox-nodes="true"
     inkscape:snap-bbox-edge-midpoints="true"
     inkscape:snap-bbox-midpoints="true"
     inkscape:snap-page="true" />
  <path
     id="rect934"
     style="fill:url(#radialGradient853);stroke:none;stroke-width:0.190477;stop-color:#000000;fill-opacity:1"
     d="M 5.7324219 0 C 2.5561397 0 1.1842379e-15 2.5561397 0 5.7324219 L 0 30.570312 L 20.074219 30.570312 C 20.460251 30.570312 20.807187 30.827417 20.945312 31.1875 L 24.585938 40.671875 L 29.431641 22.902344 C 29.543818 22.489964 29.931241 22.21082 30.349609 22.214844 C 30.777014 22.223492 31.144896 22.522728 31.240234 22.939453 L 37.759766 51.59375 L 46.896484 9.4707031 C 46.956347 9.0178333 47.334512 8.6749041 47.791016 8.6582031 C 48.249304 8.6434325 48.644953 8.9517265 48.734375 9.3984375 L 56.539062 46.291016 L 120 46.291016 L 120 5.7324219 C 120 2.5561397 117.44386 1.1842379e-15 114.26758 0 L 5.7324219 0 z M 91.824219 11.082031 C 92.33972 11.082031 92.71955 11.347164 92.960938 11.878906 L 98.132812 24.144531 L 103.01172 11.855469 C 103.23741 11.339962 103.60781 11.082031 104.12305 11.082031 C 104.46131 11.082031 104.75027 11.194237 104.99219 11.419922 C 105.23358 11.64534 105.35547 11.920162 105.35547 12.242188 C 105.35547 12.419436 105.31503 12.603659 105.23438 12.796875 L 99.121094 27.246094 C 98.992282 27.520216 98.815266 27.721064 98.589844 27.849609 C 98.380395 27.978685 98.162915 28.042969 97.9375 28.042969 C 97.711815 28.026999 97.494342 27.955249 97.285156 27.826172 C 97.09168 27.697362 96.938748 27.511184 96.826172 27.269531 L 90.712891 12.796875 C 90.680671 12.716505 90.656865 12.63728 90.640625 12.556641 C 90.624665 12.460031 90.617187 12.362232 90.617188 12.265625 C 90.617188 11.895162 90.753483 11.605934 91.027344 11.396484 C 91.300932 11.187034 91.566332 11.082031 91.824219 11.082031 z M 59.642578 11.130859 C 59.964606 11.130859 60.24663 11.250535 60.488281 11.492188 C 60.746168 11.717871 60.875 12.008786 60.875 12.363281 L 60.875 18.330078 L 69.283203 18.330078 L 69.283203 12.363281 C 69.283203 12.009052 69.40288 11.717872 69.644531 11.492188 C 69.90215 11.250535 70.200536 11.130859 70.539062 11.130859 C 70.92576 11.130859 71.231612 11.250535 71.457031 11.492188 C 71.682451 11.717871 71.794922 12.008786 71.794922 12.363281 L 71.794922 26.810547 C 71.794922 27.164775 71.674982 27.46316 71.433594 27.705078 C 71.207911 27.930496 70.902056 28.042969 70.515625 28.042969 C 70.177366 28.042969 69.886182 27.930762 69.644531 27.705078 C 69.40288 27.463426 69.283203 27.164775 69.283203 26.810547 L 69.283203 20.650391 L 60.875 20.650391 L 60.875 26.810547 C 60.85903 27.164775 60.722999 27.46316 60.464844 27.705078 C 60.223457 27.930496 59.932008 28.042969 59.59375 28.042969 C 59.223287 28.042969 58.917433 27.930762 58.675781 27.705078 C 58.450362 27.463426 58.337891 27.164775 58.337891 26.810547 L 58.337891 12.363281 C 58.337891 12.009052 58.459521 11.717872 58.701172 11.492188 C 58.942823 11.250535 59.256147 11.130859 59.642578 11.130859 z M 76.941406 11.130859 L 83.755859 11.130859 C 84.625596 11.130859 85.421794 11.348069 86.146484 11.783203 C 86.871441 12.201837 87.451852 12.789715 87.886719 13.546875 C 88.337555 14.287801 88.5625 15.141078 88.5625 16.107422 C 88.5625 16.751473 88.4334 17.372603 88.175781 17.96875 C 87.918161 18.548663 87.573538 19.062836 87.138672 19.513672 C 86.796341 19.868783 86.408353 20.134354 85.996094 20.349609 C 86.250396 20.490489 86.491039 20.6501 86.703125 20.84375 C 87.073588 21.165776 87.362551 21.550851 87.572266 22.001953 C 87.797418 22.436821 87.919311 22.938009 87.935547 23.501953 L 88.056641 24.757812 C 88.104811 25.079839 88.169361 25.345237 88.25 25.554688 C 88.33037 25.764138 88.473879 25.924532 88.683594 26.037109 C 88.97315 26.198388 89.150439 26.439693 89.214844 26.761719 C 89.295484 27.083745 89.23094 27.374925 89.021484 27.632812 C 88.876704 27.826027 88.692479 27.955126 88.466797 28.019531 C 88.257613 28.067971 88.040136 28.075439 87.814453 28.042969 C 87.589033 27.994799 87.395387 27.930248 87.234375 27.849609 C 86.976488 27.688596 86.711088 27.463651 86.4375 27.173828 C 86.179613 26.86777 85.969606 26.449445 85.808594 25.917969 C 85.647583 25.386227 85.566406 24.684189 85.566406 23.814453 C 85.566406 23.411788 85.503815 23.065215 85.375 22.775391 C 85.245924 22.485302 85.067216 22.253154 84.841797 22.076172 C 84.616378 21.882957 84.350982 21.744969 84.044922 21.664062 C 83.738863 21.567722 83.401712 21.519531 83.03125 21.519531 L 78.246094 21.519531 L 78.246094 26.810547 C 78.246094 27.164775 78.150513 27.46316 77.957031 27.705078 C 77.763815 27.930496 77.498415 28.042969 77.160156 28.042969 C 76.773725 28.042969 76.434621 27.930496 76.144531 27.705078 C 75.854707 27.463426 75.708984 27.164775 75.708984 26.810547 L 75.708984 12.363281 C 75.708984 12.009052 75.830615 11.717872 76.072266 11.492188 C 76.313917 11.250535 76.603148 11.130859 76.941406 11.130859 z M 47.792969 13.373047 L 38.714844 55.904297 C 38.573817 56.930479 37.114522 56.99741 36.880859 55.988281 L 30.251953 26.982422 L 25.636719 43.902344 C 25.530169 44.2902 25.185019 44.563861 24.783203 44.582031 C 24.379277 44.597791 24.011274 44.354245 23.867188 43.976562 L 19.435547 32.435547 L 0 32.435547 L 0 59.634766 C 0 62.811048 2.5561397 65.367187 5.7324219 65.367188 L 114.26758 65.367188 C 117.44386 65.367187 120 62.811048 120 59.634766 L 120 48.154297 L 55.775391 48.154297 C 55.331075 48.154297 54.948355 47.859361 54.861328 47.423828 L 47.792969 13.373047 z M 78.246094 13.451172 L 78.246094 19.417969 L 83.707031 19.417969 C 84.077494 19.402009 84.431272 19.256276 84.769531 18.982422 C 85.123757 18.692332 85.405783 18.305305 85.615234 17.822266 C 85.840654 17.338961 85.953125 16.791538 85.953125 16.179688 C 85.953125 15.406294 85.720977 14.763289 85.253906 14.248047 C 84.802804 13.716572 84.262848 13.451172 83.634766 13.451172 L 78.246094 13.451172 z M 81.242188 32.447266 C 81.495284 32.447266 81.696133 32.532623 81.845703 32.705078 C 82.006715 32.866091 82.087891 33.075029 82.087891 33.328125 L 82.087891 44.333984 C 82.087891 44.587346 82.000581 44.800199 81.828125 44.972656 C 81.667114 45.133668 81.466259 45.214844 81.224609 45.214844 C 80.982958 45.214844 80.775972 45.133664 80.603516 44.972656 C 80.442504 44.800199 80.363281 44.587346 80.363281 44.333984 L 80.363281 33.328125 C 80.363281 33.075295 80.448638 32.866357 80.621094 32.705078 C 80.793818 32.532621 81.000801 32.447266 81.242188 32.447266 z M 85.417969 33.085938 C 85.76315 33.085938 86.010586 33.148709 86.160156 33.275391 C 86.309727 33.390363 86.384766 33.585078 86.384766 33.861328 L 86.384766 34.136719 C 86.384766 34.435857 86.303586 34.644529 86.142578 34.759766 C 85.993007 34.874737 85.745572 34.931641 85.400391 34.931641 C 85.066923 34.931641 84.825351 34.874743 84.675781 34.759766 C 84.52621 34.633085 84.451172 34.4261 84.451172 34.138672 L 84.451172 33.861328 C 84.451172 33.5739 84.53235 33.37305 84.693359 33.257812 C 84.85437 33.142842 85.095942 33.085937 85.417969 33.085938 z M 96.029297 33.085938 C 96.374213 33.085938 96.621917 33.148709 96.771484 33.275391 C 96.921058 33.390363 96.994141 33.585078 96.994141 33.861328 L 96.994141 34.136719 C 96.994141 34.435857 96.914915 34.644529 96.753906 34.759766 C 96.604339 34.874737 96.356628 34.931641 96.011719 34.931641 C 95.677985 34.931641 95.436676 34.874743 95.287109 34.759766 C 95.137542 34.633085 95.0625 34.4261 95.0625 34.138672 L 95.0625 33.861328 C 95.0625 33.5739 95.143407 33.37305 95.304688 33.257812 C 95.4657 33.142842 95.707272 33.085938 96.029297 33.085938 z M 90.300781 34 C 90.553609 34 90.760596 34.085357 90.921875 34.257812 C 91.082891 34.418824 91.164062 34.62581 91.164062 34.878906 L 91.164062 36.242188 L 92.542969 36.242188 C 92.773182 36.242188 92.963715 36.323096 93.113281 36.484375 C 93.274294 36.633678 93.355469 36.824479 93.355469 37.054688 C 93.355469 37.273187 93.27429 37.455899 93.113281 37.605469 C 92.963715 37.755038 92.773182 37.830078 92.542969 37.830078 L 91.164062 37.830078 L 91.164062 42.884766 C 91.164062 43.091821 91.19862 43.260038 91.267578 43.386719 C 91.336758 43.513134 91.427994 43.598489 91.542969 43.644531 C 91.669381 43.690571 91.795455 43.712891 91.921875 43.712891 C 92.048551 43.712891 92.157916 43.690571 92.25 43.644531 C 92.353521 43.598491 92.47543 43.576172 92.613281 43.576172 C 92.75141 43.576172 92.87722 43.639212 92.992188 43.765625 C 93.107162 43.892306 93.164063 44.064705 93.164062 44.283203 C 93.164062 44.559187 93.015667 44.782356 92.716797 44.955078 C 92.417655 45.127535 92.094916 45.214844 91.75 45.214844 C 91.554124 45.214844 91.323135 45.196709 91.058594 45.162109 C 90.794048 45.127509 90.536299 45.042156 90.283203 44.904297 C 90.041816 44.766171 89.840699 44.546918 89.679688 44.248047 C 89.518676 43.937464 89.4375 43.507312 89.4375 42.955078 L 89.4375 37.830078 L 88.488281 37.830078 C 88.258072 37.830078 88.063356 37.755032 87.902344 37.605469 C 87.752774 37.444456 87.677734 37.255607 87.677734 37.037109 C 87.677734 36.8069 87.752771 36.616366 87.902344 36.466797 C 88.063356 36.317228 88.258072 36.242187 88.488281 36.242188 L 89.4375 36.242188 L 89.4375 34.878906 C 89.4375 34.626076 89.518679 34.419091 89.679688 34.257812 C 89.852144 34.085355 90.05913 34 90.300781 34 z M 64.091797 35.931641 C 64.908571 35.931641 65.541527 36.104305 65.990234 36.449219 C 66.438674 36.782954 66.749151 37.237377 66.921875 37.8125 C 67.105777 38.375911 67.197266 39.009135 67.197266 39.710938 L 67.197266 44.333984 C 67.197266 44.586814 67.111908 44.799933 66.939453 44.972656 C 66.778441 45.133668 66.577588 45.214844 66.335938 45.214844 C 66.083108 45.214844 65.876123 45.133666 65.714844 44.972656 C 65.553833 44.800199 65.472656 44.587347 65.472656 44.333984 L 65.472656 39.728516 C 65.472656 39.314407 65.415758 38.947026 65.300781 38.625 C 65.18581 38.291264 64.983008 38.025423 64.695312 37.830078 C 64.41933 37.623024 64.02963 37.519531 63.523438 37.519531 C 63.051845 37.519531 62.637872 37.623024 62.28125 37.830078 C 61.924628 38.025423 61.642603 38.291264 61.435547 38.625 C 61.240203 38.947026 61.142578 39.314407 61.142578 39.728516 L 61.142578 44.335938 C 61.142578 44.588768 61.055536 44.799932 60.882812 44.972656 C 60.721801 45.133668 60.520684 45.214844 60.279297 45.214844 C 60.0262 45.214844 59.819215 45.133664 59.658203 44.972656 C 59.497192 44.800198 59.416016 44.587346 59.416016 44.333984 L 59.416016 37.019531 C 59.416016 36.766701 59.497194 36.559717 59.658203 36.398438 C 59.819215 36.22598 60.0262 36.138672 60.279297 36.138672 C 60.520684 36.138672 60.721801 36.225982 60.882812 36.398438 C 61.055537 36.559717 61.142578 36.766701 61.142578 37.019531 L 61.142578 37.554688 C 61.177868 37.502715 61.205951 37.450432 61.246094 37.398438 C 61.453149 37.133896 61.700586 36.892326 61.988281 36.673828 C 62.275709 36.443885 62.596503 36.265353 62.953125 36.138672 C 63.309747 36.000813 63.689398 35.933594 64.091797 35.933594 L 64.091797 35.931641 z M 103.17188 35.931641 C 103.79304 35.931641 104.33896 36.000814 104.81055 36.138672 C 105.29359 36.265353 105.67323 36.450019 105.94922 36.691406 C 106.22547 36.921614 106.36328 37.191371 106.36328 37.501953 C 106.36328 37.697298 106.30045 37.881965 106.17383 38.054688 C 106.05886 38.2157 105.89233 38.296875 105.67383 38.296875 C 105.50138 38.296875 105.35716 38.266474 105.24219 38.208984 C 105.1384 38.151224 105.04104 38.082592 104.94922 38.001953 C 104.85712 37.921583 104.74164 37.842092 104.60352 37.761719 C 104.47711 37.692529 104.28826 37.633667 104.03516 37.587891 C 103.79351 37.541851 103.57426 37.519531 103.37891 37.519531 C 102.76919 37.519531 102.23973 37.65761 101.79102 37.933594 C 101.35402 38.209578 101.00895 38.582828 100.75586 39.054688 C 100.51421 39.526016 100.39453 40.06188 100.39453 40.660156 C 100.39453 41.258166 100.51421 41.79181 100.75586 42.263672 C 101.00869 42.735001 101.34761 43.110468 101.77344 43.386719 C 102.21044 43.662702 102.71785 43.800781 103.29297 43.800781 C 103.63816 43.800781 103.92017 43.776509 104.13867 43.730469 C 104.36888 43.672989 104.55773 43.604076 104.70703 43.523438 C 104.89119 43.41991 105.04128 43.316419 105.15625 43.212891 C 105.27123 43.097921 105.43749 43.041016 105.65625 43.041016 C 105.90908 43.041016 106.09987 43.120241 106.22656 43.28125 C 106.36441 43.43082 106.43164 43.621355 106.43164 43.851562 C 106.43164 44.104394 106.27711 44.352099 105.9668 44.59375 C 105.66766 44.823693 105.26596 45.01254 104.75977 45.162109 C 104.25357 45.311678 103.6954 45.386719 103.08594 45.386719 C 102.1888 45.386719 101.40549 45.179734 100.73828 44.765625 C 100.08252 44.351517 99.571188 43.789153 99.203125 43.076172 C 98.8465 42.362925 98.667969 41.557303 98.667969 40.660156 C 98.667969 39.751298 98.858502 38.945679 99.238281 38.244141 C 99.617789 37.530894 100.14752 36.966844 100.82617 36.552734 C 101.50482 36.138891 102.28618 35.931641 103.17188 35.931641 z M 73.185547 35.933594 C 73.680294 35.933594 74.13472 36.012819 74.548828 36.173828 C 74.974381 36.334841 75.341762 36.541825 75.652344 36.794922 C 75.824294 36.934898 75.969997 37.08184 76.099609 37.232422 L 76.099609 36.880859 C 76.099609 36.639208 76.180518 36.432222 76.341797 36.259766 C 76.502808 36.087042 76.709795 36.001953 76.962891 36.001953 C 77.204279 36.001953 77.405395 36.087042 77.566406 36.259766 C 77.739131 36.420779 77.826172 36.627763 77.826172 36.880859 L 77.826172 44.333984 C 77.826172 44.587346 77.73913 44.800199 77.566406 44.972656 C 77.405395 45.133668 77.204279 45.214844 76.962891 45.214844 C 76.709795 45.214844 76.502808 45.133664 76.341797 44.972656 C 76.180785 44.800199 76.101562 44.587346 76.101562 44.333984 L 76.101562 43.945312 C 75.948408 44.159499 75.758779 44.370292 75.513672 44.576172 C 75.226244 44.806115 74.887315 45.002785 74.496094 45.164062 C 74.104873 45.313366 73.684767 45.386719 73.236328 45.386719 C 72.442707 45.386719 71.730528 45.185868 71.097656 44.783203 C 70.465314 44.36936 69.964038 43.806997 69.595703 43.09375 C 69.227903 42.380502 69.044922 41.568748 69.044922 40.660156 C 69.044922 39.728411 69.227635 38.912473 69.595703 38.210938 C 69.96377 37.497689 70.458914 36.939774 71.080078 36.537109 C 71.712687 36.134709 72.41508 35.933594 73.185547 35.933594 z M 85.417969 36.070312 C 85.671065 36.070312 85.878051 36.157354 86.039062 36.330078 C 86.200074 36.49109 86.279297 36.698077 86.279297 36.951172 L 86.279297 44.333984 C 86.279297 44.587346 86.200071 44.800199 86.039062 44.972656 C 85.878051 45.133668 85.671065 45.214844 85.417969 45.214844 C 85.176581 45.214844 84.969332 45.133664 84.796875 44.972656 C 84.635597 44.800199 84.554688 44.587346 84.554688 44.333984 L 84.554688 36.951172 C 84.554688 36.698077 84.635597 36.49109 84.796875 36.330078 C 84.969332 36.157355 85.176581 36.070312 85.417969 36.070312 z M 96.029297 36.070312 C 96.282122 36.070312 96.489108 36.157353 96.650391 36.330078 C 96.811404 36.49109 96.890625 36.698076 96.890625 36.951172 L 96.890625 44.333984 C 96.890625 44.587347 96.8114 44.8002 96.650391 44.972656 C 96.489379 45.133669 96.282393 45.214844 96.029297 45.214844 C 95.787646 45.214844 95.580661 45.133665 95.408203 44.972656 C 95.247191 44.8002 95.166016 44.587347 95.166016 44.333984 L 95.166016 36.951172 C 95.166016 36.698076 95.247194 36.49109 95.408203 36.330078 C 95.580661 36.157355 95.787646 36.070312 96.029297 36.070312 z M 73.443359 37.519531 C 72.91428 37.519531 72.443404 37.65761 72.029297 37.933594 C 71.615189 38.209578 71.292442 38.582828 71.0625 39.054688 C 70.832291 39.526016 70.716797 40.06188 70.716797 40.660156 C 70.716797 41.246722 70.832557 41.780367 71.0625 42.263672 C 71.29271 42.735001 71.609319 43.110468 72.011719 43.386719 C 72.425827 43.662702 72.902567 43.800781 73.443359 43.800781 C 73.983883 43.800781 74.456709 43.662702 74.859375 43.386719 C 75.273483 43.110468 75.594277 42.735268 75.824219 42.263672 C 76.054161 41.780634 76.169922 41.246989 76.169922 40.660156 C 76.169922 40.062147 76.054161 39.526281 75.824219 39.054688 C 75.594277 38.583092 75.273483 38.209578 74.859375 37.933594 C 74.456709 37.65761 73.983883 37.519531 73.443359 37.519531 z " />
</svg>
