<?xml version="1.0" encoding="UTF-8" standalone="no"?>
<svg
   xmlns:dc="http://purl.org/dc/elements/1.1/"
   xmlns:cc="http://creativecommons.org/ns#"
   xmlns:rdf="http://www.w3.org/1999/02/22-rdf-syntax-ns#"
   xmlns:svg="http://www.w3.org/2000/svg"
   xmlns="http://www.w3.org/2000/svg"
   xmlns:sodipodi="http://sodipodi.sourceforge.net/DTD/sodipodi-0.dtd"
   xmlns:inkscape="http://www.inkscape.org/namespaces/inkscape"
   viewBox="0 0 232.62467 143.35028"
   version="1.1"
   id="svg910"
   sodipodi:docname="logo-completo.svg"
   width="232.62466"
   height="143.35028"
   inkscape:version="1.0.2 (1.0.2+r75+1)">
  <metadata
     id="metadata916">
    <rdf:RDF>
      <cc:Work
         rdf:about="">
        <dc:format>image/svg+xml</dc:format>
        <dc:type
           rdf:resource="http://purl.org/dc/dcmitype/StillImage" />
        <dc:title></dc:title>
      </cc:Work>
    </rdf:RDF>
  </metadata>
  <defs
     id="defs914" />
  <sodipodi:namedview
     pagecolor="#ffffff"
     bordercolor="#666666"
     borderopacity="1"
     objecttolerance="10"
     gridtolerance="10"
     guidetolerance="10"
     inkscape:pageopacity="0"
     inkscape:pageshadow="2"
     inkscape:window-width="1366"
     inkscape:window-height="699"
     id="namedview912"
     showgrid="false"
     inkscape:zoom="1.1099757"
     inkscape:cx="69.709084"
     inkscape:cy="29.427421"
     inkscape:window-x="0"
     inkscape:window-y="0"
     inkscape:window-maximized="1"
     inkscape:current-layer="svg910" />
  <path
     fill="#fff"
     d="m 115.07167,94.271275 h -7.428 l -19.55,-92.4160003 c -0.224,-1.11899996 -1.218,-1.89099996 -2.366,-1.85399996 a 2.346,2.346 0 0 0 -2.24,2.03699996 L 60.60067,107.55527 44.26867,35.776275 a 2.334,2.334 0 0 0 -2.228,-1.813 c -1.048,-0.01 -2.02,0.688 -2.301,1.721 l -12.14,44.51 -9.12,-23.758 c -0.346,-0.902 -1.213,-1.543 -2.18,-1.543 H 2.2876704 a 2.336,2.336 0 0 0 0,4.671 H 14.69767 l 11.102,28.912 a 2.36,2.36 0 0 0 2.297,1.517 2.324,2.324 0 0 0 2.136,-1.706 l 11.56,-42.384 16.608,72.660995 a 2.337,2.337 0 0 0 4.592,-0.209 l 22.742,-106.543995 17.704,85.299 c 0.218,1.091 1.177,1.832 2.29,1.832 h 9.343 a 2.336,2.336 0 0 0 0,-4.672 z m 27.741,0 h -11.678 a 2.336,2.336 0 0 0 0,4.67 h 11.678 a 2.336,2.336 0 0 0 0,-4.67 z"
     id="path906"
     style="fill:#000000;stroke:none" />
  <path
     fill="#fff"
     d="m 126.56267,68.324275 q 3.069,0 4.755,1.296 1.685,1.254 2.334,3.415 0.691,2.117 0.691,4.754 v 11.582 q 0,0.95 -0.648,1.599 -0.605,0.605 -1.513,0.605 -0.95,0 -1.556,-0.605 -0.605,-0.648 -0.605,-1.6 v -11.537 q 0,-1.556 -0.432,-2.766 -0.432,-1.254 -1.513,-1.988 -1.037,-0.778 -2.939,-0.778 -1.772,0 -3.112,0.778 -1.34,0.734 -2.118,1.988 -0.734,1.21 -0.734,2.766 v 11.54 q 0,0.95 -0.649,1.599 -0.605,0.605 -1.512,0.605 -0.951,0 -1.556,-0.605 -0.605,-0.648 -0.605,-1.6 v -18.325 q 0,-0.95 0.605,-1.556 0.605,-0.648 1.556,-0.648 0.907,0 1.512,0.648 0.649,0.606 0.649,1.556 v 2.42 l -0.778,0.433 q 0.302,-0.95 1.037,-1.902 0.778,-0.994 1.859,-1.815 1.08,-0.864 2.42,-1.34 1.34,-0.518 2.852,-0.518 z m 32.243,0.172 q 0.907,0 1.512,0.649 0.649,0.605 0.649,1.556 v 18.67 q 0,0.952 -0.649,1.6 -0.605,0.605 -1.512,0.605 -0.951,0 -1.556,-0.605 -0.605,-0.648 -0.605,-1.6 v -3.11 l 0.864,0.13 q 0,0.778 -0.648,1.728 -0.605,0.951 -1.686,1.859 -1.08,0.864 -2.55,1.47 -1.47,0.561 -3.155,0.561 -2.982,0 -5.36,-1.513 -2.376,-1.555 -3.76,-4.235 -1.382,-2.68 -1.382,-6.094 0,-3.501 1.383,-6.137 1.383,-2.68 3.717,-4.193 2.377,-1.512 5.272,-1.512 1.859,0 3.415,0.605 1.599,0.605 2.766,1.556 1.167,0.95 1.815,2.03 0.648,1.038 0.648,1.989 l -1.34,0.13 v -3.934 q 0,-0.908 0.606,-1.556 0.605,-0.649 1.556,-0.649 z m -8.817,19.536 q 2.031,0 3.544,-1.037 1.556,-1.038 2.42,-2.81 0.864,-1.815 0.864,-4.02 0,-2.247 -0.864,-4.019 -0.864,-1.772 -2.42,-2.809 -1.513,-1.037 -3.544,-1.037 -1.988,0 -3.544,1.037 -1.556,1.037 -2.42,2.81 -0.865,1.771 -0.865,4.019 0,2.204 0.864,4.02 0.865,1.771 2.377,2.809 1.556,1.037 3.588,1.037 z m 21.653,1.339 q 0,0.952 -0.648,1.6 -0.605,0.605 -1.513,0.605 -0.908,0 -1.556,-0.605 -0.605,-0.648 -0.605,-1.6 v -27.573 q 0,-0.95 0.648,-1.556 0.649,-0.648 1.556,-0.648 0.951,0 1.513,0.648 0.605,0.605 0.605,1.556 z m 10.502,0 q 0,0.952 -0.605,1.6 -0.605,0.605 -1.556,0.605 -0.907,0 -1.555,-0.605 -0.606,-0.648 -0.606,-1.6 v -18.496 q 0,-0.951 0.606,-1.556 0.648,-0.649 1.555,-0.649 0.951,0 1.556,0.649 0.605,0.605 0.605,1.556 z m -2.204,-23.554 q -1.253,0 -1.815,-0.432 -0.562,-0.476 -0.562,-1.556 v -0.692 q 0,-1.08 0.605,-1.513 0.605,-0.432 1.815,-0.432 1.297,0 1.859,0.476 0.562,0.432 0.562,1.47 v 0.69 q 0,1.124 -0.605,1.557 -0.562,0.432 -1.859,0.432 z m 7.737,3.284 h 10.156 q 0.865,0 1.427,0.606 0.605,0.561 0.605,1.426 0,0.821 -0.605,1.383 -0.562,0.562 -1.427,0.562 h -10.156 q -0.865,0 -1.47,-0.562 -0.562,-0.605 -0.562,-1.426 0,-0.865 0.562,-1.427 0.605,-0.562 1.47,-0.562 z m 4.538,-5.618 q 0.95,0 1.556,0.648 0.605,0.605 0.605,1.556 v 20.054 q 0,0.778 0.259,1.254 0.26,0.475 0.692,0.648 0.475,0.173 0.95,0.173 0.476,0 0.822,-0.173 0.389,-0.173 0.907,-0.173 0.519,0 0.951,0.475 0.432,0.476 0.432,1.297 0,1.037 -1.123,1.686 -1.124,0.648 -2.42,0.648 -0.736,0 -1.73,-0.13 -0.994,-0.13 -1.945,-0.648 -0.907,-0.519 -1.512,-1.642 -0.605,-1.167 -0.605,-3.242 v -20.227 q 0,-0.95 0.605,-1.556 0.648,-0.648 1.556,-0.648 z m 16.51,25.888 q 0,0.952 -0.605,1.6 -0.605,0.605 -1.556,0.605 -0.908,0 -1.556,-0.605 -0.605,-0.648 -0.605,-1.6 v -18.496 q 0,-0.951 0.605,-1.556 0.648,-0.649 1.556,-0.649 0.95,0 1.556,0.649 0.605,0.605 0.605,1.556 z m -2.204,-23.554 q -1.254,0 -1.816,-0.432 -0.562,-0.476 -0.562,-1.556 v -0.692 q 0,-1.08 0.606,-1.513 0.605,-0.432 1.815,-0.432 1.296,0 1.858,0.476 0.562,0.432 0.562,1.47 v 0.69 q 0,1.124 -0.605,1.557 -0.562,0.432 -1.858,0.432 z m 17.936,2.507 q 2.334,0 4.106,0.518 1.815,0.476 2.852,1.383 1.038,0.865 1.038,2.032 0,0.734 -0.476,1.383 -0.432,0.605 -1.253,0.605 -0.648,0 -1.08,-0.216 -0.39,-0.217 -0.735,-0.52 -0.346,-0.302 -0.865,-0.604 -0.475,-0.26 -1.426,-0.432 -0.908,-0.173 -1.642,-0.173 -2.291,0 -3.977,1.037 -1.642,1.037 -2.593,2.81 -0.908,1.771 -0.908,4.019 0,2.247 0.908,4.02 0.95,1.771 2.55,2.809 1.642,1.037 3.803,1.037 1.297,0 2.118,-0.173 0.865,-0.216 1.426,-0.519 0.692,-0.389 1.124,-0.778 0.432,-0.432 1.254,-0.432 0.95,0 1.426,0.605 0.518,0.562 0.518,1.427 0,0.95 -1.166,1.858 -1.124,0.864 -3.026,1.426 -1.902,0.562 -4.192,0.562 -3.371,0 -5.878,-1.556 -2.464,-1.556 -3.847,-4.235 -1.34,-2.68 -1.34,-6.051 0,-3.415 1.427,-6.051 1.426,-2.68 3.976,-4.236 2.55,-1.555 5.878,-1.555 z M 115.41767,6.1962747 q 1.21,0 2.118,0.908 0.969,0.848 0.969,2.18 V 45.475275 q -0.06,1.331 -1.03,2.24 -0.907,0.847 -2.178,0.847 -1.392,0 -2.3,-0.848 -0.847,-0.908 -0.847,-2.239 V 9.2832747 q 0,-1.331 0.908,-2.179 0.908,-0.908 2.36,-0.908 z m 27.295,0 q 1.453,0 2.3,0.908 0.847,0.848 0.847,2.18 V 45.475275 q 0,1.331 -0.907,2.24 -0.848,0.847 -2.3,0.847 -1.271,0 -2.179,-0.848 -0.908,-0.908 -0.908,-2.239 V 9.2832747 q 0,-1.331 0.908,-2.179 0.968,-0.908 2.24,-0.908 z m -27.537,18.0360003 h 27.598 l -0.06,5.81 h -27.598 z m 44.12,24.329 q -1.452,0 -2.542,-0.847 -1.089,-0.908 -1.089,-2.239 V 9.2832747 q 0,-1.331 0.908,-2.179 0.908,-0.908 2.179,-0.908 h 17.067 q 3.268,0 5.991,1.635 2.724,1.573 4.358,4.4180003 1.694,2.784 1.694,6.415 0,2.42 -0.968,4.66 -0.968,2.179 -2.602,3.873 -1.634,1.695 -3.692,2.542 l -0.666,-1.15 q 1.876,0.666 3.268,1.937 1.392,1.21 2.18,2.905 0.846,1.634 0.907,3.753 l 0.303,3.147 q 0.181,1.21 0.484,1.997 0.302,0.787 1.09,1.21 1.088,0.606 1.33,1.816 0.303,1.21 -0.484,2.179 -0.544,0.726 -1.392,0.968 -0.786,0.182 -1.634,0.06 -0.847,-0.181 -1.452,-0.484 -0.969,-0.605 -1.997,-1.694 -0.969,-1.15 -1.574,-3.147 -0.605,-1.998 -0.605,-5.266 0,-1.513 -0.484,-2.602 -0.485,-1.09 -1.332,-1.755 -0.847,-0.726 -1.997,-1.03 -1.15,-0.362 -2.542,-0.362 h -12.83 l 0.847,-1.21 v 14.464 q 0,1.331 -0.727,2.24 -0.726,0.847 -1.997,0.847 z m 1.937,-21.606 h 14.465 q 1.392,-0.06 2.663,-1.089 1.331,-1.09 2.118,-2.905 0.847,-1.816 0.847,-4.115 0,-2.906 -1.755,-4.842 -1.695,-1.997 -4.055,-1.997 h -14.162 l 0.666,-1.574 v 17.793 z m 65.605,-20.8800003 q 1.271,0 2.18,0.848 0.907,0.847 0.907,2.057 0,0.666 -0.303,1.3920003 l -15.311,36.192 q -0.484,1.03 -1.331,1.513 -0.787,0.485 -1.634,0.485 -0.848,-0.06 -1.634,-0.545 -0.727,-0.484 -1.15,-1.392 l -15.313,-36.254 q -0.121,-0.302 -0.182,-0.6050003 -0.06,-0.363 -0.06,-0.726 0,-1.392 1.029,-2.179 1.028,-0.787 1.997,-0.787 1.937,0 2.844,1.998 l 13.86,32.8630003 h -1.755 l 13.072,-32.9240003 q 0.848,-1.937 2.784,-1.937 z m -56.283,88.1960003 h -11.679 a 2.336,2.336 0 0 0 0,4.67 h 11.679 a 2.336,2.336 0 0 0 0,-4.67 z m 27.741,0 h -11.678 a 2.336,2.336 0 0 0 0,4.67 h 11.678 a 2.336,2.336 0 0 0 0,-4.67 z m 27.741,0 h -11.678 a 2.336,2.336 0 0 0 0,4.67 h 11.678 a 2.336,2.336 0 0 0 0,-4.67 z m -96.066,17.499995 q -1.339,-0.385 -1.951,-0.943 -0.607,-0.564 -0.607,-1.387 0,-0.932 0.742,-1.539 0.748,-0.612 1.94,-0.612 0.813,0 1.446,0.314 0.64,0.314 0.986,0.867 0.353,0.553 0.353,1.208 h -1.046 q 0,-0.715 -0.455,-1.121 -0.455,-0.412 -1.284,-0.412 -0.77,0 -1.203,0.341 -0.428,0.336 -0.428,0.937 0,0.483 0.407,0.819 0.411,0.33 1.392,0.606 0.986,0.277 1.538,0.612 0.558,0.331 0.824,0.775 0.27,0.444 0.27,1.046 0,0.959 -0.747,1.538 -0.747,0.575 -1.999,0.575 -0.813,0 -1.517,-0.31 -0.704,-0.313 -1.089,-0.855 -0.379,-0.542 -0.379,-1.23 h 1.046 q 0,0.715 0.525,1.132 0.531,0.412 1.414,0.412 0.824,0 1.262,-0.336 0.44,-0.336 0.44,-0.915 0,-0.58 -0.407,-0.894 -0.406,-0.32 -1.474,-0.629 z m 10.325,-0.174 q 0,1.16 -0.39,2.026 -0.39,0.862 -1.105,1.317 -0.715,0.455 -1.669,0.455 -0.931,0 -1.652,-0.455 -0.72,-0.46 -1.121,-1.306 -0.396,-0.85 -0.407,-1.967 v -0.569 q 0,-1.137 0.396,-2.01 0.395,-0.872 1.116,-1.332 0.726,-0.466 1.658,-0.466 0.948,0 1.668,0.46 0.726,0.455 1.116,1.328 0.39,0.867 0.39,2.02 z m -1.034,-0.51 q 0,-1.403 -0.564,-2.15 -0.563,-0.753 -1.576,-0.753 -0.986,0 -1.555,0.753 -0.564,0.747 -0.58,2.08 v 0.58 q 0,1.36 0.569,2.14 0.574,0.775 1.576,0.775 1.008,0 1.56,-0.732 0.553,-0.737 0.57,-2.107 z m 6.945,0.716 h -3.31 v 3.483 h -1.04 v -7.888 h 4.886 v 0.856 h -3.846 v 2.698 h 3.31 z m 7.341,-3.549 h -2.536 v 7.032 h -1.034 v -7.032 h -2.53 v -0.856 h 6.1 z m 2.953,4.546 0.151,1.04 0.222,-0.937 1.56,-5.505 h 0.878 l 1.523,5.505 0.216,0.953 0.168,-1.062 1.225,-5.396 h 1.045 l -1.912,7.888 h -0.948 l -1.626,-5.748 -0.124,-0.601 -0.125,0.601 -1.685,5.748 h -0.948 l -1.907,-7.888 h 1.04 z m 12.265,0.428 h -3.305 l -0.742,2.058 h -1.073 l 3.013,-7.888 h 0.91 l 3.017,7.888 h -1.067 z m -2.99,-0.856 h 2.681 l -1.343,-3.69 z m 8.765,-0.277 h -1.853 v 3.191 h -1.045 v -7.888 h 2.611 q 1.333,0 2.048,0.607 0.72,0.607 0.72,1.766 0,0.737 -0.4,1.284 -0.396,0.547 -1.106,0.818 l 1.853,3.348 v 0.065 h -1.116 z m -1.853,-0.85 h 1.599 q 0.774,0 1.23,-0.401 0.46,-0.401 0.46,-1.073 0,-0.731 -0.439,-1.121 -0.433,-0.39 -1.257,-0.396 h -1.593 z m 10.251,0.396 h -3.419 v 2.795 h 3.971 v 0.85 h -5.011 v -7.888 h 4.957 v 0.856 h -3.917 v 2.536 h 3.419 z m 5.634,0.557 v 3.088 h -1.04 v -7.888 h 2.909 q 1.295,0 2.026,0.661 0.737,0.661 0.737,1.75 0,1.149 -0.72,1.772 -0.716,0.617 -2.054,0.617 z m 0,-0.85 h 1.869 q 0.834,0 1.279,-0.39 0.444,-0.396 0.444,-1.138 0,-0.704 -0.444,-1.127 -0.445,-0.423 -1.22,-0.439 h -1.928 z m 9.568,1.88 h -3.305 l -0.743,2.058 h -1.072 l 3.012,-7.888 h 0.91 l 3.018,7.888 h -1.067 z m -2.991,-0.856 h 2.682 l -1.344,-3.69 z m 8.766,-0.277 h -1.853 v 3.191 h -1.046 v -7.888 h 2.612 q 1.332,0 2.047,0.607 0.72,0.607 0.72,1.766 0,0.737 -0.4,1.284 -0.395,0.547 -1.105,0.818 l 1.853,3.348 v 0.065 h -1.116 z m -1.853,-0.85 h 1.598 q 0.775,0 1.23,-0.401 0.46,-0.401 0.46,-1.073 0,-0.731 -0.438,-1.121 -0.434,-0.39 -1.257,-0.396 h -1.593 z m 10.148,1.983 h -3.306 l -0.742,2.058 h -1.073 l 3.013,-7.888 h 0.91 l 3.017,7.888 h -1.067 z m -2.991,-0.856 h 2.681 l -1.343,-3.69 z m 13.078,-0.731 h -3.419 v 2.795 h 3.971 v 0.85 h -5.011 v -7.888 h 4.957 v 0.856 h -3.917 v 2.536 h 3.419 z m 2.893,2.795 h 3.738 v 0.85 h -4.784 v -7.888 h 1.046 z m -145.171,12.769 h -3.305 l -0.742,2.059 h -1.073 l 3.012,-7.888 h 0.91 l 3.018,7.888 h -1.067 z m -2.99,-0.856 h 2.68 l -1.343,-3.69 z m 11.934,2.915 h -1.045 l -3.972,-6.079 v 6.079 h -1.045 v -7.888 h 1.045 l 3.982,6.105 v -6.105 h 1.035 z m 6.301,-2.059 h -3.305 l -0.742,2.059 h -1.073 l 3.012,-7.888 h 0.91 l 3.018,7.888 h -1.067 z m -2.99,-0.856 h 2.681 l -1.343,-3.69 z m 1.852,-7.086 h 1.214 l -1.452,1.593 h -0.807 z m 5.066,9.15 h 3.738 v 0.85 h -4.784 v -7.887 h 1.046 z m 6.04,0.851 h -1.04 v -7.888 h 1.04 z m 4.226,-3.516 q -1.338,-0.385 -1.95,-0.943 -0.607,-0.563 -0.607,-1.387 0,-0.932 0.742,-1.538 0.748,-0.613 1.94,-0.613 0.812,0 1.446,0.315 0.64,0.314 0.986,0.866 0.352,0.553 0.352,1.209 h -1.045 q 0,-0.716 -0.455,-1.122 -0.455,-0.412 -1.284,-0.412 -0.77,0 -1.203,0.342 -0.428,0.336 -0.428,0.937 0,0.482 0.406,0.818 0.412,0.33 1.393,0.607 0.986,0.276 1.538,0.612 0.558,0.33 0.824,0.775 0.27,0.444 0.27,1.045 0,0.96 -0.747,1.539 -0.748,0.574 -2,0.574 -0.812,0 -1.516,-0.309 -0.704,-0.314 -1.089,-0.856 -0.38,-0.541 -0.38,-1.23 h 1.046 q 0,0.716 0.526,1.133 0.53,0.412 1.414,0.412 0.823,0 1.262,-0.336 0.439,-0.336 0.439,-0.916 0,-0.58 -0.406,-0.894 -0.407,-0.32 -1.474,-0.628 z m 5.374,3.516 h -1.04 v -7.888 h 1.04 z m 4.226,-3.516 q -1.338,-0.385 -1.95,-0.943 -0.607,-0.563 -0.607,-1.387 0,-0.932 0.742,-1.538 0.748,-0.613 1.94,-0.613 0.812,0 1.446,0.315 0.64,0.314 0.986,0.866 0.352,0.553 0.352,1.209 h -1.045 q 0,-0.716 -0.455,-1.122 -0.455,-0.412 -1.284,-0.412 -0.77,0 -1.203,0.342 -0.428,0.336 -0.428,0.937 0,0.482 0.406,0.818 0.412,0.33 1.393,0.607 0.986,0.276 1.538,0.612 0.558,0.33 0.824,0.775 0.27,0.444 0.27,1.045 0,0.96 -0.747,1.539 -0.748,0.574 -1.999,0.574 -0.813,0 -1.517,-0.309 -0.704,-0.314 -1.089,-0.856 -0.38,-0.541 -0.38,-1.23 h 1.046 q 0,0.716 0.526,1.133 0.53,0.412 1.414,0.412 0.823,0 1.262,-0.336 0.44,-0.336 0.44,-0.916 0,-0.58 -0.407,-0.894 -0.407,-0.32 -1.474,-0.628 z m 7.005,3.516 v -7.888 h 2.227 q 1.03,0 1.82,0.455 0.791,0.455 1.22,1.295 0.433,0.84 0.438,1.928 v 0.504 q 0,1.116 -0.433,1.956 -0.428,0.84 -1.23,1.29 -0.797,0.449 -1.859,0.46 z m 1.04,-7.032 v 6.181 h 1.095 q 1.202,0 1.869,-0.747 0.672,-0.748 0.672,-2.13 v -0.46 q 0,-1.344 -0.634,-2.086 -0.629,-0.747 -1.788,-0.758 z m 10.695,3.386 h -3.419 v 2.795 h 3.971 v 0.85 h -5.01 v -7.887 h 4.956 v 0.856 h -3.917 v 2.535 h 3.419 z m 5.64,2.795 h 3.738 v 0.85 h -4.784 v -7.887 h 1.046 z m 9.382,-1.208 h -3.304 l -0.742,2.059 h -1.073 l 3.012,-7.888 h 0.91 l 3.018,7.888 h -1.067 z m -2.99,-0.856 h 2.682 l -1.343,-3.69 z m 11.231,1.533 2.254,-6.506 h 1.138 l -2.926,7.888 h -0.92 l -2.921,-7.888 h 1.132 z m 8.397,-0.677 h -3.304 l -0.743,2.059 h -1.072 l 3.012,-7.888 h 0.91 l 3.018,7.888 h -1.067 z m -2.99,-0.856 h 2.682 l -1.344,-3.69 z m 8.766,-0.276 h -1.853 v 3.19 h -1.046 v -7.887 h 2.612 q 1.332,0 2.047,0.607 0.721,0.606 0.721,1.766 0,0.736 -0.4,1.284 -0.396,0.547 -1.106,0.818 l 1.853,3.348 v 0.065 h -1.116 z m -1.853,-0.85 h 1.598 q 0.775,0 1.23,-0.402 0.46,-0.4 0.46,-1.072 0,-0.732 -0.438,-1.122 -0.434,-0.39 -1.257,-0.395 h -1.593 z m 6.907,4.041 h -1.04 v -7.888 h 1.04 z m 6.355,-2.059 h -3.305 l -0.742,2.059 h -1.072 l 3.012,-7.888 h 0.91 l 3.018,7.888 h -1.068 z m -2.99,-0.856 h 2.681 l -1.343,-3.69 z m 5.872,2.915 v -7.888 h 2.58 q 1.283,0 1.928,0.53 0.65,0.532 0.65,1.572 0,0.552 -0.314,0.98 -0.314,0.423 -0.856,0.656 0.64,0.179 1.007,0.683 0.374,0.498 0.374,1.191 0,1.062 -0.688,1.67 -0.688,0.606 -1.945,0.606 z m 1.04,-3.69 v 2.84 h 1.718 q 0.726,0 1.143,-0.375 0.423,-0.379 0.423,-1.04 0,-1.425 -1.55,-1.425 z m 0,-0.834 h 1.572 q 0.682,0 1.089,-0.341 0.411,-0.342 0.411,-0.927 0,-0.65 -0.379,-0.942 -0.38,-0.298 -1.154,-0.298 h -1.538 z m 6.984,4.524 h -1.04 v -7.888 h 1.04 z m 2.947,-0.851 h 3.738 v 0.85 h -4.783 v -7.887 h 1.045 z m 6.041,0.851 h -1.04 v -7.888 h 1.04 z m 1.901,0 v -7.888 h 2.227 q 1.03,0 1.82,0.455 0.791,0.455 1.22,1.295 0.433,0.84 0.438,1.928 v 0.504 q 0,1.116 -0.433,1.956 -0.428,0.84 -1.23,1.29 -0.796,0.449 -1.858,0.46 z m 1.04,-7.032 v 6.181 h 1.095 q 1.203,0 1.869,-0.747 0.672,-0.748 0.672,-2.13 v -0.46 q 0,-1.344 -0.634,-2.086 -0.628,-0.747 -1.788,-0.758 z m 10.478,4.973 h -3.304 l -0.743,2.059 h -1.072 l 3.012,-7.888 h 0.91 l 3.018,7.888 h -1.068 z m -2.99,-0.856 h 2.681 l -1.343,-3.69 z m 5.872,2.915 v -7.888 h 2.227 q 1.03,0 1.82,0.455 0.791,0.455 1.22,1.295 0.433,0.84 0.438,1.928 v 0.504 q 0,1.116 -0.433,1.956 -0.428,0.84 -1.23,1.29 -0.796,0.449 -1.858,0.46 z m 1.04,-7.032 v 6.181 h 1.095 q 1.203,0 1.87,-0.747 0.67,-0.748 0.67,-2.13 v -0.46 q 0,-1.344 -0.633,-2.086 -0.628,-0.747 -1.788,-0.758 z m -147.695,21.009 v -7.888 h 2.227 q 1.029,0 1.82,0.455 0.79,0.455 1.219,1.295 0.433,0.84 0.439,1.929 v 0.504 q 0,1.116 -0.434,1.955 -0.428,0.84 -1.23,1.29 -0.796,0.45 -1.858,0.46 z m 1.04,-7.032 v 6.182 h 1.095 q 1.202,0 1.869,-0.748 0.671,-0.748 0.671,-2.129 v -0.46 q 0,-1.344 -0.633,-2.086 -0.629,-0.748 -1.788,-0.759 z m 10.695,3.386 h -3.419 v 2.796 h 3.971 v 0.85 h -5.01 v -7.888 h 4.957 v 0.856 h -3.917 v 2.536 h 3.419 z m 5.639,2.796 h 3.739 v 0.85 h -4.784 v -7.888 h 1.045 z m 9.383,-1.208 h -3.304 l -0.742,2.058 h -1.074 l 3.012,-7.888 h 0.91 l 3.018,7.888 h -1.067 z m -2.99,-0.856 h 2.682 l -1.344,-3.69 z m 12.97,-0.569 h -3.31 v 3.483 h -1.04 v -7.888 h 4.886 v 0.856 h -3.846 v 2.698 h 3.31 z m 4.675,0.293 h -1.852 v 3.19 h -1.046 v -7.888 h 2.611 q 1.333,0 2.048,0.607 0.72,0.607 0.72,1.766 0,0.737 -0.4,1.284 -0.396,0.547 -1.105,0.818 l 1.852,3.348 v 0.065 h -1.116 z m -1.852,-0.851 h 1.598 q 0.775,0 1.23,-0.401 0.46,-0.401 0.46,-1.073 0,-0.731 -0.439,-1.121 -0.433,-0.39 -1.257,-0.396 h -1.592 z m 10.25,0.395 h -3.419 v 2.796 h 3.971 v 0.85 h -5.011 v -7.888 h 4.957 v 0.856 h -3.917 v 2.536 h 3.419 z m 7.649,1.143 q -0.146,1.252 -0.926,1.934 -0.775,0.678 -2.064,0.678 -1.398,0 -2.243,-1.003 -0.84,-1.002 -0.84,-2.681 v -0.759 q 0,-1.1 0.39,-1.934 0.396,-0.834 1.116,-1.278 0.72,-0.45 1.669,-0.45 1.257,0 2.015,0.704 0.759,0.7 0.883,1.94 h -1.045 q -0.136,-0.943 -0.59,-1.366 -0.45,-0.422 -1.263,-0.422 -0.997,0 -1.566,0.737 -0.563,0.736 -0.563,2.096 v 0.764 q 0,1.284 0.536,2.043 0.537,0.758 1.5,0.758 0.868,0 1.328,-0.39 0.466,-0.395 0.618,-1.37 z m 6.973,-5.385 v 5.364 q -0.005,1.116 -0.704,1.825 -0.694,0.71 -1.886,0.797 l -0.276,0.01 q -1.295,0 -2.064,-0.698 -0.77,-0.7 -0.78,-1.923 v -5.375 h 1.03 v 5.342 q 0,0.856 0.47,1.333 0.472,0.471 1.344,0.471 0.883,0 1.349,-0.471 0.471,-0.472 0.471,-1.328 v -5.347 z m 6.1,4.242 h -3.418 v 2.796 h 3.97 v 0.85 h -5.01 v -7.888 h 4.957 v 0.856 h -3.917 v 2.536 h 3.418 z m 7.91,3.646 h -1.046 l -3.97,-6.078 v 6.078 h -1.046 v -7.888 h 1.045 l 3.982,6.106 v -6.106 h 1.035 z m 7.65,-2.503 q -0.147,1.252 -0.927,1.934 -0.774,0.678 -2.064,0.678 -1.398,0 -2.243,-1.003 -0.84,-1.002 -0.84,-2.681 v -0.759 q 0,-1.1 0.39,-1.934 0.396,-0.834 1.117,-1.278 0.72,-0.45 1.668,-0.45 1.257,0 2.016,0.704 0.758,0.7 0.883,1.94 h -1.046 q -0.135,-0.943 -0.59,-1.366 -0.45,-0.422 -1.263,-0.422 -0.997,0 -1.565,0.737 -0.564,0.736 -0.564,2.096 v 0.764 q 0,1.284 0.536,2.043 0.537,0.758 1.501,0.758 0.867,0 1.327,-0.39 0.466,-0.395 0.618,-1.37 z m 2.535,2.503 h -1.04 v -7.888 h 1.04 z m 6.355,-2.058 h -3.305 l -0.742,2.058 h -1.073 l 3.013,-7.888 h 0.91 l 3.017,7.888 h -1.067 z m -2.99,-0.856 h 2.681 l -1.343,-3.69 z m 14.421,0.411 q -0.146,1.252 -0.926,1.934 -0.775,0.678 -2.064,0.678 -1.398,0 -2.243,-1.003 -0.84,-1.002 -0.84,-2.681 v -0.759 q 0,-1.1 0.39,-1.934 0.396,-0.834 1.116,-1.278 0.72,-0.45 1.669,-0.45 1.257,0 2.015,0.704 0.759,0.7 0.883,1.94 h -1.045 q -0.136,-0.943 -0.59,-1.366 -0.45,-0.422 -1.263,-0.422 -0.997,0 -1.566,0.737 -0.563,0.736 -0.563,2.096 v 0.764 q 0,1.284 0.536,2.043 0.536,0.758 1.5,0.758 0.868,0 1.328,-0.39 0.466,-0.395 0.618,-1.37 z m 5.775,0.445 h -3.304 l -0.743,2.058 h -1.072 l 3.012,-7.888 h 0.91 l 3.018,7.888 h -1.067 z m -2.99,-0.856 h 2.682 l -1.344,-3.69 z m 8.766,-0.276 h -1.853 v 3.19 h -1.046 v -7.888 h 2.612 q 1.332,0 2.047,0.607 0.72,0.607 0.72,1.766 0,0.737 -0.4,1.284 -0.395,0.547 -1.105,0.818 l 1.853,3.348 v 0.065 h -1.116 z m -1.853,-0.851 h 1.598 q 0.775,0 1.23,-0.401 0.46,-0.401 0.46,-1.073 0,-0.731 -0.438,-1.121 -0.434,-0.39 -1.257,-0.396 h -1.593 z m 5.791,4.041 v -7.888 h 2.227 q 1.03,0 1.82,0.455 0.791,0.455 1.22,1.295 0.433,0.84 0.438,1.929 v 0.504 q 0,1.116 -0.433,1.955 -0.428,0.84 -1.23,1.29 -0.797,0.45 -1.858,0.46 z m 1.04,-7.032 v 6.182 h 1.095 q 1.203,0 1.869,-0.748 0.672,-0.748 0.672,-2.129 v -0.46 q 0,-1.344 -0.634,-2.086 -0.629,-0.748 -1.788,-0.759 z m 7.352,7.032 h -1.04 v -7.888 h 1.04 z m 6.355,-2.058 h -3.305 l -0.742,2.058 h -1.073 l 3.013,-7.888 h 0.91 l 3.017,7.888 h -1.067 z m -2.99,-0.856 h 2.681 l -1.343,-3.69 z m 11.615,0.411 q -0.146,1.252 -0.926,1.934 -0.775,0.678 -2.065,0.678 -1.397,0 -2.242,-1.003 -0.84,-1.002 -0.84,-2.681 v -0.759 q 0,-1.1 0.39,-1.934 0.395,-0.834 1.116,-1.278 0.72,-0.45 1.669,-0.45 1.256,0 2.015,0.704 0.758,0.7 0.883,1.94 h -1.046 q -0.135,-0.943 -0.59,-1.366 -0.45,-0.422 -1.262,-0.422 -0.997,0 -1.566,0.737 -0.564,0.736 -0.564,2.096 v 0.764 q 0,1.284 0.537,2.043 0.536,0.758 1.5,0.758 0.867,0 1.328,-0.39 0.466,-0.395 0.617,-1.37 z m 5.775,0.445 h -3.305 l -0.742,2.058 h -1.072 l 3.012,-7.888 h 0.91 l 3.018,7.888 h -1.068 z m -2.99,-0.856 h 2.681 l -1.343,-3.69 z"
     id="path908"
     style="fill:#000000;stroke:none" />
</svg>
