<?xml version="1.0" encoding="UTF-8" standalone="no"?>
<svg
   xmlns:dc="http://purl.org/dc/elements/1.1/"
   xmlns:cc="http://creativecommons.org/ns#"
   xmlns:rdf="http://www.w3.org/1999/02/22-rdf-syntax-ns#"
   xmlns:svg="http://www.w3.org/2000/svg"
   xmlns="http://www.w3.org/2000/svg"
   xmlns:sodipodi="http://sodipodi.sourceforge.net/DTD/sodipodi-0.dtd"
   xmlns:inkscape="http://www.inkscape.org/namespaces/inkscape"
   viewBox="0 0 120 53.258319"
   version="1.1"
   id="svg910"
   sodipodi:docname="logo.svg"
   width="120"
   height="53.25832"
   inkscape:version="1.0.2 (1.0.2+r75+1)">
  <metadata
     id="metadata916">
    <rdf:RDF>
      <cc:Work
         rdf:about="">
        <dc:format>image/svg+xml</dc:format>
        <dc:type
           rdf:resource="http://purl.org/dc/dcmitype/StillImage" />
      </cc:Work>
    </rdf:RDF>
  </metadata>
  <defs
     id="defs914" />
  <sodipodi:namedview
     pagecolor="#ffffff"
     bordercolor="#666666"
     borderopacity="1"
     objecttolerance="10"
     gridtolerance="10"
     guidetolerance="10"
     inkscape:pageopacity="0"
     inkscape:pageshadow="2"
     inkscape:window-width="1366"
     inkscape:window-height="699"
     id="namedview912"
     showgrid="false"
     inkscape:zoom="4.4399028"
     inkscape:cx="69.758414"
     inkscape:cy="20.768452"
     inkscape:window-x="0"
     inkscape:window-y="0"
     inkscape:window-maximized="1"
     inkscape:current-layer="svg910"
     inkscape:document-rotation="0"
     inkscape:snap-bbox="true"
     inkscape:bbox-paths="true"
     inkscape:bbox-nodes="true"
     inkscape:snap-bbox-edge-midpoints="true"
     inkscape:snap-bbox-midpoints="true"
     inkscape:snap-page="true" />
  <path
     id="rect834"
     style="fill:#ffffff;stroke-width:0.246134;stop-color:#000000"
     d="M 47.791016,5.0871461e-4 C 47.334512,0.01720971 46.956347,0.36013891 46.896484,0.81300871 L 37.759766,42.936056 31.240234,14.281759 c -0.09534,-0.416725 -0.46322,-0.715961 -0.890625,-0.724609 -0.418368,-0.004 -0.805791,0.27512 -0.917968,0.6875 L 24.585938,32.014181 20.945312,22.529806 C 20.807187,22.169723 20.460251,21.912618 20.074219,21.912618 H 0 v 1.865235 h 19.435547 l 4.431641,11.541015 c 0.144086,0.377683 0.512089,0.621229 0.916015,0.605469 0.401816,-0.01817 0.746966,-0.291831 0.853516,-0.679687 l 4.615234,-16.919922 6.628906,29.005859 c 0.233663,1.009129 1.692958,0.942198 1.833985,-0.08398 L 47.792969,4.7153566 54.861328,38.766138 c 0.08703,0.435533 0.469747,0.730469 0.914063,0.730469 H 120 V 37.633322 H 56.539062 L 48.734375,0.74074311 c -0.08942,-0.446711 -0.485071,-0.755005 -0.943359,-0.74023439539 z M 91.824219,2.4243366 c -0.257887,0 -0.523287,0.105003 -0.796875,0.314453 -0.273861,0.20945 -0.410156,0.498678 -0.410156,0.869141 -10e-7,0.09661 0.0075,0.194406 0.02344,0.291016 0.01624,0.08064 0.04005,0.159864 0.07227,0.240234 l 6.113281,14.4726564 c 0.112576,0.241653 0.265508,0.427831 0.458984,0.556641 0.209186,0.129077 0.426659,0.200827 0.652344,0.216797 0.225415,0 0.442895,-0.06428 0.652344,-0.19336 0.225422,-0.128545 0.402438,-0.329393 0.53125,-0.603515 L 105.23439,4.1391806 c 0.0806,-0.193216 0.12109,-0.37744 0.12109,-0.554687 0,-0.322026 -0.12189,-0.596848 -0.36328,-0.822266 -0.24192,-0.225685 -0.53088,-0.337891 -0.86914,-0.337891 -0.51524,0 -0.88564,0.257931 -1.11133,0.773438 L 98.132812,15.486837 92.960938,3.2212116 C 92.71955,2.6894696 92.33972,2.4243366 91.824219,2.4243366 Z m -32.181641,0.04883 c -0.386431,0 -0.699755,0.119675 -0.941406,0.361329 -0.241651,0.225684 -0.363281,0.516864 -0.363281,0.871093 V 18.152855 c 0,0.354228 0.112471,0.652879 0.33789,0.894531 0.241652,0.225684 0.547506,0.337891 0.917969,0.337891 0.338258,0 0.629707,-0.112473 0.871094,-0.337891 0.258155,-0.241918 0.394186,-0.540303 0.410156,-0.894531 v -6.160156 h 8.408203 v 6.160156 c 0,0.354228 0.119677,0.652879 0.361328,0.894531 0.241651,0.225684 0.532835,0.337891 0.871094,0.337891 0.386431,0 0.692286,-0.112473 0.917969,-0.337891 0.241388,-0.241918 0.361328,-0.540303 0.361328,-0.894531 V 3.7055866 c 0,-0.354495 -0.112471,-0.64541 -0.337891,-0.871093 -0.225419,-0.241654 -0.531271,-0.361329 -0.917969,-0.361329 -0.338526,0 -0.636912,0.119675 -0.894531,0.361329 -0.241651,0.225684 -0.361328,0.516864 -0.361328,0.871093 v 5.966797 H 60.875 v -5.966797 c 0,-0.354495 -0.128832,-0.64541 -0.386719,-0.871093 -0.241651,-0.241654 -0.523675,-0.361329 -0.845703,-0.361329 z m 17.298828,0 c -0.338258,0 -0.627489,0.119675 -0.86914,0.361329 -0.241651,0.225684 -0.363282,0.516864 -0.363282,0.871093 V 18.152855 c 0,0.354228 0.145723,0.652879 0.435547,0.894531 0.29009,0.225418 0.629194,0.337891 1.015625,0.337891 0.338259,0 0.603659,-0.112473 0.796875,-0.337891 0.193482,-0.241918 0.289063,-0.540303 0.289063,-0.894531 v -5.291016 h 4.785156 c 0.370462,0 0.707613,0.04819 1.013672,0.144531 0.30606,0.08091 0.571456,0.218895 0.796875,0.41211 0.225419,0.176982 0.404127,0.40913 0.533203,0.699219 0.128815,0.289824 0.191406,0.636397 0.191406,1.039062 0,0.869736 0.08118,1.571774 0.242188,2.103516 0.161012,0.531476 0.371019,0.949801 0.628906,1.255859 0.273588,0.289823 0.538988,0.514768 0.796875,0.675781 0.161012,0.08064 0.354658,0.14519 0.580078,0.19336 0.225683,0.03247 0.44316,0.025 0.652344,-0.02344 0.225682,-0.06441 0.409907,-0.193504 0.554687,-0.386719 0.209456,-0.257887 0.274,-0.549067 0.19336,-0.871093 -0.0644,-0.322026 -0.241694,-0.563331 -0.53125,-0.72461 C 88.473879,17.266838 88.33037,17.106444 88.25,16.896994 88.169361,16.687543 88.104811,16.422145 88.056641,16.100118 l -0.121094,-1.255859 c -0.01624,-0.563944 -0.138129,-1.065132 -0.363281,-1.5 -0.209715,-0.451102 -0.498678,-0.836177 -0.869141,-1.158203 -0.212086,-0.19365 -0.452729,-0.353261 -0.707031,-0.494141 0.412259,-0.215255 0.800247,-0.480826 1.142578,-0.835937 0.434866,-0.450836 0.779489,-0.9650094 1.037109,-1.5449224 0.257619,-0.596147 0.386719,-1.217277 0.386719,-1.861328 0,-0.966344 -0.224945,-1.819621 -0.675781,-2.560547 -0.434867,-0.75716 -1.015278,-1.345038 -1.740235,-1.763672 -0.72469,-0.435134 -1.520888,-0.652344 -2.390625,-0.652344 z m 1.304688,2.320313 h 5.388672 c 0.628082,0 1.168038,0.2654 1.61914,0.796875 0.467071,0.515242 0.699219,1.158247 0.699219,1.931641 0,0.61185 -0.112471,1.159273 -0.337891,1.642578 -0.209451,0.483039 -0.491477,0.8700664 -0.845703,1.1601564 -0.338259,0.273854 -0.692037,0.419587 -1.0625,0.435547 h -5.460937 z m 2.996094,18.9960944 c -0.241388,0 -0.44837,0.08535 -0.621094,0.257812 -0.172456,0.161279 -0.257813,0.370217 -0.257813,0.623047 v 11.005859 c 0,0.253362 0.07922,0.466215 0.240235,0.638672 0.172456,0.161008 0.379442,0.242188 0.621093,0.242188 0.24165,0 0.442505,-0.08118 0.603516,-0.242188 0.172456,-0.172457 0.259766,-0.38531 0.259766,-0.638672 V 24.670431 c 0,-0.253096 -0.08118,-0.462034 -0.242188,-0.623047 -0.14957,-0.172455 -0.35042,-0.257812 -0.603515,-0.257812 z m 4.175781,0.638672 c -0.322027,-1e-6 -0.563599,0.05691 -0.72461,0.171874 -0.161009,0.115238 -0.242187,0.316088 -0.242187,0.603516 v 0.277344 c 0,0.287428 0.07504,0.494413 0.224609,0.621094 0.14957,0.114977 0.391142,0.171875 0.72461,0.171875 0.345181,0 0.592616,-0.0569 0.742187,-0.171875 0.161008,-0.115237 0.242188,-0.323909 0.242188,-0.623047 v -0.275391 c 0,-0.27625 -0.07504,-0.470965 -0.22461,-0.585937 -0.14957,-0.126682 -0.397006,-0.189453 -0.742187,-0.189453 z m 10.611328,0 c -0.322025,0 -0.563598,0.05691 -0.724609,0.171874 -0.161281,0.115236 -0.242188,0.316086 -0.242188,0.603514 v 0.277344 c 0,0.287428 0.07504,0.494413 0.224609,0.621094 0.149567,0.114977 0.390876,0.171875 0.72461,0.171875 0.344909,0 0.59262,-0.0569 0.742187,-0.171875 0.161009,-0.115237 0.240235,-0.323909 0.240235,-0.623047 v -0.275391 c 0,-0.27625 -0.07308,-0.470965 -0.222657,-0.585937 -0.149567,-0.126682 -0.397271,-0.189453 -0.742187,-0.189453 z m -5.728516,0.91406 c -0.241651,0 -0.448638,0.08535 -0.621093,0.257812 -0.161009,0.16128 -0.242188,0.368264 -0.242188,0.621094 v 1.363282 h -0.949219 c -0.230209,-1e-6 -0.424925,0.07504 -0.585937,0.224609 -0.149573,0.149569 -0.22461,0.340103 -0.22461,0.570312 0,0.218498 0.07504,0.407347 0.22461,0.56836 0.161012,0.149563 0.355728,0.224609 0.585937,0.224609 H 89.4375 v 5.125 c 0,0.552234 0.08118,0.982386 0.242188,1.292969 0.16101,0.298871 0.362128,0.518124 0.603515,0.65625 0.253096,0.137859 0.510845,0.223212 0.775391,0.257812 0.264541,0.0346 0.49553,0.05273 0.691406,0.05273 0.344916,0 0.667655,-0.08731 0.966797,-0.259766 0.29887,-0.172722 0.447265,-0.395891 0.447265,-0.671875 2e-6,-0.218498 -0.0569,-0.390897 -0.171874,-0.517578 -0.114969,-0.126413 -0.240778,-0.189453 -0.378907,-0.189453 -0.137851,0 -0.25976,0.02232 -0.363281,0.06836 -0.09208,0.04604 -0.201449,0.06836 -0.328125,0.06836 -0.12642,0 -0.252494,-0.02232 -0.378906,-0.06836 -0.114975,-0.04604 -0.206211,-0.131397 -0.275391,-0.257812 -0.06896,-0.126681 -0.103516,-0.294898 -0.103516,-0.501953 V 29.17238 h 1.378907 c 0.230213,0 0.420746,-0.07504 0.570312,-0.224609 0.161009,-0.14957 0.242188,-0.332282 0.242188,-0.550781 0,-0.23021 -0.08118,-0.42101 -0.242188,-0.570313 -0.149566,-0.161279 -0.340099,-0.242187 -0.570312,-0.242187 h -1.378907 v -1.363282 c 10e-7,-0.253096 -0.08117,-0.460082 -0.242187,-0.621094 -0.161279,-0.17245 -0.368266,-0.257808 -0.621094,-0.257808 z m -26.208984,1.931641 v 0.002 c -0.402399,0 -0.78205,0.06722 -1.138672,0.205078 -0.356622,0.126681 -0.677416,0.305213 -0.964844,0.535156 -0.287695,0.218498 -0.535132,0.460068 -0.742187,0.72461 -0.04014,0.05199 -0.06823,0.104277 -0.103516,0.15625 v -0.535157 c 0,-0.25283 -0.08704,-0.459814 -0.259766,-0.621093 -0.16101,-0.172456 -0.362128,-0.259766 -0.603515,-0.259766 -0.253097,0 -0.460082,0.08731 -0.621094,0.259766 -0.161009,0.161279 -0.242187,0.368263 -0.242187,0.621093 v 7.314453 c 0,0.253362 0.08118,0.466214 0.242187,0.638672 0.161012,0.161008 0.367997,0.242188 0.621094,0.242188 0.241387,0 0.442504,-0.08118 0.603515,-0.242188 0.172724,-0.172724 0.259766,-0.383888 0.259766,-0.636718 v -4.607422 c 0,-0.414109 0.09763,-0.78149 0.292969,-1.103516 0.207056,-0.333736 0.489081,-0.599577 0.845703,-0.794922 0.356622,-0.207054 0.770595,-0.310547 1.242188,-0.310547 0.506191,0 0.895893,0.103493 1.171874,0.310547 0.287696,0.195345 0.490498,0.461186 0.605469,0.794922 0.114977,0.322026 0.171875,0.689407 0.171875,1.103516 v 4.605468 c 0,0.253363 0.08118,0.466215 0.242188,0.638672 0.161279,0.16101 0.368263,0.242188 0.621094,0.242188 0.24165,0 0.442503,-0.08118 0.603515,-0.242188 0.172455,-0.172723 0.257813,-0.385842 0.257813,-0.638672 v -4.623046 c 0,-0.701803 -0.09149,-1.335027 -0.275391,-1.898438 -0.172724,-0.575123 -0.483201,-1.029546 -0.931641,-1.363281 -0.448707,-0.344914 -1.081663,-0.517578 -1.898437,-0.517578 z m 39.080083,0 c -0.8857,0 -1.66706,0.20725 -2.34571,0.621093 -0.67865,0.41411 -1.208381,0.97816 -1.587889,1.691407 -0.379779,0.701538 -0.570312,1.507157 -0.570312,2.416015 0,0.897147 0.178531,1.702769 0.535156,2.416016 0.368063,0.712981 0.879395,1.275345 1.535155,1.689453 0.66721,0.414109 1.45052,0.621094 2.34766,0.621094 0.60946,0 1.16763,-0.07504 1.67383,-0.22461 0.50619,-0.149569 0.90789,-0.338416 1.20703,-0.568359 0.31031,-0.241651 0.46484,-0.489356 0.46484,-0.742188 0,-0.230207 -0.0672,-0.420742 -0.20508,-0.570312 -0.12669,-0.161009 -0.31748,-0.240234 -0.57031,-0.240234 -0.21876,0 -0.38502,0.05691 -0.5,0.171875 -0.11497,0.103528 -0.26506,0.207019 -0.44922,0.310547 -0.1493,0.08064 -0.33815,0.149551 -0.56836,0.207031 -0.2185,0.04604 -0.50051,0.07031 -0.8457,0.07031 -0.57512,0 -1.08253,-0.138079 -1.51953,-0.414062 -0.42583,-0.276251 -0.76475,-0.651718 -1.01758,-1.123047 -0.24165,-0.471862 -0.36133,-1.005506 -0.36133,-1.603516 0,-0.598276 0.11968,-1.134141 0.36133,-1.605468 0.25309,-0.47186 0.59816,-0.84511 1.03516,-1.121094 0.44871,-0.275984 0.97817,-0.414063 1.58789,-0.414063 0.19535,0 0.4146,0.02232 0.65625,0.06836 0.2531,0.04578 0.44195,0.104638 0.56836,0.173828 0.13812,0.08037 0.2536,0.159864 0.3457,0.240234 0.0918,0.08064 0.18918,0.149271 0.29297,0.207031 0.11497,0.05749 0.25919,0.08789 0.43164,0.08789 0.2185,0 0.38503,-0.08118 0.5,-0.242187 0.12662,-0.172723 0.18945,-0.35739 0.18945,-0.552735 0,-0.310582 -0.13781,-0.580339 -0.41406,-0.810547 -0.27599,-0.241387 -0.65563,-0.426053 -1.13867,-0.552734 -0.47159,-0.137858 -1.01751,-0.207031 -1.63867,-0.207031 z m -29.986333,0.002 c -0.770467,0 -1.47286,0.201115 -2.105469,0.603515 -0.621164,0.402665 -1.116308,0.96058 -1.484375,1.673829 -0.368068,0.701534 -0.550781,1.517473 -0.550781,2.449218 0,0.908592 0.182981,1.720346 0.550781,2.433594 0.368335,0.713247 0.869611,1.27561 1.501953,1.689453 0.632872,0.402665 1.345051,0.603516 2.138672,0.603516 0.448439,0 0.868545,-0.07335 1.259766,-0.222657 0.391221,-0.161276 0.73015,-0.357947 1.017578,-0.58789 0.245107,-0.20588 0.434736,-0.416673 0.58789,-0.63086 v 0.388672 c 10e-7,0.253362 0.07922,0.466215 0.240235,0.638672 0.161011,0.161008 0.367998,0.242188 0.621094,0.242188 0.241388,0 0.442504,-0.08118 0.603515,-0.242188 0.172724,-0.172457 0.259766,-0.38531 0.259766,-0.638672 v -7.453125 c 0,-0.253096 -0.08704,-0.46008 -0.259766,-0.621093 -0.161011,-0.172724 -0.362127,-0.257813 -0.603515,-0.257813 -0.253096,0 -0.460083,0.08509 -0.621094,0.257813 -0.161279,0.172456 -0.242188,0.379442 -0.242188,0.621093 v 0.351563 c -0.129612,-0.150582 -0.275315,-0.297524 -0.447265,-0.4375 -0.310582,-0.253097 -0.677963,-0.460081 -1.103516,-0.621094 -0.414108,-0.161009 -0.868534,-0.240234 -1.363281,-0.240234 z m 12.232422,0.136718 c -0.241388,0 -0.448637,0.08704 -0.621094,0.259766 -0.161278,0.161012 -0.242187,0.367999 -0.242187,0.621094 v 7.382812 c 0,0.253362 0.08091,0.466215 0.242187,0.638672 0.172457,0.161008 0.379706,0.242188 0.621094,0.242188 0.253096,0 0.460082,-0.08118 0.621093,-0.242188 0.16101,-0.172457 0.240235,-0.38531 0.240235,-0.638672 v -7.382812 c 0,-0.253095 -0.07922,-0.460082 -0.240235,-0.621094 -0.16101,-0.172724 -0.367997,-0.259766 -0.621093,-0.259766 z m 10.611328,0 c -0.241651,0 -0.448636,0.08704 -0.621094,0.259766 -0.161009,0.161012 -0.242187,0.367998 -0.242187,0.621094 v 7.382812 c 0,0.253363 0.08118,0.466216 0.242187,0.638672 0.172458,0.161009 0.379443,0.242188 0.621094,0.242188 0.253096,0 0.460082,-0.08118 0.621094,-0.242188 0.161009,-0.172456 0.240234,-0.385309 0.240234,-0.638672 v -7.382812 c 0,-0.253096 -0.07922,-0.460082 -0.240234,-0.621094 -0.161283,-0.172725 -0.368269,-0.259766 -0.621094,-0.259766 z m -22.585938,1.449219 c 0.540524,0 1.01335,0.138079 1.416016,0.414063 0.414108,0.275984 0.734902,0.649498 0.964844,1.121094 0.229942,0.471592 0.345703,1.007459 0.345703,1.605468 0,0.586833 -0.115761,1.120478 -0.345703,1.603516 -0.229942,0.471596 -0.550736,0.846796 -0.964844,1.123047 -0.402666,0.275983 -0.875492,0.414062 -1.416016,0.414062 -0.540792,0 -1.017532,-0.138079 -1.43164,-0.414062 -0.4024,-0.276251 -0.719009,-0.651718 -0.949219,-1.123047 -0.229943,-0.483305 -0.345703,-1.01695 -0.345703,-1.603516 0,-0.598276 0.115494,-1.134141 0.345703,-1.605468 0.229942,-0.47186 0.552689,-0.84511 0.966797,-1.121094 0.414107,-0.275984 0.884983,-0.414063 1.414062,-0.414063 z M 0,50.977072 v 2.28125 H 0.47070312 C 0.16901637,52.5598 0,51.788962 0,50.977072 Z m 120,0 c 0,0.81189 -0.16902,1.582728 -0.4707,2.28125 H 120 Z" />
</svg>
