<?xml version="1.0" encoding="UTF-8" standalone="no"?>
<svg
   xmlns:dc="http://purl.org/dc/elements/1.1/"
   xmlns:cc="http://creativecommons.org/ns#"
   xmlns:rdf="http://www.w3.org/1999/02/22-rdf-syntax-ns#"
   xmlns:svg="http://www.w3.org/2000/svg"
   xmlns="http://www.w3.org/2000/svg"
   xmlns:sodipodi="http://sodipodi.sourceforge.net/DTD/sodipodi-0.dtd"
   xmlns:inkscape="http://www.inkscape.org/namespaces/inkscape"
   viewBox="0 0 120 70.199217"
   version="1.1"
   id="svg910"
   sodipodi:docname="logo.svg"
   width="120"
   height="70.199219"
   inkscape:version="1.0.2 (1.0.2+r75+1)">
  <metadata
     id="metadata916">
    <rdf:RDF>
      <cc:Work
         rdf:about="">
        <dc:format>image/svg+xml</dc:format>
        <dc:type
           rdf:resource="http://purl.org/dc/dcmitype/StillImage" />
      </cc:Work>
    </rdf:RDF>
  </metadata>
  <defs
     id="defs914" />
  <sodipodi:namedview
     pagecolor="#ffffff"
     bordercolor="#666666"
     borderopacity="1"
     objecttolerance="10"
     gridtolerance="10"
     guidetolerance="10"
     inkscape:pageopacity="0"
     inkscape:pageshadow="2"
     inkscape:window-width="1366"
     inkscape:window-height="699"
     id="namedview912"
     showgrid="false"
     inkscape:zoom="3.1394854"
     inkscape:cx="85.582837"
     inkscape:cy="67.410856"
     inkscape:window-x="0"
     inkscape:window-y="0"
     inkscape:window-maximized="1"
     inkscape:current-layer="svg910"
     inkscape:document-rotation="0"
     inkscape:snap-bbox="true"
     inkscape:bbox-paths="true"
     inkscape:bbox-nodes="true"
     inkscape:snap-bbox-edge-midpoints="true"
     inkscape:snap-bbox-midpoints="true"
     inkscape:snap-page="true"
     inkscape:snap-global="false" />
  <path
     id="rect834"
     style="fill:#ffffff;stroke-width:0.246134;stop-color:#000000"
     d="M 47.791016,5.0871494e-4 C 47.334512,0.01720971 46.956347,0.36013891 46.896484,0.81300871 L 37.759766,42.936056 31.240234,14.281759 c -0.09534,-0.416725 -0.46322,-0.715961 -0.890625,-0.724609 -0.418368,-0.004 -0.805791,0.27512 -0.917968,0.6875 L 24.585938,32.014181 20.945312,22.529806 C 20.807187,22.169723 20.460251,21.912618 20.074219,21.912618 H 0 v 1.865235 h 19.435547 l 4.431641,11.541015 c 0.144086,0.377683 0.512089,0.621229 0.916015,0.605469 0.401816,-0.01817 0.746966,-0.291831 0.853516,-0.679687 l 4.615234,-16.919922 6.628906,29.005859 c 0.233663,1.009129 1.692958,0.942198 1.833985,-0.08398 L 47.792969,4.7153566 54.861328,38.766138 c 0.08703,0.435533 0.469747,0.730469 0.914063,0.730469 H 120 V 37.633322 H 56.539062 L 48.734375,0.74074311 c -0.08942,-0.446711 -0.485071,-0.755005 -0.943359,-0.74023439506 z M 91.824219,2.4243366 c -0.257887,0 -0.523287,0.105003 -0.796875,0.314453 -0.273861,0.20945 -0.410156,0.498678 -0.410156,0.869141 -10e-7,0.09661 0.0075,0.194406 0.02344,0.291016 0.01624,0.08064 0.04005,0.159864 0.07227,0.240234 l 6.113281,14.4726564 c 0.112576,0.241653 0.265508,0.427831 0.458984,0.556641 0.209186,0.129077 0.426659,0.200827 0.652344,0.216797 0.225415,0 0.442895,-0.06428 0.652344,-0.19336 0.225422,-0.128545 0.402438,-0.329393 0.53125,-0.603515 L 105.23439,4.1391806 c 0.0806,-0.193216 0.12109,-0.37744 0.12109,-0.554687 0,-0.322026 -0.12189,-0.596848 -0.36328,-0.822266 -0.24192,-0.225685 -0.53088,-0.337891 -0.86914,-0.337891 -0.51524,0 -0.88564,0.257931 -1.11133,0.773438 L 98.132812,15.486837 92.960938,3.2212116 C 92.71955,2.6894696 92.33972,2.4243366 91.824219,2.4243366 Z m -32.181641,0.04883 c -0.386431,0 -0.699755,0.119675 -0.941406,0.361329 -0.241651,0.225684 -0.363281,0.516864 -0.363281,0.871093 V 18.152855 c 0,0.354228 0.112471,0.652879 0.33789,0.894531 0.241652,0.225684 0.547506,0.337891 0.917969,0.337891 0.338258,0 0.629707,-0.112473 0.871094,-0.337891 0.258155,-0.241918 0.394186,-0.540303 0.410156,-0.894531 v -6.160156 h 8.408203 v 6.160156 c 0,0.354228 0.119677,0.652879 0.361328,0.894531 0.241651,0.225684 0.532835,0.337891 0.871094,0.337891 0.386431,0 0.692286,-0.112473 0.917969,-0.337891 0.241388,-0.241918 0.361328,-0.540303 0.361328,-0.894531 V 3.7055866 c 0,-0.354495 -0.112471,-0.64541 -0.337891,-0.871093 -0.225419,-0.241654 -0.531271,-0.361329 -0.917969,-0.361329 -0.338526,0 -0.636912,0.119675 -0.894531,0.361329 -0.241651,0.225684 -0.361328,0.516864 -0.361328,0.871093 v 5.966797 H 60.875 v -5.966797 c 0,-0.354495 -0.128832,-0.64541 -0.386719,-0.871093 -0.241651,-0.241654 -0.523675,-0.361329 -0.845703,-0.361329 z m 17.298828,0 c -0.338258,0 -0.627489,0.119675 -0.86914,0.361329 -0.241651,0.225684 -0.363282,0.516864 -0.363282,0.871093 V 18.152855 c 0,0.354228 0.145723,0.652879 0.435547,0.894531 0.29009,0.225418 0.629194,0.337891 1.015625,0.337891 0.338259,0 0.603659,-0.112473 0.796875,-0.337891 0.193482,-0.241918 0.289063,-0.540303 0.289063,-0.894531 v -5.291016 h 4.785156 c 0.370462,0 0.707613,0.04819 1.013672,0.144531 0.30606,0.08091 0.571456,0.218895 0.796875,0.41211 0.225419,0.176982 0.404127,0.40913 0.533203,0.699219 0.128815,0.289824 0.191406,0.636397 0.191406,1.039062 0,0.869736 0.08118,1.571774 0.242188,2.103516 0.161012,0.531476 0.371019,0.949801 0.628906,1.255859 0.273588,0.289823 0.538988,0.514768 0.796875,0.675781 0.161012,0.08064 0.354658,0.14519 0.580078,0.19336 0.225683,0.03247 0.44316,0.025 0.652344,-0.02344 0.225682,-0.06441 0.409907,-0.193504 0.554687,-0.386719 0.209456,-0.257887 0.274,-0.549067 0.19336,-0.871093 -0.0644,-0.322026 -0.241694,-0.563331 -0.53125,-0.72461 C 88.473879,17.266838 88.33037,17.106444 88.25,16.896994 88.169361,16.687543 88.104811,16.422145 88.056641,16.100118 l -0.121094,-1.255859 c -0.01624,-0.563944 -0.138129,-1.065132 -0.363281,-1.5 -0.209715,-0.451102 -0.498678,-0.836177 -0.869141,-1.158203 -0.212086,-0.19365 -0.452729,-0.353261 -0.707031,-0.494141 0.412259,-0.215255 0.800247,-0.480826 1.142578,-0.835937 0.434866,-0.450836 0.779489,-0.9650094 1.037109,-1.5449224 0.257619,-0.596147 0.386719,-1.217277 0.386719,-1.861328 0,-0.966344 -0.224945,-1.819621 -0.675781,-2.560547 -0.434867,-0.75716 -1.015278,-1.345038 -1.740235,-1.763672 -0.72469,-0.435134 -1.520888,-0.652344 -2.390625,-0.652344 z m 1.304688,2.320313 h 5.388672 c 0.628082,0 1.168038,0.2654 1.61914,0.796875 0.467071,0.515242 0.699219,1.158247 0.699219,1.931641 0,0.61185 -0.112471,1.159273 -0.337891,1.642578 -0.209451,0.483039 -0.491477,0.8700664 -0.845703,1.1601564 -0.338259,0.273854 -0.692037,0.419587 -1.0625,0.435547 h -5.460937 z m 2.996094,18.9960944 c -0.241388,0 -0.44837,0.08535 -0.621094,0.257812 -0.172456,0.161279 -0.257813,0.370217 -0.257813,0.623047 v 11.005859 c 0,0.253362 0.07922,0.466215 0.240235,0.638672 0.172456,0.161008 0.379442,0.242188 0.621093,0.242188 0.24165,0 0.442505,-0.08118 0.603516,-0.242188 0.172456,-0.172457 0.259766,-0.38531 0.259766,-0.638672 V 24.670431 c 0,-0.253096 -0.08118,-0.462034 -0.242188,-0.623047 -0.14957,-0.172455 -0.35042,-0.257812 -0.603515,-0.257812 z m 4.175781,0.638672 c -0.322027,-1e-6 -0.563599,0.05691 -0.72461,0.171874 -0.161009,0.115238 -0.242187,0.316088 -0.242187,0.603516 v 0.277344 c 0,0.287428 0.07504,0.494413 0.224609,0.621094 0.14957,0.114977 0.391142,0.171875 0.72461,0.171875 0.345181,0 0.592616,-0.0569 0.742187,-0.171875 0.161008,-0.115237 0.242188,-0.323909 0.242188,-0.623047 v -0.275391 c 0,-0.27625 -0.07504,-0.470965 -0.22461,-0.585937 -0.14957,-0.126682 -0.397006,-0.189453 -0.742187,-0.189453 z m 10.611328,0 c -0.322025,0 -0.563598,0.05691 -0.724609,0.171874 -0.161281,0.115236 -0.242188,0.316086 -0.242188,0.603514 v 0.277344 c 0,0.287428 0.07504,0.494413 0.224609,0.621094 0.149567,0.114977 0.390876,0.171875 0.72461,0.171875 0.344909,0 0.59262,-0.0569 0.742187,-0.171875 0.161009,-0.115237 0.240235,-0.323909 0.240235,-0.623047 v -0.275391 c 0,-0.27625 -0.07308,-0.470965 -0.222657,-0.585937 -0.149567,-0.126682 -0.397271,-0.189453 -0.742187,-0.189453 z m -5.728516,0.91406 c -0.241651,0 -0.448638,0.08535 -0.621093,0.257812 -0.161009,0.16128 -0.242188,0.368264 -0.242188,0.621094 v 1.363282 h -0.949219 c -0.230209,-1e-6 -0.424925,0.07504 -0.585937,0.224609 -0.149573,0.149569 -0.22461,0.340103 -0.22461,0.570312 0,0.218498 0.07504,0.407347 0.22461,0.56836 0.161012,0.149563 0.355728,0.224609 0.585937,0.224609 H 89.4375 v 5.125 c 0,0.552234 0.08118,0.982386 0.242188,1.292969 0.16101,0.298871 0.362128,0.518124 0.603515,0.65625 0.253096,0.137859 0.510845,0.223212 0.775391,0.257812 0.264541,0.0346 0.49553,0.05273 0.691406,0.05273 0.344916,0 0.667655,-0.08731 0.966797,-0.259766 0.29887,-0.172722 0.447265,-0.395891 0.447265,-0.671875 2e-6,-0.218498 -0.0569,-0.390897 -0.171874,-0.517578 -0.114969,-0.126413 -0.240778,-0.189453 -0.378907,-0.189453 -0.137851,0 -0.25976,0.02232 -0.363281,0.06836 -0.09208,0.04604 -0.201449,0.06836 -0.328125,0.06836 -0.12642,0 -0.252494,-0.02232 -0.378906,-0.06836 -0.114975,-0.04604 -0.206211,-0.131397 -0.275391,-0.257812 -0.06896,-0.126681 -0.103516,-0.294898 -0.103516,-0.501953 V 29.17238 h 1.378907 c 0.230213,0 0.420746,-0.07504 0.570312,-0.224609 0.161009,-0.14957 0.242188,-0.332282 0.242188,-0.550781 0,-0.23021 -0.08118,-0.42101 -0.242188,-0.570313 -0.149566,-0.161279 -0.340099,-0.242187 -0.570312,-0.242187 h -1.378907 v -1.363282 c 10e-7,-0.253096 -0.08117,-0.460082 -0.242187,-0.621094 -0.161279,-0.17245 -0.368266,-0.257808 -0.621094,-0.257808 z m -26.208984,1.931641 v 0.002 c -0.402399,0 -0.78205,0.06722 -1.138672,0.205078 -0.356622,0.126681 -0.677416,0.305213 -0.964844,0.535156 -0.287695,0.218498 -0.535132,0.460068 -0.742187,0.72461 -0.04014,0.05199 -0.06823,0.104277 -0.103516,0.15625 v -0.535157 c 0,-0.25283 -0.08704,-0.459814 -0.259766,-0.621093 -0.16101,-0.172456 -0.362128,-0.259766 -0.603515,-0.259766 -0.253097,0 -0.460082,0.08731 -0.621094,0.259766 -0.161009,0.161279 -0.242187,0.368263 -0.242187,0.621093 v 7.314453 c 0,0.253362 0.08118,0.466214 0.242187,0.638672 0.161012,0.161008 0.367997,0.242188 0.621094,0.242188 0.241387,0 0.442504,-0.08118 0.603515,-0.242188 0.172724,-0.172724 0.259766,-0.383888 0.259766,-0.636718 v -4.607422 c 0,-0.414109 0.09763,-0.78149 0.292969,-1.103516 0.207056,-0.333736 0.489081,-0.599577 0.845703,-0.794922 0.356622,-0.207054 0.770595,-0.310547 1.242188,-0.310547 0.506191,0 0.895893,0.103493 1.171874,0.310547 0.287696,0.195345 0.490498,0.461186 0.605469,0.794922 0.114977,0.322026 0.171875,0.689407 0.171875,1.103516 v 4.605468 c 0,0.253363 0.08118,0.466215 0.242188,0.638672 0.161279,0.16101 0.368263,0.242188 0.621094,0.242188 0.24165,0 0.442503,-0.08118 0.603515,-0.242188 0.172455,-0.172723 0.257813,-0.385842 0.257813,-0.638672 v -4.623046 c 0,-0.701803 -0.09149,-1.335027 -0.275391,-1.898438 -0.172724,-0.575123 -0.483201,-1.029546 -0.931641,-1.363281 -0.448707,-0.344914 -1.081663,-0.517578 -1.898437,-0.517578 z m 39.080083,0 c -0.8857,0 -1.66706,0.20725 -2.34571,0.621093 -0.67865,0.41411 -1.208381,0.97816 -1.587889,1.691407 -0.379779,0.701538 -0.570312,1.507157 -0.570312,2.416015 0,0.897147 0.178531,1.702769 0.535156,2.416016 0.368063,0.712981 0.879395,1.275345 1.535155,1.689453 0.66721,0.414109 1.45052,0.621094 2.34766,0.621094 0.60946,0 1.16763,-0.07504 1.67383,-0.22461 0.50619,-0.149569 0.90789,-0.338416 1.20703,-0.568359 0.31031,-0.241651 0.46484,-0.489356 0.46484,-0.742188 0,-0.230207 -0.0672,-0.420742 -0.20508,-0.570312 -0.12669,-0.161009 -0.31748,-0.240234 -0.57031,-0.240234 -0.21876,0 -0.38502,0.05691 -0.5,0.171875 -0.11497,0.103528 -0.26506,0.207019 -0.44922,0.310547 -0.1493,0.08064 -0.33815,0.149551 -0.56836,0.207031 -0.2185,0.04604 -0.50051,0.07031 -0.8457,0.07031 -0.57512,0 -1.08253,-0.138079 -1.51953,-0.414062 -0.42583,-0.276251 -0.76475,-0.651718 -1.01758,-1.123047 -0.24165,-0.471862 -0.36133,-1.005506 -0.36133,-1.603516 0,-0.598276 0.11968,-1.134141 0.36133,-1.605468 0.25309,-0.47186 0.59816,-0.84511 1.03516,-1.121094 0.44871,-0.275984 0.97817,-0.414063 1.58789,-0.414063 0.19535,0 0.4146,0.02232 0.65625,0.06836 0.2531,0.04578 0.44195,0.104638 0.56836,0.173828 0.13812,0.08037 0.2536,0.159864 0.3457,0.240234 0.0918,0.08064 0.18918,0.149271 0.29297,0.207031 0.11497,0.05749 0.25919,0.08789 0.43164,0.08789 0.2185,0 0.38503,-0.08118 0.5,-0.242187 0.12662,-0.172723 0.18945,-0.35739 0.18945,-0.552735 0,-0.310582 -0.13781,-0.580339 -0.41406,-0.810547 -0.27599,-0.241387 -0.65563,-0.426053 -1.13867,-0.552734 -0.47159,-0.137858 -1.01751,-0.207031 -1.63867,-0.207031 z m -29.986333,0.002 c -0.770467,0 -1.47286,0.201115 -2.105469,0.603515 -0.621164,0.402665 -1.116308,0.96058 -1.484375,1.673829 -0.368068,0.701534 -0.550781,1.517473 -0.550781,2.449218 0,0.908592 0.182981,1.720346 0.550781,2.433594 0.368335,0.713247 0.869611,1.27561 1.501953,1.689453 0.632872,0.402665 1.345051,0.603516 2.138672,0.603516 0.448439,0 0.868545,-0.07335 1.259766,-0.222657 0.391221,-0.161276 0.73015,-0.357947 1.017578,-0.58789 0.245107,-0.20588 0.434736,-0.416673 0.58789,-0.63086 v 0.388672 c 10e-7,0.253362 0.07922,0.466215 0.240235,0.638672 0.161011,0.161008 0.367998,0.242188 0.621094,0.242188 0.241388,0 0.442504,-0.08118 0.603515,-0.242188 0.172724,-0.172457 0.259766,-0.38531 0.259766,-0.638672 v -7.453125 c 0,-0.253096 -0.08704,-0.46008 -0.259766,-0.621093 -0.161011,-0.172724 -0.362127,-0.257813 -0.603515,-0.257813 -0.253096,0 -0.460083,0.08509 -0.621094,0.257813 -0.161279,0.172456 -0.242188,0.379442 -0.242188,0.621093 v 0.351563 c -0.129612,-0.150582 -0.275315,-0.297524 -0.447265,-0.4375 -0.310582,-0.253097 -0.677963,-0.460081 -1.103516,-0.621094 -0.414108,-0.161009 -0.868534,-0.240234 -1.363281,-0.240234 z m 12.232422,0.136718 c -0.241388,0 -0.448637,0.08704 -0.621094,0.259766 -0.161278,0.161012 -0.242187,0.367999 -0.242187,0.621094 v 7.382812 c 0,0.253362 0.08091,0.466215 0.242187,0.638672 0.172457,0.161008 0.379706,0.242188 0.621094,0.242188 0.253096,0 0.460082,-0.08118 0.621093,-0.242188 0.16101,-0.172457 0.240235,-0.38531 0.240235,-0.638672 v -7.382812 c 0,-0.253095 -0.07922,-0.460082 -0.240235,-0.621094 -0.16101,-0.172724 -0.367997,-0.259766 -0.621093,-0.259766 z m 10.611328,0 c -0.241651,0 -0.448636,0.08704 -0.621094,0.259766 -0.161009,0.161012 -0.242187,0.367998 -0.242187,0.621094 v 7.382812 c 0,0.253363 0.08118,0.466216 0.242187,0.638672 0.172458,0.161009 0.379443,0.242188 0.621094,0.242188 0.253096,0 0.460082,-0.08118 0.621094,-0.242188 0.161009,-0.172456 0.240234,-0.385309 0.240234,-0.638672 v -7.382812 c 0,-0.253096 -0.07922,-0.460082 -0.240234,-0.621094 -0.161283,-0.172725 -0.368269,-0.259766 -0.621094,-0.259766 z m -22.585938,1.449219 c 0.540524,0 1.01335,0.138079 1.416016,0.414063 0.414108,0.275984 0.734902,0.649498 0.964844,1.121094 0.229942,0.471592 0.345703,1.007459 0.345703,1.605468 0,0.586833 -0.115761,1.120478 -0.345703,1.603516 -0.229942,0.471596 -0.550736,0.846796 -0.964844,1.123047 -0.402666,0.275983 -0.875492,0.414062 -1.416016,0.414062 -0.540792,0 -1.017532,-0.138079 -1.43164,-0.414062 -0.4024,-0.276251 -0.719009,-0.651718 -0.949219,-1.123047 -0.229943,-0.483305 -0.345703,-1.01695 -0.345703,-1.603516 0,-0.598276 0.115494,-1.134141 0.345703,-1.605468 0.229942,-0.47186 0.552689,-0.84511 0.966797,-1.121094 0.414107,-0.275984 0.884983,-0.414063 1.414062,-0.414063 z M 0,50.977072 v 2.28125 H 0.47070312 C 0.16901637,52.5598 0,51.788962 0,50.977072 Z m 120,0 c 0,0.81189 -0.16902,1.582728 -0.4707,2.28125 H 120 Z" />
  <path
     id="path834"
     style="font-style:normal;font-variant:normal;font-weight:600;font-stretch:normal;font-size:10.6667px;line-height:1;font-family:Quicksand;-inkscape-font-specification:'Quicksand Semi-Bold';text-align:center;letter-spacing:0px;word-spacing:0px;text-anchor:middle;white-space:pre;inline-size:128.443;fill:#ffffff;fill-opacity:1;stroke:none;stroke-width:0.896719"
     d="m 67.927734,51.257812 c -0.140288,0 -0.254478,0.04888 -0.34375,0.144532 -0.08927,0.08927 -0.132812,0.203463 -0.132812,0.34375 v 6.101562 c 0,0.140288 0.04354,0.259819 0.132812,0.355469 0.08927,0.08927 0.203462,0.132813 0.34375,0.132813 0.13391,0 0.246661,-0.04354 0.335938,-0.132813 0.09565,-0.09565 0.142578,-0.215181 0.142578,-0.355469 v -2.533203 c 0,-0.223184 0.05227,-0.428358 0.154297,-0.613281 0.108407,-0.184925 0.257919,-0.33105 0.449219,-0.439453 0.197678,-0.108404 0.421232,-0.16211 0.669922,-0.16211 0.26782,0 0.474432,0.05371 0.621093,0.16211 0.153044,0.108403 0.25902,0.254528 0.316407,0.439453 0.06377,0.184923 0.0957,0.390097 0.0957,0.613281 v 2.533203 c 0,0.140288 0.04354,0.259819 0.132812,0.355469 0.08927,0.08927 0.203461,0.132813 0.34375,0.132813 0.13391,0 0.246666,-0.04354 0.335938,-0.132813 0.09565,-0.09565 0.142578,-0.215181 0.142578,-0.355469 v -2.533203 c 0,-0.382601 -0.05031,-0.7339 -0.152344,-1.052734 -0.09565,-0.318835 -0.265501,-0.570936 -0.507813,-0.75586 -0.242317,-0.1913 -0.583447,-0.287109 -1.023437,-0.287109 -0.216809,0 -0.420028,0.03871 -0.611328,0.115234 -0.1913,0.07014 -0.365978,0.165952 -0.525391,0.28711 -0.153046,0.121156 -0.284177,0.255679 -0.392578,0.402344 -0.02269,0.03262 -0.02898,0.0634 -0.04883,0.0957 v -2.373047 c 0,-0.140287 -0.04693,-0.254476 -0.142578,-0.34375 -0.08928,-0.09565 -0.202028,-0.144532 -0.335938,-0.144532 z m 31.441407,0 c -0.13391,0 -0.250053,0.04888 -0.345703,0.144532 -0.09565,0.08927 -0.142579,0.203463 -0.142579,0.34375 v 6.101562 c 0,0.140288 0.0455,0.259819 0.134766,0.355469 0.09565,0.08927 0.20984,0.132813 0.34375,0.132813 0.13391,0 0.244707,-0.04354 0.333984,-0.132813 0.09565,-0.09565 0.144532,-0.215181 0.144532,-0.355469 v -6.101562 c 0,-0.140287 -0.04549,-0.254476 -0.134766,-0.34375 -0.08289,-0.09565 -0.193696,-0.144532 -0.333984,-0.144532 z m -82.566407,0.0098 c -0.554771,-10e-7 -0.978157,0.1413 -1.271484,0.421875 -0.286951,0.280574 -0.429688,0.640087 -0.429688,1.080078 v 0.621094 h -0.583984 c -0.121157,0 -0.227133,0.0421 -0.316406,0.125 -0.0829,0.0829 -0.123047,0.188872 -0.123047,0.316406 0,0.127534 0.04015,0.231557 0.123047,0.314453 0.08927,0.0829 0.195249,0.125 0.316406,0.125 h 0.583984 v 3.576172 c 1e-6,0.140287 0.04354,0.259818 0.132813,0.355469 0.08927,0.08927 0.205416,0.132813 0.345703,0.132813 0.133911,0 0.24471,-0.04354 0.333984,-0.132813 0.09565,-0.09565 0.142579,-0.215182 0.142579,-0.355469 v -3.576172 h 0.9375 c 0.127534,0 0.233509,-0.0421 0.316406,-0.125 0.0829,-0.0829 0.125,-0.186919 0.125,-0.314453 0,-0.127534 -0.0421,-0.233509 -0.125,-0.316406 -0.0829,-0.0829 -0.188872,-0.125 -0.316406,-0.125 h -0.9375 V 52.7598 c 0,-0.09565 0.02033,-0.191459 0.05859,-0.28711 0.03826,-0.102027 0.102134,-0.18428 0.191407,-0.248047 0.08927,-0.07014 0.206852,-0.105468 0.353515,-0.105468 0.108404,0 0.215815,0.01695 0.324219,0.04883 0.108404,0.02551 0.195999,0.03711 0.259766,0.03711 0.102026,0 0.191057,-0.03871 0.267578,-0.115234 0.07652,-0.0829 0.115234,-0.18692 0.115234,-0.314453 0,-0.127534 -0.04549,-0.226732 -0.134765,-0.296875 -0.0829,-0.07652 -0.188873,-0.13023 -0.316407,-0.16211 -0.127533,-0.03188 -0.251889,-0.04883 -0.373047,-0.04883 z m 33.039063,0 c -0.55477,-10e-7 -0.980109,0.1413 -1.273438,0.421875 -0.28695,0.280574 -0.429687,0.640087 -0.429687,1.080078 v 0.621094 h -0.583984 c -0.121159,0 -0.225182,0.0421 -0.314454,0.125 -0.0829,0.0829 -0.125,0.188872 -0.125,0.316406 0,0.127534 0.0421,0.231557 0.125,0.314453 0.08927,0.0829 0.193295,0.125 0.314454,0.125 h 0.583984 v 3.576172 c 0,0.140287 0.04354,0.259818 0.132812,0.355469 0.08928,0.08927 0.205415,0.132813 0.345704,0.132813 0.133909,0 0.244713,-0.04354 0.333984,-0.132813 0.09565,-0.09565 0.144531,-0.215182 0.144531,-0.355469 v -3.576172 h 0.9375 c 0.127531,0 0.231555,-0.0421 0.314453,-0.125 0.0829,-0.0829 0.125,-0.186919 0.125,-0.314453 0,-0.127534 -0.0421,-0.233509 -0.125,-0.316406 -0.0829,-0.0829 -0.186922,-0.125 -0.314453,-0.125 h -0.9375 V 52.7598 c 0,-0.09565 0.01838,-0.191459 0.05664,-0.28711 0.03826,-0.102027 0.102129,-0.18428 0.191406,-0.248047 0.08927,-0.07014 0.206854,-0.105468 0.353516,-0.105468 0.108407,0 0.21777,0.01695 0.326172,0.04883 0.108403,0.02551 0.194045,0.03711 0.257812,0.03711 0.102029,0 0.191058,-0.03871 0.267578,-0.115234 0.07652,-0.0829 0.115234,-0.18692 0.115234,-0.314453 1e-6,-0.127534 -0.04549,-0.226732 -0.134765,-0.296875 -0.0829,-0.07652 -0.186916,-0.13023 -0.314453,-0.16211 -0.127532,-0.03188 -0.251888,-0.04883 -0.373047,-0.04883 z m -44.6113282,0.27731 c -0.4399912,0 -0.836782,0.07743 -1.1875,0.230469 -0.3507175,0.15304 -0.627977,0.369816 -0.8320313,0.65039 C 3.0068838,52.706355 2.90625,53.04071 2.90625,53.429688 c 0,0.28695 0.046928,0.539052 0.1425781,0.755859 0.095651,0.216807 0.2335619,0.405036 0.4121094,0.564453 0.1785468,0.15304 0.3919344,0.280785 0.640625,0.382812 0.2550675,0.102028 0.5424939,0.180892 0.8613281,0.238282 0.3443412,0.07014 0.6365919,0.155785 0.8789063,0.257812 0.2486905,0.09565 0.4369194,0.220006 0.5644531,0.373047 0.1339106,0.146663 0.2011719,0.334893 0.2011719,0.564453 0,0.184925 -0.063873,0.347995 -0.1914063,0.488282 -0.1275337,0.140286 -0.2988176,0.251087 -0.515625,0.333984 -0.2104306,0.0829 -0.4441513,0.125 -0.6992187,0.125 -0.3570943,0 -0.6696788,-0.05709 -0.9375,-0.171875 C 4.0022281,57.227016 3.7501268,57.057168 3.5078125,56.833984 3.4185388,56.763841 3.32273,56.730469 3.2207031,56.730469 c -0.1339106,0 -0.2447112,0.04693 -0.3339843,0.142578 -0.089274,0.09565 -0.1347657,0.203062 -0.1347657,0.324219 0,0.07652 0.016947,0.153948 0.048828,0.230468 0.03826,0.07014 0.091966,0.130628 0.1621094,0.181641 0.3252112,0.293327 0.6663433,0.503325 1.0234375,0.630859 0.3570944,0.127534 0.7654877,0.191407 1.2246094,0.191407 0.4336143,0 0.8250632,-0.07886 1.1757813,-0.238282 0.3570943,-0.159417 0.6445206,-0.382971 0.8613281,-0.669921 0.2168074,-0.286951 0.3261719,-0.621305 0.3261719,-1.003907 0,-0.331588 -0.052269,-0.608847 -0.1542969,-0.832031 C 7.317895,55.464316 7.1717694,55.279477 6.9804688,55.132812 6.7891681,54.979772 6.5540118,54.855416 6.2734375,54.759766 5.9992401,54.664116 5.686655,54.57652 5.3359375,54.5 5.0489864,54.429856 4.7934962,54.354381 4.5703125,54.271484 4.3471282,54.18221 4.1705025,54.068021 4.0429688,53.927734 3.9218119,53.787448 3.8613281,53.607433 3.8613281,53.390625 c 0,-0.184924 0.055659,-0.344606 0.1640625,-0.478516 0.1084038,-0.140287 0.2646963,-0.247698 0.46875,-0.324218 0.2040544,-0.0829 0.4493776,-0.125 0.7363282,-0.125 0.1785474,0 0.3633869,0.02854 0.5546874,0.08594 0.1976769,0.05739 0.382517,0.131429 0.5546876,0.220703 0.1721706,0.0829 0.3081293,0.178708 0.4101562,0.28711 0.063767,0.05101 0.141195,0.07617 0.2304688,0.07617 0.1211574,10e-7 0.2271331,-0.04693 0.3164062,-0.142578 0.095651,-0.102026 0.1425781,-0.211391 0.1425781,-0.326172 0,-0.15304 -0.077428,-0.295776 -0.2304687,-0.429687 C 6.9921769,52.023944 6.7100925,51.857485 6.359375,51.736328 6.008657,51.608794 5.6321999,51.544922 5.2304688,51.544922 Z m 78.3183592,0.05859 c -0.102029,-0.0064 -0.197838,0.01879 -0.287109,0.07617 -0.08288,0.05739 -0.146746,0.139643 -0.191407,0.248046 l -2.429687,5.873047 c -0.01913,0.05739 -0.0293,0.107704 -0.0293,0.152344 0.0064,0.121157 0.04509,0.223744 0.115234,0.306641 0.07014,0.07652 0.176118,0.115234 0.316407,0.115234 0.09565,0 0.181292,-0.02855 0.257812,-0.08594 0.07652,-0.05739 0.133615,-0.138207 0.171875,-0.240234 l 0.566406,-1.357422 h 2.933594 l 0.574219,1.357422 c 0.03826,0.09565 0.09535,0.176468 0.171875,0.240234 0.08289,0.05739 0.173875,0.08594 0.269531,0.08594 0.11478,0 0.215416,-0.0421 0.304688,-0.125 0.09565,-0.08927 0.144531,-0.203463 0.144531,-0.34375 0,-0.06377 -0.01354,-0.12764 -0.03906,-0.191406 l -2.400391,-5.78711 c -0.03826,-0.102024 -0.09874,-0.180888 -0.181641,-0.238281 -0.08289,-0.05739 -0.171928,-0.08594 -0.267578,-0.08594 z m 28.025392,0.0078 c -0.17855,0 -0.31307,0.03194 -0.40234,0.0957 -0.0893,0.06377 -0.13477,0.17652 -0.13477,0.335938 v 0.152343 c 0,0.159418 0.0421,0.273607 0.125,0.34375 0.0829,0.06377 0.21742,0.0957 0.40234,0.0957 0.1913,0 0.32727,-0.03194 0.41016,-0.0957 0.0893,-0.06377 0.13477,-0.177956 0.13477,-0.34375 V 52.04295 c 0,-0.153041 -0.0421,-0.262405 -0.125,-0.326172 -0.0829,-0.07014 -0.21886,-0.105469 -0.41016,-0.105469 z m -92.359376,0.507813 c -0.133911,0 -0.250053,0.04693 -0.345703,0.142578 -0.08927,0.08927 -0.132813,0.205416 -0.132813,0.345703 v 0.755859 h -0.527344 c -0.127534,0 -0.234945,0.04015 -0.324218,0.123047 -0.0829,0.0829 -0.125,0.188872 -0.125,0.316406 0,0.121157 0.0421,0.227133 0.125,0.316407 0.08927,0.0829 0.196684,0.123047 0.324218,0.123047 h 0.527344 v 2.841796 c 0,0.306082 0.04354,0.544627 0.132813,0.716797 0.08927,0.165794 0.202026,0.286761 0.335937,0.363281 0.140287,0.07652 0.283023,0.125405 0.429688,0.144532 0.146663,0.01913 0.274408,0.02734 0.382812,0.02734 0.191301,-10e-7 0.369363,-0.04693 0.535156,-0.142579 0.165794,-0.09565 0.248047,-0.220007 0.248047,-0.373047 0,-0.121157 -0.02998,-0.216966 -0.09375,-0.287109 -0.06377,-0.07014 -0.134417,-0.105469 -0.210937,-0.105469 -0.07652,0 -0.143779,0.01356 -0.201172,0.03906 -0.05101,0.02551 -0.111497,0.03711 -0.181641,0.03711 -0.07014,0 -0.140793,-0.0116 -0.210937,-0.03711 -0.06377,-0.02551 -0.114084,-0.07439 -0.152344,-0.144531 -0.03826,-0.07014 -0.05859,-0.162564 -0.05859,-0.277344 v -2.802734 h 0.765625 c 0.127534,0 0.23351,-0.04015 0.316407,-0.123047 0.08927,-0.0829 0.132812,-0.185484 0.132812,-0.306641 0,-0.127533 -0.04354,-0.233508 -0.132812,-0.316406 -0.0829,-0.08927 -0.188873,-0.132813 -0.316407,-0.132813 H 19.69141 v -0.755859 c 0,-0.140287 -0.04354,-0.256429 -0.132812,-0.345703 -0.08927,-0.09565 -0.203463,-0.142578 -0.34375,-0.142578 z m 45.480468,0 c -0.133915,0 -0.2481,0.04693 -0.34375,0.142578 -0.08927,0.08927 -0.134765,0.205416 -0.134765,0.345703 v 0.755859 h -0.525391 c -0.127531,0 -0.236894,0.04015 -0.326172,0.123047 -0.08289,0.0829 -0.123046,0.188872 -0.123046,0.316406 -10e-7,0.121157 0.04015,0.227133 0.123046,0.316407 0.08928,0.0829 0.198641,0.123047 0.326172,0.123047 h 0.525391 v 2.841796 c 0,0.306082 0.04549,0.544627 0.134765,0.716797 0.08928,0.165794 0.200075,0.286761 0.333985,0.363281 0.140289,0.07652 0.284979,0.125405 0.431641,0.144532 0.146661,0.01913 0.272452,0.02734 0.380859,0.02734 0.1913,-10e-7 0.371318,-0.04693 0.537109,-0.142579 0.165798,-0.09565 0.248047,-0.220007 0.248047,-0.373047 0,-0.121157 -0.03194,-0.216966 -0.0957,-0.287109 -0.06377,-0.07014 -0.134417,-0.105469 -0.210938,-0.105469 -0.07652,0 -0.141832,0.01356 -0.199218,0.03906 -0.05101,0.02551 -0.113453,0.03711 -0.183594,0.03711 -0.07015,0 -0.138843,-0.0116 -0.208984,-0.03711 -0.06377,-0.02551 -0.116037,-0.07439 -0.154297,-0.144531 -0.03826,-0.07014 -0.05664,-0.162564 -0.05664,-0.277344 v -2.802734 h 0.765625 c 0.127531,0 0.231555,-0.04015 0.314453,-0.123047 0.08927,-0.0829 0.134766,-0.185484 0.134766,-0.306641 0,-0.127533 -0.04549,-0.233508 -0.134766,-0.316406 -0.0829,-0.08927 -0.186922,-0.132813 -0.314453,-0.132813 h -0.765625 v -0.755859 c 0,-0.140287 -0.04549,-0.256429 -0.134766,-0.345703 -0.08928,-0.09565 -0.203467,-0.142578 -0.34375,-0.142578 z m -53.8125,1.072265 c -0.471874,0 -0.9020377,0.11419 -1.2910151,0.34375 -0.3826012,0.223184 -0.6884076,0.53238 -0.9179688,0.927735 -0.2231837,0.388978 -0.3359375,0.84091 -0.3359375,1.357421 0,0.510136 0.1127538,0.964021 0.3359375,1.359376 0.2295612,0.388978 0.5353676,0.694784 0.9179688,0.917968 0.3889774,0.223184 0.8191411,0.333985 1.2910151,0.333985 0.478252,0 0.908415,-0.110801 1.291016,-0.333985 0.382601,-0.223184 0.685019,-0.528991 0.908203,-0.917968 0.229561,-0.395355 0.345703,-0.84924 0.345703,-1.359376 0,-0.516511 -0.116142,-0.968443 -0.345703,-1.357421 -0.223184,-0.395355 -0.525602,-0.704551 -0.908203,-0.927735 -0.382601,-0.22956 -0.812764,-0.34375 -1.291016,-0.34375 z m 20.794922,0 c -0.427238,0 -0.81725,0.110801 -1.167968,0.333985 -0.344341,0.223184 -0.618212,0.53238 -0.822266,0.927734 -0.204054,0.388978 -0.306641,0.84091 -0.306641,1.357422 0,0.503758 0.102587,0.954255 0.306641,1.349609 0.204054,0.395355 0.481313,0.70794 0.832031,0.9375 0.350718,0.223184 0.745556,0.333985 1.185547,0.333985 0.248691,0 0.482411,-0.04015 0.699219,-0.123047 0.216807,-0.08927 0.405036,-0.198639 0.564453,-0.326172 0.138392,-0.11625 0.238688,-0.236367 0.324219,-0.357422 v 0.222656 c 0,0.140288 0.04549,0.259819 0.134765,0.355469 0.08927,0.08927 0.203463,0.132813 0.34375,0.132813 0.13391,0 0.246665,-0.04354 0.335938,-0.132813 C 34.203073,58.107475 34.25,57.987944 34.25,57.847656 v -4.130859 c 0,-0.140287 -0.04693,-0.254476 -0.142578,-0.34375 -0.08927,-0.09565 -0.202028,-0.144531 -0.335938,-0.144531 -0.140287,0 -0.254476,0.04888 -0.34375,0.144531 -0.08927,0.09565 -0.134765,0.209839 -0.134765,0.34375 v 0.193359 c -0.07161,-0.08305 -0.153238,-0.164935 -0.248047,-0.242187 -0.172171,-0.140287 -0.375391,-0.254476 -0.611328,-0.34375 -0.229561,-0.08927 -0.481662,-0.132813 -0.75586,-0.132813 z m 6.4375,0 c -0.197678,0 -0.389294,0.02998 -0.574218,0.09375 -0.178548,0.06377 -0.341618,0.154751 -0.488282,0.269532 -0.146663,0.11478 -0.274408,0.247349 -0.382812,0.40039 -0.05923,0.08884 -0.09078,0.191622 -0.132813,0.289063 v -0.451172 c 0,-0.140288 -0.04888,-0.254477 -0.144531,-0.34375 -0.08927,-0.09565 -0.200074,-0.144531 -0.333984,-0.144531 -0.140288,0 -0.256429,0.04888 -0.345703,0.144531 -0.08927,0.08927 -0.132813,0.203462 -0.132813,0.34375 v 4.054687 c 0,0.140288 0.04354,0.259819 0.132813,0.355469 0.08927,0.08927 0.205415,0.132813 0.345703,0.132813 0.13391,0 0.24471,-0.04354 0.333984,-0.132813 0.09565,-0.09565 0.144531,-0.215182 0.144531,-0.355469 v -2.294922 c 0,-0.22956 0.02998,-0.436169 0.09375,-0.621093 0.07014,-0.184924 0.164517,-0.344605 0.279297,-0.478516 0.11478,-0.140287 0.240572,-0.246263 0.38086,-0.316406 0.140287,-0.07014 0.278198,-0.105469 0.412109,-0.105469 0.121158,0 0.227135,0.02372 0.316406,0.06836 0.08928,0.03826 0.181694,0.05664 0.277344,0.05664 0.108401,0 0.205651,-0.03871 0.294922,-0.115234 0.08928,-0.0829 0.134765,-0.210642 0.134765,-0.382813 0,-0.13391 -0.06048,-0.24471 -0.18164,-0.333984 -0.121159,-0.08927 -0.263896,-0.132813 -0.429688,-0.132813 z m 3.337891,0 c -0.408108,0 -0.79812,0.107412 -1.167969,0.324219 -0.36347,0.210431 -0.659106,0.516237 -0.888672,0.917969 -0.223181,0.395354 -0.335937,0.874398 -0.335937,1.435547 0,0.497382 0.105976,0.939147 0.316406,1.328125 0.216809,0.382601 0.519225,0.686972 0.908203,0.910156 0.395352,0.216807 0.854065,0.324219 1.376953,0.324219 0.331589,0 0.647559,-0.06387 0.947266,-0.191407 0.30608,-0.127534 0.54658,-0.273659 0.71875,-0.439453 0.140289,-0.11478 0.208984,-0.242526 0.208984,-0.382812 0,-0.108404 -0.03676,-0.200823 -0.113281,-0.277344 -0.07652,-0.0829 -0.172323,-0.125 -0.287109,-0.125 -0.08927,0 -0.185081,0.0305 -0.28711,0.08789 -0.07652,0.06377 -0.165555,0.129074 -0.267578,0.199218 -0.102028,0.07014 -0.229772,0.130628 -0.382812,0.181641 -0.15304,0.04464 -0.344659,0.06836 -0.574219,0.06836 -0.306085,0 -0.583341,-0.07065 -0.832031,-0.210937 -0.24869,-0.146664 -0.447089,-0.349884 -0.59375,-0.611328 -0.106962,-0.190668 -0.160497,-0.414196 -0.189453,-0.652344 h 3.308593 c 0.127538,0 0.238335,-0.04015 0.333985,-0.123047 0.09562,-0.0829 0.145944,-0.188872 0.152344,-0.316406 -0.0064,-0.350717 -0.07168,-0.671517 -0.199219,-0.964844 -0.127532,-0.299705 -0.30077,-0.558583 -0.517578,-0.77539 -0.216809,-0.223184 -0.46891,-0.396421 -0.75586,-0.517579 C 42.05146,53.25331 41.759205,53.19139 41.453125,53.19139 Z m 12.070313,0 c -0.471872,0 -0.902037,0.11419 -1.291016,0.34375 -0.3826,0.223184 -0.688409,0.53238 -0.917969,0.927735 -0.223187,0.388978 -0.335937,0.84091 -0.335937,1.357421 0,0.510136 0.11275,0.964021 0.335937,1.359376 0.22956,0.388978 0.535369,0.694784 0.917969,0.917968 0.388979,0.223184 0.819144,0.333985 1.291016,0.333985 0.478256,0 0.908416,-0.110801 1.291015,-0.333985 0.3826,-0.223184 0.685016,-0.528991 0.908203,-0.917968 0.22956,-0.395355 0.345703,-0.84924 0.345703,-1.359376 0,-0.516511 -0.116143,-0.968443 -0.345703,-1.357421 -0.223187,-0.395355 -0.525603,-0.704551 -0.908203,-0.927735 -0.382599,-0.22956 -0.812759,-0.34375 -1.291015,-0.34375 z m 6.111328,0 c -0.197673,0 -0.387339,0.02998 -0.572266,0.09375 -0.178549,0.06377 -0.34162,0.154751 -0.488281,0.269532 -0.146662,0.11478 -0.274405,0.247349 -0.382813,0.40039 -0.05964,0.08944 -0.09257,0.19287 -0.134765,0.291016 v -0.453125 c 0,-0.140288 -0.04693,-0.254477 -0.142579,-0.34375 -0.08928,-0.09565 -0.200074,-0.144531 -0.333984,-0.144531 -0.140283,0 -0.256426,0.04888 -0.345703,0.144531 -0.08927,0.08927 -0.132812,0.203462 -0.132813,0.34375 v 4.054687 c 0,0.140288 0.04354,0.259819 0.132813,0.355469 0.08928,0.08927 0.20542,0.132813 0.345703,0.132813 0.13391,0 0.244707,-0.04354 0.333984,-0.132813 0.09565,-0.09565 0.142579,-0.215182 0.142579,-0.355469 v -2.294922 c 0,-0.22956 0.03194,-0.436169 0.0957,-0.621093 0.07015,-0.184924 0.162564,-0.344605 0.277344,-0.478516 0.114779,-0.140287 0.242523,-0.246263 0.382812,-0.316406 0.140283,-0.07014 0.278193,-0.105469 0.412109,-0.105469 0.121153,0 0.225176,0.02372 0.314453,0.06836 0.08927,0.03826 0.183647,0.05664 0.279297,0.05664 0.108402,0 0.205645,-0.03871 0.294922,-0.115234 0.08927,-0.0829 0.134766,-0.210642 0.134766,-0.382813 0,-0.13391 -0.06048,-0.24471 -0.181641,-0.333984 -0.121152,-0.08927 -0.265843,-0.132813 -0.43164,-0.132813 z m 15.449218,0 c -0.408108,0 -0.79812,0.107412 -1.167968,0.324219 -0.36347,0.210431 -0.659112,0.516237 -0.888672,0.917969 -0.223182,0.395354 -0.335938,0.874398 -0.335938,1.435547 0,0.497382 0.105976,0.939147 0.316406,1.328125 0.216803,0.382601 0.519225,0.686972 0.908204,0.910156 0.395357,0.216807 0.854064,0.324219 1.376953,0.324219 0.331588,0 0.647564,-0.06387 0.947265,-0.191407 0.30608,-0.127534 0.544627,-0.273659 0.716797,-0.439453 0.140289,-0.11478 0.210938,-0.242526 0.210938,-0.382812 0,-0.108404 -0.03871,-0.200823 -0.115235,-0.277344 -0.07652,-0.0829 -0.170376,-0.125 -0.285156,-0.125 -0.08927,0 -0.185081,0.0305 -0.287109,0.08789 -0.07652,0.06377 -0.167503,0.129074 -0.269531,0.199218 -0.102029,0.07014 -0.22782,0.130628 -0.38086,0.181641 -0.15304,0.04464 -0.344659,0.06836 -0.574219,0.06836 -0.30608,0 -0.583341,-0.07065 -0.832031,-0.210937 -0.24869,-0.146664 -0.447083,-0.349884 -0.59375,-0.611328 -0.106943,-0.190641 -0.160491,-0.414236 -0.189453,-0.652344 h 3.308594 c 0.127531,0 0.238334,-0.04015 0.333984,-0.123047 0.09563,-0.0829 0.145944,-0.188872 0.152344,-0.316406 -0.0064,-0.350717 -0.07364,-0.671517 -0.201172,-0.964844 C 77.106838,54.374107 76.935553,54.115229 76.71875,53.898422 76.501941,53.675238 76.249841,53.502001 75.962891,53.380843 75.682313,53.25331 75.390064,53.19139 75.083984,53.19139 Z m 14.777344,0 c -0.223187,0 -0.433181,0.03676 -0.630859,0.113282 -0.197673,0.07014 -0.377691,0.169341 -0.53711,0.296874 -0.159418,0.121157 -0.295376,0.25568 -0.410156,0.402344 -0.02769,0.03584 -0.03507,0.07159 -0.05859,0.107422 v -0.318359 c 0,-0.140288 -0.04693,-0.254477 -0.142578,-0.34375 -0.08927,-0.09565 -0.200074,-0.144531 -0.333984,-0.144531 -0.140289,0 -0.256426,0.04888 -0.345703,0.144531 -0.08927,0.08927 -0.132813,0.203462 -0.132813,0.34375 v 4.054687 c 0,0.140288 0.04354,0.259819 0.132813,0.355469 0.08928,0.08927 0.205414,0.132813 0.345703,0.132813 0.13391,0 0.244713,-0.04354 0.333984,-0.132813 0.09565,-0.09565 0.142578,-0.215181 0.142578,-0.355469 v -2.552734 c 0,-0.229561 0.05566,-0.434734 0.164063,-0.613281 0.114786,-0.184924 0.271077,-0.33105 0.46875,-0.439453 0.197679,-0.114781 0.426053,-0.171875 0.6875,-0.171876 0.280571,10e-7 0.49735,0.05709 0.65039,0.171876 0.159421,0.108403 0.272171,0.254529 0.335938,0.439453 0.06376,0.178547 0.0957,0.38372 0.0957,0.613281 v 2.552734 c 0,0.140288 0.04354,0.259819 0.132813,0.355469 0.08927,0.08927 0.205414,0.132813 0.345703,0.132813 0.13391,0 0.244713,-0.04354 0.333984,-0.132813 0.09565,-0.09565 0.142578,-0.215181 0.142578,-0.355469 v -2.5625 c 0,-0.388977 -0.05032,-0.740276 -0.152343,-1.052734 -0.09565,-0.318835 -0.266929,-0.570936 -0.515626,-0.75586 -0.24869,-0.1913 -0.599993,-0.285156 -1.052735,-0.285156 z m 5.041016,0 c -0.427239,0 -0.81725,0.110801 -1.167969,0.333985 -0.34434,0.223184 -0.618214,0.53238 -0.822266,0.927734 -0.204057,0.388978 -0.30664,0.84091 -0.30664,1.357422 0,0.503758 0.102583,0.954255 0.30664,1.349609 0.204052,0.395355 0.481313,0.70794 0.832032,0.9375 0.350718,0.223184 0.745556,0.333985 1.185547,0.333985 0.24869,0 0.48241,-0.04015 0.699218,-0.123047 0.216808,-0.08927 0.405041,-0.198639 0.564453,-0.326172 0.138394,-0.11625 0.238686,-0.236367 0.324219,-0.357422 v 0.222656 c 0,0.140288 0.04549,0.259819 0.134766,0.355469 0.08927,0.08927 0.203461,0.132813 0.34375,0.132813 0.13391,0 0.246666,-0.04354 0.335937,-0.132813 0.09565,-0.09565 0.142578,-0.215181 0.142578,-0.355469 v -4.130859 c 0,-0.140287 -0.04693,-0.254476 -0.142578,-0.34375 -0.08927,-0.09565 -0.202027,-0.144531 -0.335937,-0.144531 -0.140289,0 -0.254479,0.04888 -0.34375,0.144531 -0.08928,0.09565 -0.134766,0.209839 -0.134766,0.34375 v 0.193359 c -0.07161,-0.08305 -0.153237,-0.164935 -0.248047,-0.242187 -0.17217,-0.140287 -0.37539,-0.254476 -0.611328,-0.34375 -0.22956,-0.08927 -0.481661,-0.132813 -0.755859,-0.132813 z m 13.314456,0 c -0.31884,0 -0.61643,0.06048 -0.89063,0.181641 -0.26782,0.121158 -0.48799,0.289053 -0.66015,0.505859 -0.1658,0.216808 -0.24805,0.475686 -0.24805,0.775391 0,0.261444 0.0503,0.481609 0.15234,0.660156 0.10842,0.178548 0.24633,0.324673 0.41211,0.439453 0.1658,0.108404 0.35063,0.197435 0.55469,0.267578 0.21043,0.07015 0.41704,0.13402 0.62109,0.191407 0.19131,0.05101 0.37133,0.108108 0.53711,0.171875 0.1658,0.05739 0.29837,0.134818 0.40039,0.230468 0.10204,0.09565 0.1543,0.223396 0.1543,0.382813 0,0.178547 -0.0489,0.314505 -0.14453,0.410156 -0.0956,0.08927 -0.20984,0.153146 -0.34375,0.191406 -0.13391,0.03186 -0.26504,0.05219 -0.39258,0.05859 -0.31246,0 -0.57955,-0.05905 -0.80273,-0.173828 -0.21681,-0.11478 -0.4152,-0.271073 -0.59375,-0.46875 -0.0893,-0.08925 -0.18508,-0.136178 -0.28711,-0.142578 -0.0957,-0.01275 -0.18807,0.009 -0.27735,0.06641 -0.12724,0.0829 -0.1945,0.185484 -0.20117,0.306641 -0.006,0.11478 0.0207,0.217367 0.0781,0.30664 0.24869,0.325212 0.5511,0.55359 0.9082,0.6875 0.36347,0.127534 0.72637,0.191407 1.08984,0.191407 0.30608,0 0.5969,-0.05709 0.8711,-0.171875 0.28058,-0.11478 0.50896,-0.28124 0.6875,-0.498047 0.18492,-0.223184 0.27734,-0.490277 0.27734,-0.802735 0,-0.26782 -0.0503,-0.487985 -0.15234,-0.660156 -0.0957,-0.178548 -0.2234,-0.321284 -0.38282,-0.429687 -0.15304,-0.114781 -0.32771,-0.207201 -0.52539,-0.277344 -0.1913,-0.07014 -0.38631,-0.130627 -0.58398,-0.181641 -0.20405,-0.05101 -0.39228,-0.108108 -0.56445,-0.171875 -0.17217,-0.06377 -0.31152,-0.144583 -0.41993,-0.240234 -0.10202,-0.09565 -0.15429,-0.223395 -0.15429,-0.382813 0,-0.17217 0.0455,-0.303304 0.13476,-0.392578 0.0893,-0.08928 0.19669,-0.14976 0.32422,-0.18164 0.13392,-0.03826 0.26166,-0.05664 0.38281,-0.05664 0.24232,0 0.4591,0.04549 0.65039,0.134766 0.19131,0.0829 0.34759,0.200475 0.46876,0.353515 0.0701,0.06374 0.15917,0.09907 0.26757,0.105469 0.1084,0.0064 0.20083,-0.02217 0.27735,-0.08594 0.11476,-0.08927 0.16703,-0.191861 0.15429,-0.306641 -0.006,-0.114781 -0.0417,-0.213978 -0.10547,-0.296875 -0.14028,-0.165794 -0.30674,-0.300317 -0.49804,-0.402344 -0.1913,-0.102024 -0.38775,-0.17411 -0.5918,-0.21875 -0.20405,-0.05101 -0.39906,-0.07617 -0.58398,-0.07617 z m 6.76172,0 c -0.31884,0 -0.61448,0.06048 -0.88868,0.181641 -0.26782,0.121158 -0.48798,0.289053 -0.66015,0.505859 -0.1658,0.216808 -0.25,0.475686 -0.25,0.775391 0,0.261444 0.0523,0.481609 0.15429,0.660156 0.10841,0.178548 0.24437,0.324673 0.41016,0.439453 0.16579,0.108404 0.35063,0.197435 0.55469,0.267578 0.21042,0.07015 0.41899,0.13402 0.62305,0.191407 0.19129,0.05101 0.36936,0.108108 0.53515,0.171875 0.16579,0.05739 0.30032,0.134818 0.40235,0.230468 0.10202,0.09565 0.15234,0.223396 0.15234,0.382813 0,0.178547 -0.0469,0.314505 -0.14258,0.410156 -0.0957,0.08927 -0.21179,0.153146 -0.3457,0.191406 -0.13391,0.03186 -0.26309,0.05219 -0.39063,0.05859 -0.31245,0 -0.5815,-0.05905 -0.80469,-0.173828 -0.2168,-0.11478 -0.41325,-0.271073 -0.59179,-0.46875 -0.0893,-0.08925 -0.18508,-0.136178 -0.28711,-0.142578 -0.0956,-0.01275 -0.18808,0.009 -0.27734,0.06641 -0.12725,0.0829 -0.19451,0.185484 -0.20118,0.306641 -0.006,0.11478 0.0188,0.217367 0.0762,0.30664 0.24868,0.325212 0.5511,0.55359 0.9082,0.6875 0.36346,0.127534 0.72637,0.191407 1.08984,0.191407 0.30608,0 0.5969,-0.05709 0.8711,-0.171875 0.28057,-0.11478 0.5109,-0.28124 0.68945,-0.498047 0.18493,-0.223184 0.27734,-0.490277 0.27734,-0.802735 0,-0.26782 -0.0523,-0.487985 -0.15429,-0.660156 -0.0957,-0.178548 -0.2234,-0.321284 -0.38282,-0.429687 -0.15304,-0.114781 -0.32771,-0.207201 -0.52539,-0.277344 -0.1913,-0.07014 -0.38631,-0.130627 -0.58398,-0.181641 -0.20406,-0.05101 -0.39228,-0.108108 -0.56445,-0.171875 -0.17217,-0.06377 -0.31153,-0.144583 -0.41993,-0.240234 -0.10203,-0.09565 -0.15234,-0.223395 -0.15234,-0.382813 0,-0.17217 0.0435,-0.303304 0.13281,-0.392578 0.0893,-0.08928 0.19865,-0.14976 0.32617,-0.18164 0.13392,-0.03826 0.26166,-0.05664 0.38282,-0.05664 0.2423,0 0.45909,0.04549 0.65039,0.134766 0.1913,0.0829 0.34759,0.200475 0.46875,0.353515 0.0701,0.06374 0.15918,0.09907 0.26757,0.105469 0.10841,0.0064 0.20083,-0.02217 0.27735,-0.08594 0.11476,-0.08927 0.16508,-0.191861 0.15234,-0.306641 -0.006,-0.114781 -0.0417,-0.213978 -0.10547,-0.296875 -0.14029,-0.165794 -0.30479,-0.300317 -0.49609,-0.402344 -0.1913,-0.102024 -0.3897,-0.17411 -0.59375,-0.21875 -0.20405,-0.05101 -0.39906,-0.07617 -0.58398,-0.07617 z m -31.482426,0.002 1.089844,2.580079 h -2.164063 z m -61.029297,0.06445 c -0.146663,10e-7 -0.266195,0.05032 -0.355469,0.152344 -0.0829,0.09565 -0.123047,0.20984 -0.123047,0.34375 0,0.06376 0.0116,0.126201 0.03711,0.183594 l 1.472656,4.09375 c 0.03826,0.108408 0.105522,0.19066 0.201172,0.248047 0.102028,0.05101 0.201225,0.06939 0.296875,0.05664 0.184923,-0.01275 0.322835,-0.113387 0.412109,-0.304688 l 0.892578,-2.556641 0.962891,2.556641 c 0.08927,0.191301 0.225232,0.291934 0.410156,0.304688 0.102027,0.01275 0.201224,-0.0056 0.296875,-0.05664 0.09565,-0.05739 0.162912,-0.139644 0.201172,-0.248047 l 1.462891,-4.09375 c 0.01273,-0.02551 0.0229,-0.05601 0.0293,-0.08789 0.0064,-0.03189 0.0098,-0.06382 0.0098,-0.0957 0,-0.146663 -0.04888,-0.264241 -0.144531,-0.353515 -0.08927,-0.09565 -0.193296,-0.142578 -0.314453,-0.142579 -0.242315,0 -0.395218,0.102587 -0.458985,0.306641 l -1.105468,3.109375 -0.884766,-2.287109 c -0.03826,-0.09565 -0.08858,-0.16969 -0.152344,-0.220703 -0.06377,-0.05101 -0.152797,-0.07617 -0.267578,-0.07617 -0.210431,0 -0.358509,0.0992 -0.441406,0.296875 l -0.882813,2.320312 -1.115234,-3.142578 c -0.03188,-0.102027 -0.08898,-0.179455 -0.171875,-0.230469 -0.07652,-0.05101 -0.165551,-0.07617 -0.267578,-0.07617 z m 79.130863,0.0098 c -0.1403,0 -0.25449,0.04693 -0.34375,0.142578 -0.0893,0.08927 -0.13477,0.203464 -0.13477,0.34375 v 2.841797 c 0,0.357095 0.0673,0.676457 0.20117,0.957031 0.13392,0.274198 0.32553,0.490974 0.57422,0.650391 0.25507,0.153041 0.55748,0.228516 0.9082,0.228516 0.2742,0 0.52291,-0.03871 0.7461,-0.115235 0.22956,-0.07652 0.42795,-0.183932 0.59375,-0.324218 0.0941,-0.07959 0.17451,-0.173227 0.24804,-0.275391 v 0.179687 c 0,0.344341 -0.0571,0.62499 -0.17187,0.841797 -0.1084,0.216808 -0.27147,0.376489 -0.48828,0.478516 -0.2168,0.102027 -0.48246,0.152344 -0.79492,0.152344 -0.22956,0 -0.43278,-0.03533 -0.61133,-0.105469 -0.17855,-0.07014 -0.32128,-0.127235 -0.42969,-0.171875 -0.11478,-0.04461 -0.22753,-0.04125 -0.33594,0.0098 -0.10837,0.05739 -0.18385,0.163366 -0.22851,0.316407 -0.0447,0.121156 -0.0365,0.231957 0.0273,0.333984 0.0638,0.102027 0.17313,0.187669 0.32617,0.257813 0.14666,0.07652 0.3349,0.133615 0.56446,0.171875 0.22956,0.04464 0.45794,0.06836 0.6875,0.06836 0.45274,0 0.85774,-0.08421 1.21484,-0.25 0.36347,-0.159417 0.6509,-0.412955 0.86133,-0.763672 0.21681,-0.350718 0.32617,-0.807992 0.32617,-1.36914 v -4.113282 c 0,-0.140286 -0.0455,-0.254476 -0.13477,-0.34375 -0.0893,-0.09565 -0.20346,-0.142578 -0.34374,-0.142578 -0.13392,0 -0.24811,0.04693 -0.34376,0.142578 -0.0893,0.08927 -0.13476,0.203464 -0.13476,0.34375 v 2.583985 c 0,0.242314 -0.0503,0.455701 -0.15234,0.640625 -0.10204,0.178547 -0.24334,0.317895 -0.42188,0.419922 -0.17855,0.102027 -0.38854,0.154296 -0.63086,0.154296 -0.36347,0 -0.63734,-0.09581 -0.82226,-0.287109 -0.18493,-0.197677 -0.27735,-0.506872 -0.27735,-0.927734 v -2.583985 c 0,-0.140286 -0.0489,-0.254476 -0.14453,-0.34375 -0.0893,-0.09565 -0.20008,-0.142578 -0.33398,-0.142578 z m 9.97656,0 c -0.13391,0 -0.25006,0.04693 -0.3457,0.142578 -0.0893,0.08927 -0.13282,0.203464 -0.13282,0.34375 v 4.09375 c 0,0.140288 0.0435,0.259819 0.13282,0.355469 0.0956,0.08927 0.21179,0.132813 0.3457,0.132813 0.14029,0 0.25448,-0.04354 0.34375,-0.132813 0.0893,-0.09565 0.13476,-0.215181 0.13476,-0.355469 v -4.09375 c 0,-0.140286 -0.0455,-0.254476 -0.13476,-0.34375 -0.0893,-0.09565 -0.20346,-0.142578 -0.34375,-0.142578 z M 10.882812,54.070312 c 0.299705,10e-7 0.566798,0.07743 0.802735,0.230469 0.242314,0.146664 0.433931,0.349884 0.574219,0.611328 0.140286,0.255068 0.210937,0.557485 0.210937,0.908203 0,0.337965 -0.07065,0.638948 -0.210937,0.900391 -0.140288,0.261445 -0.331905,0.464665 -0.574219,0.611328 -0.235937,0.146664 -0.50303,0.220703 -0.802735,0.220703 -0.293327,0 -0.56042,-0.07404 -0.802734,-0.220703 C 9.8441405,57.185368 9.6525231,56.982148 9.5058594,56.720703 9.3655725,56.45926 9.2949219,56.158277 9.2949219,55.820312 c 0,-0.350717 0.070651,-0.653135 0.2109375,-0.908203 0.1466637,-0.261444 0.3382811,-0.464664 0.5742186,-0.611328 0.242314,-0.15304 0.509407,-0.230468 0.802734,-0.230469 z m 20.9375,0 c 0.299705,10e-7 0.561973,0.07743 0.785157,0.230469 0.229561,0.153041 0.407622,0.35965 0.535156,0.621094 0.127533,0.261444 0.191406,0.557084 0.191406,0.888672 0,0.325211 -0.06387,0.622804 -0.191406,0.890625 -0.127534,0.261444 -0.305595,0.468053 -0.535156,0.621094 -0.223184,0.15304 -0.485452,0.230468 -0.785157,0.230468 -0.299704,0 -0.563408,-0.07743 -0.792968,-0.230468 -0.223184,-0.153041 -0.39981,-0.35965 -0.527344,-0.621094 -0.127534,-0.267821 -0.191406,-0.565414 -0.191406,-0.890625 0,-0.331588 0.06387,-0.627228 0.191406,-0.888672 0.127534,-0.261444 0.307549,-0.468053 0.537109,-0.621094 0.229561,-0.15304 0.489876,-0.230468 0.783203,-0.230469 z m 21.703126,0 c 0.299707,10e-7 0.566795,0.07743 0.802734,0.230469 0.242311,0.146664 0.433931,0.349884 0.574219,0.611328 0.140288,0.255068 0.210937,0.557485 0.210937,0.908203 0,0.337965 -0.07065,0.638948 -0.210937,0.900391 -0.140288,0.261445 -0.331908,0.464665 -0.574219,0.611328 -0.235939,0.146664 -0.503027,0.220703 -0.802734,0.220703 -0.293323,0 -0.560418,-0.07404 -0.802735,-0.220703 -0.235939,-0.146663 -0.427557,-0.349883 -0.574219,-0.611328 -0.140288,-0.261443 -0.210937,-0.562426 -0.210937,-0.900391 0,-0.350717 0.07065,-0.653135 0.210937,-0.908203 0.146662,-0.261444 0.33828,-0.464664 0.574219,-0.611328 0.242317,-0.15304 0.509412,-0.230468 0.802735,-0.230469 z m 41.521484,0 c 0.299701,0 0.561969,0.07743 0.785156,0.230469 0.229559,0.153041 0.407625,0.35965 0.535156,0.621094 0.127538,0.261444 0.191407,0.557084 0.191407,0.888672 0,0.325211 -0.06387,0.622804 -0.191407,0.890625 -0.127531,0.261444 -0.305597,0.468053 -0.535156,0.621094 -0.223187,0.15304 -0.485455,0.230468 -0.785156,0.230468 -0.299701,0 -0.563403,-0.07743 -0.792969,-0.230468 -0.223181,-0.153041 -0.399812,-0.35965 -0.527344,-0.621094 -0.127537,-0.267821 -0.191406,-0.565414 -0.191406,-0.890625 0,-0.331588 0.06387,-0.627228 0.191406,-0.888672 0.127532,-0.261444 0.30755,-0.468053 0.53711,-0.621094 0.22956,-0.15304 0.489874,-0.230469 0.783203,-0.230469 z m -53.591797,0.0098 c 0.216803,0 0.420028,0.04693 0.611328,0.142578 0.197679,0.08927 0.364137,0.220408 0.498047,0.392578 0.133913,0.165794 0.209389,0.360801 0.228516,0.583985 v 0.06641 h -2.75586 c 0.01924,-0.09393 0.038,-0.188183 0.06836,-0.267578 0.0829,-0.223183 0.192261,-0.401246 0.326172,-0.535156 0.13391,-0.133908 0.290201,-0.229716 0.46875,-0.28711 0.178542,-0.06377 0.363382,-0.0957 0.554687,-0.0957 z m 33.630859,0 c 0.216809,0 0.420028,0.04693 0.611328,0.142578 0.197679,0.08927 0.364137,0.220408 0.498047,0.392578 0.133914,0.165794 0.209389,0.360801 0.228516,0.583985 v 0.06641 h -2.755859 c 0.01924,-0.09393 0.038,-0.188183 0.06836,-0.267578 0.08289,-0.223183 0.192262,-0.401246 0.326172,-0.535156 0.13391,-0.133908 0.290201,-0.229716 0.46875,-0.28711 0.178549,-0.06377 0.363387,-0.0957 0.554687,-0.0957 z m 19.587891,7.128906 c -0.140289,0 -0.254479,0.04693 -0.34375,0.142578 -0.08928,0.08927 -0.134766,0.203464 -0.134766,0.34375 V 67.875 c 0,0.140287 0.04549,0.254476 0.134766,0.34375 0.08927,0.08927 0.203461,0.134766 0.34375,0.134766 0.13391,0 0.246666,-0.04549 0.335937,-0.134766 0.09565,-0.09565 0.142579,-0.20984 0.142579,-0.34375 v -0.251953 c 0.0987,0.115968 0.204662,0.230898 0.34375,0.337891 0.165796,0.121156 0.35741,0.223743 0.574218,0.30664 0.216803,0.07652 0.447136,0.115234 0.689453,0.115234 0.433612,0 0.82167,-0.112753 1.166016,-0.335937 0.34434,-0.229561 0.618214,-0.542146 0.822266,-0.9375 0.204057,-0.395355 0.30664,-0.847287 0.30664,-1.357422 0,-0.510135 -0.102583,-0.960631 -0.30664,-1.349609 -0.204052,-0.395355 -0.481313,-0.704551 -0.832032,-0.927735 -0.344339,-0.223184 -0.739178,-0.333984 -1.185546,-0.333984 -0.216809,0 -0.426808,0.03871 -0.63086,0.115234 -0.197678,0.07014 -0.375738,0.165953 -0.535156,0.28711 -0.15304,0.121157 -0.280784,0.246949 -0.382812,0.380859 -0.01211,0.01514 -0.01835,0.02987 -0.0293,0.04492 V 61.69531 c 0,-0.140286 -0.04693,-0.254476 -0.142579,-0.34375 -0.08927,-0.09565 -0.202027,-0.142578 -0.335937,-0.142578 z m 8.169925,0 c -0.13392,0 -0.25006,0.04693 -0.34571,0.142578 -0.0956,0.08927 -0.14257,0.203464 -0.14257,0.34375 v 6.103516 c 0,0.140287 0.0435,0.257865 0.13281,0.353516 0.0956,0.08927 0.21179,0.134765 0.3457,0.134765 0.13391,0 0.24471,-0.04549 0.33399,-0.134765 0.0956,-0.09565 0.14257,-0.213229 0.14257,-0.353516 v -6.103516 c 0,-0.140286 -0.0435,-0.254476 -0.13281,-0.34375 -0.0829,-0.09565 -0.1937,-0.142578 -0.33398,-0.142578 z m -89.892581,0.0078 c -0.554772,0 -0.98011,0.1413 -1.273438,0.421875 -0.28695,0.280574 -0.429687,0.640087 -0.429687,1.080078 v 0.623047 h -0.583985 c -0.121156,0 -0.225179,0.04015 -0.314453,0.123047 -0.0829,0.0829 -0.125,0.188873 -0.125,0.316406 0,0.127534 0.0421,0.23351 0.125,0.316406 0.08927,0.0829 0.193297,0.123047 0.314453,0.123047 h 0.583985 v 3.578125 c 0,0.140287 0.04549,0.257865 0.134765,0.353516 0.08927,0.08927 0.203463,0.134765 0.34375,0.134765 0.13391,0 0.244711,-0.04549 0.333985,-0.134765 0.09565,-0.09565 0.144531,-0.213229 0.144531,-0.353516 v -3.578125 h 0.9375 c 0.127534,0 0.231556,-0.04015 0.314453,-0.123047 0.0829,-0.0829 0.125,-0.188872 0.125,-0.316406 0,-0.127533 -0.0421,-0.233509 -0.125,-0.316406 -0.0829,-0.0829 -0.186919,-0.123047 -0.314453,-0.123047 h -0.9375 v -0.632813 c 0,-0.09565 0.01838,-0.189505 0.05664,-0.285156 0.03826,-0.102027 0.102133,-0.186233 0.191406,-0.25 0.08927,-0.07014 0.206851,-0.105469 0.353516,-0.105469 0.108403,0 0.217767,0.01695 0.326171,0.04883 0.108404,0.02551 0.194046,0.03711 0.257813,0.03711 0.102027,0 0.191058,-0.03676 0.267578,-0.113281 0.07652,-0.0829 0.115234,-0.188873 0.115234,-0.316407 0,-0.127534 -0.04549,-0.226732 -0.134765,-0.296875 -0.0829,-0.07652 -0.186919,-0.130229 -0.314453,-0.162109 -0.127534,-0.03188 -0.25189,-0.04883 -0.373046,-0.04883 z M 86.533203,61.5625 c -0.178549,0 -0.313072,0.03194 -0.402344,0.0957 -0.08927,0.06377 -0.134765,0.174566 -0.134765,0.333985 v 0.154296 c 0,0.159418 0.04211,0.273607 0.125,0.34375 0.0829,0.06377 0.217416,0.0957 0.402344,0.0957 0.1913,-1e-6 0.327263,-0.03194 0.410156,-0.0957 0.08928,-0.06377 0.134765,-0.177956 0.134765,-0.34375 v -0.154296 c 0,-0.153042 -0.0421,-0.260453 -0.125,-0.324219 -0.0829,-0.07014 -0.218856,-0.105469 -0.410156,-0.105469 z m 13.974607,0 c -0.17854,0 -0.31307,0.03194 -0.40234,0.0957 -0.0893,0.06377 -0.134767,0.174566 -0.134767,0.333985 v 0.154296 c 0,0.159418 0.0421,0.273607 0.124997,0.34375 0.0829,0.06377 0.21742,0.0957 0.40235,0.0957 0.1913,-1e-6 0.32726,-0.03194 0.41015,-0.0957 0.0893,-0.06377 0.13477,-0.177956 0.13477,-0.34375 v -0.154296 c 0,-0.153042 -0.0421,-0.260453 -0.125,-0.324219 -0.0829,-0.07014 -0.21886,-0.105469 -0.41016,-0.105469 z m 4.64844,0 c -0.17855,0 -0.31306,0.03194 -0.40234,0.0957 -0.0893,0.06377 -0.13477,0.174566 -0.13477,0.333985 v 0.154296 c 0,0.159418 0.0421,0.273607 0.125,0.34375 0.0829,0.06377 0.21742,0.0957 0.40234,0.0957 0.1913,-1e-6 0.32726,-0.03194 0.41016,-0.0957 0.0893,-0.06377 0.13477,-0.177956 0.13477,-0.34375 v -0.154296 c 0,-0.153042 -0.0421,-0.260453 -0.125,-0.324219 -0.0829,-0.07014 -0.21886,-0.105469 -0.41016,-0.105469 z m -35.142578,0.0098 c -0.102029,0 -0.207999,0.04015 -0.316406,0.123046 -0.108402,0.0829 -0.16211,0.19904 -0.16211,0.345704 0,0.03826 0.0034,0.07502 0.0098,0.113281 0.0064,0.03189 0.01656,0.06382 0.0293,0.0957 l 2.419922,5.730469 c 0.04464,0.09565 0.10512,0.16969 0.18164,0.220703 0.0829,0.05099 0.168541,0.07954 0.257813,0.08594 0.08927,0 0.174914,-0.02711 0.257812,-0.07813 0.0893,-0.05101 0.159944,-0.129877 0.210938,-0.238281 L 75.322266,62.25 c 0.03186,-0.07652 0.04883,-0.148607 0.04883,-0.21875 0,-0.127534 -0.04888,-0.236899 -0.144532,-0.326172 -0.09565,-0.08927 -0.20984,-0.132812 -0.34375,-0.132812 -0.204057,0 -0.352134,0.100633 -0.441406,0.304687 l -1.929687,4.865235 -2.048828,-4.855469 c -0.09565,-0.210431 -0.245168,-0.314453 -0.449219,-0.314453 z m -52.339844,0.01758 c -0.15304,0 -0.277397,0.04888 -0.373047,0.144531 -0.09565,0.08927 -0.142578,0.203463 -0.142578,0.34375 v 5.720703 c 0,0.140287 0.04354,0.257865 0.132813,0.353516 0.09565,0.08927 0.216617,0.134765 0.363281,0.134765 0.13391,0 0.250052,-0.04549 0.345703,-0.134765 0.102003,-0.09565 0.155709,-0.213229 0.162109,-0.353516 v -2.439453 h 3.328125 v 2.439453 c 0,0.140287 0.04888,0.257865 0.144532,0.353516 0.09565,0.08927 0.20984,0.134765 0.34375,0.134765 0.15304,0 0.274008,-0.04549 0.363281,-0.134765 0.09565,-0.09565 0.142578,-0.213229 0.142578,-0.353516 v -5.720703 c 0,-0.140287 -0.04354,-0.254477 -0.132813,-0.34375 -0.08927,-0.09565 -0.21024,-0.144531 -0.363281,-0.144531 -0.13391,0 -0.251489,0.04888 -0.353515,0.144531 -0.09565,0.08927 -0.144532,0.203463 -0.144532,0.34375 v 2.363281 h -3.328125 v -2.363281 c 0,-0.140287 -0.05227,-0.254477 -0.154297,-0.34375 -0.09565,-0.09565 -0.20645,-0.144531 -0.333984,-0.144531 z m 28.59961,0 c -0.133911,0 -0.248101,0.04888 -0.34375,0.144531 -0.09565,0.08927 -0.144532,0.203463 -0.144532,0.34375 v 5.720703 c 0,0.140287 0.05709,0.257865 0.171875,0.353516 0.11478,0.08927 0.249304,0.134765 0.402344,0.134765 0.13391,0 0.239886,-0.04549 0.316406,-0.134765 0.07652,-0.09565 0.113281,-0.213229 0.113281,-0.353516 v -2.095703 h 1.894532 c 0.146661,0 0.281185,0.02033 0.402344,0.05859 0.121158,0.03188 0.225181,0.08559 0.314453,0.162109 0.08929,0.07014 0.159944,0.162563 0.210937,0.277344 0.05099,0.114781 0.07617,0.252693 0.07617,0.412109 0,0.344342 0.03194,0.621601 0.0957,0.832031 0.06377,0.21043 0.147977,0.374936 0.25,0.496094 0.108407,0.11478 0.212431,0.203812 0.314453,0.267578 0.06377,0.03189 0.141198,0.059 0.230469,0.07813 0.08928,0.01273 0.174914,0.0094 0.257813,-0.0098 0.08927,-0.02551 0.163316,-0.07778 0.220703,-0.154297 0.08286,-0.102027 0.108038,-0.216217 0.07617,-0.34375 -0.0255,-0.127534 -0.09616,-0.223343 -0.210937,-0.287109 -0.08292,-0.04464 -0.140008,-0.108509 -0.171875,-0.191407 -0.03186,-0.0829 -0.05704,-0.18692 -0.07617,-0.314453 -0.01273,-0.13391 -0.0297,-0.300369 -0.04883,-0.498047 -0.0064,-0.223183 -0.05331,-0.421579 -0.142578,-0.59375 -0.0829,-0.178547 -0.199042,-0.33145 -0.345703,-0.458984 -0.0842,-0.07687 -0.178289,-0.139454 -0.279297,-0.195313 0.163211,-0.08523 0.317581,-0.189513 0.453125,-0.330078 0.17217,-0.178546 0.308133,-0.38372 0.410156,-0.613281 0.102029,-0.235937 0.154297,-0.481261 0.154297,-0.736328 0,-0.382601 -0.09098,-0.720345 -0.269531,-1.013672 -0.17217,-0.299705 -0.40055,-0.531472 -0.6875,-0.697266 -0.28695,-0.17217 -0.602926,-0.259765 -0.947266,-0.259765 z m -6.007813,0.478515 c -0.13391,0 -0.2481,0.04888 -0.34375,0.144532 -0.08928,0.08927 -0.132813,0.203463 -0.132813,0.34375 V 63.3125 h -0.527343 c -0.127532,0 -0.234948,0.0421 -0.324219,0.125 -0.0829,0.0829 -0.125,0.18692 -0.125,0.314453 0,0.121157 0.0421,0.227132 0.125,0.316406 0.08927,0.0829 0.196687,0.125 0.324219,0.125 h 0.527343 v 2.839844 c 0,0.306081 0.04354,0.544627 0.132813,0.716797 0.08927,0.165795 0.202027,0.286761 0.335937,0.363281 0.140288,0.07652 0.283027,0.125405 0.429688,0.144531 0.146667,0.01913 0.274411,0.0293 0.382812,0.0293 0.191301,0 0.369365,-0.04888 0.535157,-0.144531 0.165797,-0.09565 0.248047,-0.220006 0.248047,-0.373047 0,-0.121157 -0.03194,-0.216966 -0.0957,-0.287109 -0.06376,-0.07014 -0.132458,-0.105469 -0.208984,-0.105469 -0.07652,0 -0.143785,0.01356 -0.201172,0.03906 -0.05101,0.02551 -0.111499,0.03906 -0.18164,0.03906 -0.07015,0 -0.140797,-0.01356 -0.210938,-0.03906 -0.06377,-0.02551 -0.114084,-0.07439 -0.152344,-0.144532 -0.03826,-0.07014 -0.05859,-0.162563 -0.05859,-0.277343 v -2.800782 h 0.765625 c 0.127531,0 0.233507,-0.0421 0.316406,-0.125 0.08927,-0.0829 0.132812,-0.185483 0.132812,-0.30664 0,-0.127534 -0.04354,-0.231557 -0.132812,-0.314453 -0.0829,-0.08927 -0.188875,-0.134766 -0.316406,-0.134766 h -0.765625 v -0.755859 c 0,-0.140287 -0.04354,-0.254476 -0.132813,-0.34375 -0.08928,-0.09565 -0.20542,-0.144532 -0.345703,-0.144532 z m 18.796875,0 c -0.133916,0 -0.250053,0.04888 -0.345703,0.144532 -0.08927,0.08927 -0.132813,0.203463 -0.132813,0.34375 V 63.3125 h -0.527343 c -0.127532,0 -0.234942,0.0421 -0.324219,0.125 -0.08289,0.0829 -0.125,0.18692 -0.125,0.314453 0,0.121157 0.04211,0.227132 0.125,0.316406 0.08928,0.0829 0.196687,0.125 0.324219,0.125 h 0.527343 v 2.839844 c 0,0.306081 0.04354,0.544627 0.132813,0.716797 0.08928,0.165795 0.202027,0.286761 0.335937,0.363281 0.140289,0.07652 0.283027,0.125405 0.429688,0.144531 0.146661,0.01913 0.274405,0.0293 0.382812,0.0293 0.1913,0 0.369365,-0.04888 0.535157,-0.144531 0.165797,-0.09565 0.25,-0.220006 0.25,-0.373047 0,-0.121157 -0.03194,-0.216966 -0.0957,-0.287109 -0.06377,-0.07014 -0.134418,-0.105469 -0.210938,-0.105469 -0.07652,0 -0.143779,0.01356 -0.201172,0.03906 -0.05101,0.02551 -0.111499,0.03906 -0.18164,0.03906 -0.07015,0 -0.140797,-0.01356 -0.210938,-0.03906 -0.06377,-0.02551 -0.114084,-0.07439 -0.152344,-0.144532 -0.03826,-0.07014 -0.05664,-0.162563 -0.05664,-0.277343 v -2.800782 h 0.763672 c 0.127531,0 0.233507,-0.0421 0.316406,-0.125 0.08927,-0.0829 0.132812,-0.185483 0.132812,-0.30664 0,-0.127534 -0.04354,-0.231557 -0.132812,-0.314453 -0.0829,-0.08927 -0.188875,-0.134766 -0.316406,-0.134766 h -0.763672 v -0.755859 c 0,-0.140287 -0.0455,-0.254476 -0.134766,-0.34375 -0.08928,-0.09565 -0.203467,-0.144532 -0.34375,-0.144532 z m 48.80078,0 c -0.13391,0 -0.25005,0.04888 -0.3457,0.144532 -0.0893,0.08927 -0.13281,0.203463 -0.13281,0.34375 V 63.3125 h -0.52735 c -0.12753,0 -0.23494,0.0421 -0.32422,0.125 -0.0829,0.0829 -0.125,0.18692 -0.125,0.314453 0,0.121157 0.0421,0.227132 0.125,0.316406 0.0893,0.0829 0.19669,0.125 0.32422,0.125 h 0.52735 v 2.839844 c 0,0.306081 0.0435,0.544627 0.13281,0.716797 0.0893,0.165795 0.20203,0.286761 0.33594,0.363281 0.14029,0.07652 0.28302,0.125405 0.42968,0.144531 0.14666,0.01913 0.27441,0.0293 0.38282,0.0293 0.1913,0 0.36936,-0.04888 0.53515,-0.144531 0.1658,-0.09565 0.25,-0.220006 0.25,-0.373047 0,-0.121157 -0.032,-0.216966 -0.0957,-0.287109 -0.0638,-0.07014 -0.13442,-0.105469 -0.21094,-0.105469 -0.0765,0 -0.14377,0.01356 -0.20117,0.03906 -0.051,0.02551 -0.11149,0.03906 -0.18164,0.03906 -0.0701,0 -0.1408,-0.01356 -0.21094,-0.03906 -0.0638,-0.02551 -0.11408,-0.07439 -0.15234,-0.144532 -0.0383,-0.07014 -0.0586,-0.162563 -0.0586,-0.277343 v -2.800782 h 0.76563 c 0.12753,0 0.2335,-0.0421 0.31641,-0.125 0.0893,-0.0829 0.13281,-0.185483 0.13281,-0.30664 0,-0.127534 -0.0435,-0.231557 -0.13281,-0.314453 -0.0829,-0.08927 -0.18888,-0.134766 -0.31641,-0.134766 h -0.76563 v -0.755859 c 0,-0.140287 -0.0435,-0.254476 -0.13281,-0.34375 -0.0893,-0.09565 -0.20346,-0.144532 -0.34375,-0.144532 z m -61.074218,0.441407 h 2.134766 c 0.24869,0 0.462082,0.104022 0.640625,0.314453 0.184927,0.204054 0.277344,0.459543 0.277344,0.765625 0,0.242313 -0.04549,0.45909 -0.134766,0.65039 -0.08289,0.191301 -0.193695,0.344204 -0.333984,0.458985 -0.13391,0.10838 -0.275214,0.165475 -0.421875,0.171875 h -2.16211 z M 7.0273438,63.140625 c -0.471875,0 -0.9020377,0.114189 -1.2910157,0.34375 -0.3826012,0.223184 -0.6884082,0.53238 -0.9179687,0.927734 -0.2231838,0.388978 -0.3339844,0.842863 -0.3339844,1.359375 0,0.510135 0.1108006,0.962068 0.3339844,1.357422 0.2295605,0.388978 0.5353675,0.694785 0.9179687,0.917969 0.388978,0.223184 0.8191407,0.335937 1.2910157,0.335937 0.4782511,0 0.9103669,-0.112753 1.2929687,-0.335937 0.3826011,-0.223184 0.6850194,-0.528991 0.9082031,-0.917969 0.2295606,-0.395354 0.34375,-0.847287 0.34375,-1.357422 0,-0.516512 -0.1141894,-0.970397 -0.34375,-1.359375 -0.2231837,-0.395354 -0.525602,-0.70455 -0.9082031,-0.927734 -0.3826018,-0.229561 -0.8147176,-0.34375 -1.2929687,-0.34375 z m 18.9882812,0 c -0.408108,0 -0.798121,0.107411 -1.167969,0.324219 -0.363471,0.21043 -0.659111,0.516237 -0.888672,0.917968 -0.223184,0.395354 -0.335937,0.874399 -0.335937,1.435547 0,0.497382 0.105975,0.941101 0.316406,1.330079 0.216807,0.382601 0.519225,0.685019 0.908203,0.908203 0.395355,0.216807 0.854065,0.326171 1.376953,0.326171 0.331588,10e-7 0.647561,-0.06387 0.947266,-0.191406 0.306081,-0.127533 0.544626,-0.275611 0.716797,-0.441406 0.140287,-0.11478 0.210937,-0.242525 0.210937,-0.382812 0,-0.108404 -0.03871,-0.200824 -0.115234,-0.277344 -0.07652,-0.0829 -0.172329,-0.123047 -0.287109,-0.123047 -0.08927,0 -0.18313,0.02855 -0.285157,0.08594 -0.07652,0.06377 -0.167504,0.131028 -0.269531,0.201172 -0.102027,0.07014 -0.229772,0.130628 -0.382812,0.181641 -0.15304,0.04464 -0.342705,0.06641 -0.572266,0.06641 -0.306081,0 -0.58334,-0.07065 -0.832031,-0.210937 -0.248691,-0.146664 -0.447087,-0.349884 -0.59375,-0.611328 -0.106804,-0.190391 -0.16238,-0.412659 -0.191407,-0.650391 h 3.308594 c 0.127534,0 0.240288,-0.0421 0.335938,-0.125 0.09563,-0.0829 0.145944,-0.186919 0.152344,-0.314453 -0.0064,-0.350718 -0.07364,-0.673469 -0.201172,-0.966797 -0.127534,-0.299703 -0.298818,-0.558583 -0.515625,-0.775391 -0.216807,-0.223184 -0.468908,-0.394468 -0.75586,-0.515625 -0.280574,-0.127534 -0.572825,-0.191406 -0.878906,-0.191406 z m 5.412109,0 c -0.427238,0 -0.815297,0.1108 -1.166015,0.333984 -0.344342,0.223184 -0.618213,0.53238 -0.822266,0.927735 -0.204054,0.388978 -0.30664,0.842863 -0.306641,1.359375 0,0.503758 0.102587,0.952301 0.306641,1.347656 0.204053,0.395354 0.481313,0.707939 0.832031,0.9375 0.350718,0.223184 0.745555,0.335937 1.185547,0.335937 0.248691,0 0.482412,-0.0421 0.699219,-0.125 0.216807,-0.08927 0.405036,-0.198637 0.564453,-0.326171 0.139083,-0.11683 0.238527,-0.23574 0.324219,-0.357422 v 0.224609 c 0,0.140287 0.04549,0.257865 0.134766,0.353516 0.08927,0.08927 0.203463,0.134765 0.34375,0.134765 0.13391,0 0.24471,-0.04549 0.333984,-0.134765 0.09565,-0.09565 0.144531,-0.213229 0.144531,-0.353516 v -4.132812 c 0,-0.140287 -0.04888,-0.254476 -0.144531,-0.34375 -0.08927,-0.09565 -0.200074,-0.144532 -0.333984,-0.144532 -0.140287,0 -0.254476,0.04888 -0.34375,0.144532 -0.08927,0.09565 -0.134766,0.20984 -0.134766,0.34375 v 0.197265 c -0.07226,-0.08425 -0.151956,-0.165844 -0.248047,-0.24414 -0.172171,-0.140288 -0.377344,-0.25643 -0.613281,-0.345703 -0.229561,-0.08927 -0.481662,-0.132813 -0.75586,-0.132813 z m 6.4375,0 c -0.197677,0 -0.389295,0.03194 -0.574218,0.0957 -0.178548,0.06377 -0.339664,0.152798 -0.486328,0.267578 -0.146665,0.11478 -0.27441,0.249304 -0.382813,0.402344 -0.05982,0.08973 -0.09248,0.192523 -0.134766,0.291016 v -0.455078 c 0,-0.140287 -0.04693,-0.254477 -0.142578,-0.34375 -0.08927,-0.09565 -0.202027,-0.142579 -0.335937,-0.142579 -0.140288,0 -0.254477,0.04693 -0.34375,0.142579 -0.08927,0.08927 -0.134766,0.203463 -0.134766,0.34375 v 4.05664 c 0,0.140287 0.04549,0.257865 0.134766,0.353516 0.08927,0.08927 0.203462,0.134765 0.34375,0.134765 0.13391,0 0.246663,-0.04549 0.335937,-0.134765 0.09565,-0.09565 0.142578,-0.213229 0.142578,-0.353516 V 65.50195 c 0,-0.229561 0.03194,-0.436169 0.0957,-0.621094 0.07014,-0.184923 0.162564,-0.344605 0.277344,-0.478515 0.114781,-0.140287 0.242526,-0.244309 0.382813,-0.314453 0.140286,-0.07014 0.278198,-0.105469 0.412109,-0.105469 0.121157,0 0.225179,0.02177 0.314453,0.06641 0.08927,0.03826 0.181694,0.05664 0.277344,0.05664 0.108407,0 0.207604,-0.03676 0.296875,-0.113281 0.08927,-0.0829 0.134766,-0.210642 0.134766,-0.382813 0,-0.13391 -0.06049,-0.246664 -0.181641,-0.335937 -0.121159,-0.08928 -0.265845,-0.132813 -0.431641,-0.132813 z m 16.357422,0 c -0.427238,0 -0.817256,0.1108 -1.167968,0.333984 -0.344346,0.223184 -0.618215,0.53238 -0.822266,0.927735 -0.204051,0.388978 -0.306641,0.842863 -0.306641,1.359375 0,0.503758 0.10259,0.952301 0.306641,1.347656 0.204051,0.395354 0.481312,0.707939 0.832031,0.9375 0.350719,0.223184 0.745558,0.335937 1.185547,0.335937 0.248696,0 0.482416,-0.0421 0.699219,-0.125 0.216808,-0.08927 0.405034,-0.198637 0.564453,-0.326171 0.138755,-0.116553 0.238605,-0.236039 0.324219,-0.357422 v 0.224609 c 0,0.140287 0.04549,0.257865 0.134765,0.353516 0.08927,0.08927 0.203462,0.134765 0.34375,0.134765 0.13391,0 0.24666,-0.04549 0.335938,-0.134765 0.09565,-0.09565 0.142578,-0.213229 0.142578,-0.353516 v -4.132812 c 0,-0.140287 -0.04693,-0.254476 -0.142578,-0.34375 -0.08928,-0.09565 -0.202028,-0.144532 -0.335938,-0.144532 -0.140288,0 -0.254478,0.04888 -0.34375,0.144532 -0.08927,0.09565 -0.134765,0.20984 -0.134765,0.34375 v 0.195312 c -0.072,-0.08378 -0.152462,-0.164303 -0.248047,-0.242187 -0.17217,-0.140288 -0.377343,-0.25643 -0.613282,-0.345703 -0.22956,-0.08927 -0.479707,-0.132813 -0.753906,-0.132813 z m 9.63086,0 c -0.408109,0 -0.796167,0.107411 -1.166016,0.324219 -0.36347,0.21043 -0.661065,0.516237 -0.890625,0.917968 -0.223187,0.395354 -0.333984,0.874399 -0.333984,1.435547 0,0.497382 0.104023,0.941101 0.314453,1.330079 0.216808,0.382601 0.521177,0.685019 0.910156,0.908203 0.395357,0.216807 0.854064,0.326171 1.376953,0.326171 0.331583,10e-7 0.647558,-0.06387 0.947266,-0.191406 0.30608,-0.127533 0.544627,-0.275611 0.716797,-0.441406 0.140288,-0.11478 0.210937,-0.242525 0.210937,-0.382812 0,-0.108404 -0.03871,-0.200824 -0.115234,-0.277344 -0.07652,-0.0829 -0.17233,-0.123047 -0.28711,-0.123047 -0.08928,0 -0.185086,0.02855 -0.287109,0.08594 -0.07652,0.06377 -0.165549,0.131028 -0.267578,0.201172 -0.102029,0.07014 -0.229773,0.130628 -0.382813,0.181641 -0.15304,0.04464 -0.344658,0.06641 -0.574218,0.06641 -0.30608,0 -0.583342,-0.07065 -0.832032,-0.210937 -0.24869,-0.146664 -0.445129,-0.349884 -0.591797,-0.611328 -0.106802,-0.190391 -0.162379,-0.412659 -0.191406,-0.650391 h 3.308594 c 0.127531,0 0.240288,-0.0421 0.335938,-0.125 0.09563,-0.0829 0.145943,-0.186919 0.152343,-0.314453 -0.0064,-0.350718 -0.07364,-0.673469 -0.201172,-0.966797 -0.127537,-0.299703 -0.298816,-0.558583 -0.515625,-0.775391 -0.216802,-0.223184 -0.468909,-0.394468 -0.755859,-0.515625 -0.280577,-0.127534 -0.574779,-0.191406 -0.880859,-0.191406 z m 14.357422,0 c -0.427239,0 -0.815297,0.1108 -1.166016,0.333984 -0.34434,0.223184 -0.620168,0.53238 -0.824219,0.927735 -0.204057,0.388978 -0.304687,0.842863 -0.304687,1.359375 0,0.503758 0.10063,0.952301 0.304687,1.347656 0.204051,0.395354 0.481313,0.707939 0.832031,0.9375 0.350719,0.223184 0.74751,0.335937 1.1875,0.335937 0.24869,0 0.480457,-0.0421 0.697266,-0.125 0.216809,-0.08927 0.405034,-0.198637 0.564453,-0.326171 0.139543,-0.11722 0.24037,-0.23727 0.326172,-0.359375 v 0.226562 c 0,0.140287 0.04354,0.257865 0.132813,0.353516 0.08927,0.08927 0.205414,0.134765 0.345703,0.134765 0.13391,0 0.244713,-0.04549 0.333984,-0.134765 0.09565,-0.09565 0.142578,-0.213229 0.142578,-0.353516 v -4.132812 c 0,-0.140287 -0.04693,-0.254476 -0.142578,-0.34375 -0.08927,-0.09565 -0.200074,-0.144532 -0.333984,-0.144532 -0.140289,0 -0.256432,0.04888 -0.345703,0.144532 -0.08928,0.09565 -0.132813,0.20984 -0.132813,0.34375 v 0.197265 c -0.07225,-0.08425 -0.153909,-0.165844 -0.25,-0.24414 -0.17217,-0.140288 -0.375389,-0.25643 -0.611328,-0.345703 -0.22956,-0.08927 -0.481661,-0.132813 -0.755859,-0.132813 z m 6.4375,0 c -0.197679,0 -0.389298,0.03194 -0.574219,0.0957 -0.178549,0.06377 -0.34162,0.152798 -0.488281,0.267578 -0.146668,0.11478 -0.274412,0.249304 -0.382813,0.402344 -0.05943,0.08913 -0.0907,0.191277 -0.132813,0.289062 v -0.453124 c 0,-0.140287 -0.04888,-0.254477 -0.144531,-0.34375 -0.08928,-0.09565 -0.200074,-0.142579 -0.333984,-0.142579 -0.140289,0 -0.254479,0.04693 -0.34375,0.142579 -0.08927,0.08927 -0.134766,0.203463 -0.134766,0.34375 v 4.05664 c 0,0.140287 0.0455,0.257865 0.134766,0.353516 0.08927,0.08927 0.203461,0.134765 0.34375,0.134765 0.13391,0 0.244707,-0.04549 0.333984,-0.134765 0.09565,-0.09565 0.144531,-0.213229 0.144531,-0.353516 V 65.50195 c 0,-0.229561 0.03194,-0.436169 0.0957,-0.621094 0.07015,-0.184923 0.162563,-0.344605 0.277343,-0.478515 0.11478,-0.140287 0.242524,-0.244309 0.382813,-0.314453 0.140283,-0.07014 0.276246,-0.105469 0.410156,-0.105469 0.121159,0 0.227135,0.02177 0.316406,0.06641 0.08928,0.03826 0.181694,0.05664 0.277344,0.05664 0.108401,0 0.207598,-0.03676 0.296875,-0.113281 0.08927,-0.0829 0.132813,-0.210642 0.132813,-0.382813 0,-0.13391 -0.06048,-0.246664 -0.181641,-0.335937 -0.121153,-0.08928 -0.26389,-0.132813 -0.429687,-0.132813 z m 5.642578,0 c -0.427239,0 -0.815297,0.1108 -1.166016,0.333984 -0.34434,0.223184 -0.618208,0.53238 -0.822266,0.927735 -0.204051,0.388978 -0.30664,0.842863 -0.30664,1.359375 0,0.503758 0.102589,0.952301 0.30664,1.347656 0.204058,0.395354 0.481313,0.707939 0.832032,0.9375 0.350718,0.223184 0.745556,0.335937 1.185546,0.335937 0.248691,0 0.480457,-0.0421 0.697266,-0.125 0.216809,-0.08927 0.405041,-0.198637 0.564453,-0.326171 0.139548,-0.11722 0.240374,-0.23727 0.326172,-0.359375 v 0.226562 c 0,0.140287 0.04354,0.257865 0.132813,0.353516 0.08928,0.08927 0.205414,0.134765 0.345703,0.134765 0.13391,0 0.244713,-0.04549 0.333984,-0.134765 0.09565,-0.09565 0.144531,-0.213229 0.144531,-0.353516 v -4.132812 c 0,-0.140287 -0.04888,-0.254476 -0.144531,-0.34375 -0.08927,-0.09565 -0.200074,-0.144532 -0.333984,-0.144532 -0.140289,0 -0.256426,0.04888 -0.345703,0.144532 -0.08927,0.09565 -0.132813,0.20984 -0.132813,0.34375 v 0.197265 c -0.07225,-0.08425 -0.151956,-0.165844 -0.248047,-0.24414 -0.17217,-0.140288 -0.377342,-0.25643 -0.613281,-0.345703 -0.22956,-0.08927 -0.481661,-0.132813 -0.755859,-0.132813 z m -3.757813,0.07617 c -0.13391,0 -0.250053,0.04693 -0.345703,0.142578 -0.08927,0.08927 -0.132812,0.205416 -0.132812,0.345703 v 4.09375 c -10e-7,0.140287 0.04354,0.257865 0.132812,0.353516 0.09565,0.08927 0.211793,0.134765 0.345703,0.134765 0.140289,0 0.254479,-0.04549 0.34375,-0.134765 0.08928,-0.09565 0.134766,-0.213229 0.134766,-0.353516 v -4.09375 c 0,-0.140287 -0.04549,-0.25643 -0.134766,-0.345703 -0.08927,-0.09565 -0.203461,-0.142578 -0.34375,-0.142578 z m 13.974607,0 c -0.1339,0 -0.25005,0.04693 -0.3457,0.142578 -0.0893,0.08927 -0.13281,0.205416 -0.13281,0.345703 v 4.09375 c 0,0.140287 0.0435,0.257865 0.13281,0.353516 0.0957,0.08927 0.2118,0.134765 0.3457,0.134765 0.14029,0 0.25448,-0.04549 0.34375,-0.134765 0.0893,-0.09565 0.13282,-0.213229 0.13282,-0.353516 v -4.09375 c 0,-0.140287 -0.0435,-0.25643 -0.13282,-0.345703 -0.0893,-0.09565 -0.20346,-0.142578 -0.34375,-0.142578 z m 4.64844,0 c -0.13391,0 -0.25005,0.04693 -0.3457,0.142578 -0.0893,0.08927 -0.13282,0.205416 -0.13282,0.345703 v 4.09375 c 0,0.140287 0.0435,0.257865 0.13282,0.353516 0.0956,0.08927 0.21179,0.134765 0.3457,0.134765 0.14029,0 0.25448,-0.04549 0.34375,-0.134765 0.0893,-0.09565 0.13477,-0.213229 0.13477,-0.353516 v -4.09375 c 0,-0.140287 -0.0455,-0.25643 -0.13477,-0.345703 -0.0893,-0.09565 -0.20346,-0.142578 -0.34375,-0.142578 z m 5.93945,0 c -0.14028,0 -0.25447,0.04693 -0.34375,0.142578 -0.0893,0.08927 -0.13476,0.205416 -0.13476,0.345703 v 2.839844 c 0,0.357094 0.0673,0.676456 0.20117,0.957031 0.13391,0.274197 0.32552,0.490973 0.57422,0.650391 0.25506,0.15304 0.55748,0.230468 0.9082,0.230468 0.2742,0 0.52291,-0.03871 0.7461,-0.115234 0.22956,-0.07652 0.42795,-0.185885 0.59374,-0.326172 0.0941,-0.07959 0.17452,-0.173226 0.24805,-0.27539 v 0.179687 c 0,0.344341 -0.0571,0.62499 -0.17187,0.841797 -0.1084,0.216807 -0.27148,0.376489 -0.48828,0.478516 -0.21682,0.102026 -0.48247,0.152343 -0.79493,0.152343 -0.22956,0 -0.43278,-0.03337 -0.61132,-0.103515 -0.17855,-0.07014 -0.32129,-0.129188 -0.42969,-0.173828 -0.11478,-0.04461 -0.22753,-0.04125 -0.33594,0.0098 -0.10837,0.05739 -0.18385,0.163366 -0.22852,0.316407 -0.0446,0.121156 -0.0364,0.231957 0.0273,0.333984 0.0638,0.102027 0.17313,0.189622 0.32617,0.259766 0.14667,0.07652 0.33489,0.133615 0.56445,0.171874 0.22956,0.04464 0.45794,0.06641 0.6875,0.06641 0.45276,0 0.85776,-0.08225 1.21485,-0.248047 0.36347,-0.159417 0.65089,-0.414908 0.86133,-0.765625 0.2168,-0.350718 0.32617,-0.806039 0.32617,-1.367188 v -4.113281 c 0,-0.140287 -0.0455,-0.25643 -0.13477,-0.345703 -0.0893,-0.09565 -0.20346,-0.142578 -0.34375,-0.142578 -0.13391,0 -0.2481,0.04693 -0.34375,0.142578 -0.0893,0.08927 -0.13476,0.205416 -0.13476,0.345703 v 2.582031 c 0,0.242315 -0.0503,0.455702 -0.15235,0.640625 -0.10202,0.178548 -0.24332,0.319848 -0.42187,0.421875 -0.17855,0.102027 -0.38855,0.152344 -0.63086,0.152344 -0.36347,0 -0.63734,-0.09581 -0.82227,-0.287109 -0.18492,-0.197677 -0.27734,-0.506873 -0.27734,-0.927735 v -2.582031 c 0,-0.140287 -0.0489,-0.256429 -0.14453,-0.345703 -0.0893,-0.09565 -0.20008,-0.142578 -0.33399,-0.142578 z M 7.0273438,64.019531 c 0.2997043,0 0.56875,0.07743 0.8046874,0.230469 0.2423138,0.146664 0.4339313,0.349884 0.5742188,0.611328 0.1402869,0.255068 0.2089844,0.559438 0.2089844,0.910156 0,0.337964 -0.068698,0.636994 -0.2089844,0.898438 -0.1402875,0.261444 -0.331905,0.464664 -0.5742188,0.611328 -0.2359374,0.146663 -0.5049831,0.220703 -0.8046874,0.220703 -0.2933275,0 -0.5604202,-0.07404 -0.8027344,-0.220703 C 5.9886719,67.134586 5.7970544,66.931366 5.6503906,66.669922 5.5101038,66.408478 5.4394531,66.109448 5.4394531,65.771484 c 0,-0.350718 0.070651,-0.655088 0.2109375,-0.910156 C 5.7970544,64.599884 5.9886719,64.396664 6.2246094,64.25 6.4669236,64.096959 6.7340163,64.019531 7.0273438,64.019531 Z m 24.5449222,0 c 0.299704,0 0.560018,0.07743 0.783203,0.230469 0.22956,0.153041 0.409576,0.359649 0.537109,0.621094 0.127534,0.261443 0.191406,0.559037 0.191406,0.890625 0,0.325211 -0.06387,0.620851 -0.191406,0.888672 -0.127533,0.261444 -0.307549,0.468053 -0.537109,0.621093 -0.223185,0.153041 -0.483499,0.230469 -0.783203,0.230469 -0.299705,0 -0.565362,-0.07743 -0.794922,-0.230469 -0.223184,-0.15304 -0.397857,-0.359649 -0.525391,-0.621093 -0.127534,-0.267821 -0.191406,-0.563461 -0.191406,-0.888672 0,-0.331588 0.06387,-0.629182 0.191406,-0.890625 0.127534,-0.261445 0.305596,-0.468053 0.535156,-0.621094 0.229561,-0.153041 0.491829,-0.230469 0.785157,-0.230469 z m 22.792968,0 c 0.299708,0 0.561975,0.07743 0.785157,0.230469 0.22956,0.153041 0.407619,0.359649 0.535156,0.621094 0.127531,0.261443 0.191406,0.559037 0.191406,0.890625 0,0.325211 -0.06388,0.620851 -0.191406,0.888672 -0.127537,0.261444 -0.305596,0.468053 -0.535156,0.621093 -0.223182,0.153041 -0.485449,0.230469 -0.785157,0.230469 -0.299701,0 -0.563408,-0.07743 -0.792968,-0.230469 -0.223187,-0.15304 -0.399813,-0.359649 -0.527344,-0.621093 -0.127531,-0.267821 -0.191406,-0.563461 -0.191406,-0.888672 0,-0.331588 0.06388,-0.629182 0.191406,-0.890625 0.127531,-0.261445 0.305596,-0.468053 0.535156,-0.621094 0.229565,-0.153041 0.491834,-0.230469 0.785156,-0.230469 z m 23.988282,0 c 0.299707,0 0.561975,0.07743 0.785156,0.230469 0.22956,0.153041 0.407619,0.359649 0.535156,0.621094 0.127531,0.261443 0.191406,0.559037 0.191406,0.890625 0,0.325211 -0.06387,0.620851 -0.191406,0.888672 -0.127537,0.261444 -0.305596,0.468053 -0.535156,0.621093 -0.223181,0.153041 -0.485449,0.230469 -0.785156,0.230469 -0.299702,0 -0.563409,-0.07743 -0.792969,-0.230469 -0.223187,-0.15304 -0.397859,-0.359649 -0.525391,-0.621093 -0.127537,-0.267821 -0.191406,-0.563461 -0.191406,-0.888672 0,-0.331588 0.06387,-0.629182 0.191406,-0.890625 0.127532,-0.261445 0.305596,-0.468053 0.535156,-0.621094 0.229561,-0.153041 0.489875,-0.230469 0.783204,-0.230469 z m 12.082031,0 c 0.299701,0 0.560016,0.07743 0.783203,0.230469 0.22956,0.153041 0.409578,0.359649 0.537109,0.621094 0.127538,0.261443 0.191407,0.559037 0.191407,0.890625 0,0.325211 -0.06387,0.620851 -0.191407,0.888672 -0.127531,0.261444 -0.307549,0.468053 -0.537109,0.621093 -0.223187,0.153041 -0.483502,0.230469 -0.783203,0.230469 -0.299707,0 -0.565362,-0.07743 -0.794922,-0.230469 -0.223181,-0.15304 -0.397853,-0.359649 -0.525391,-0.621093 -0.127531,-0.267821 -0.191406,-0.563461 -0.191406,-0.888672 0,-0.331588 0.06387,-0.629182 0.191406,-0.890625 0.127538,-0.261445 0.305597,-0.468053 0.535157,-0.621094 0.22956,-0.153041 0.491827,-0.230469 0.785156,-0.230469 z m 6.1875,0 c 0.299701,0 0.561975,0.07743 0.785156,0.230469 0.223187,0.153041 0.397859,0.359649 0.525391,0.621094 0.13391,0.255067 0.201172,0.549272 0.201172,0.880859 0,0.325211 -0.06726,0.620851 -0.201172,0.888672 -0.127532,0.267821 -0.302204,0.477819 -0.525391,0.630859 -0.223181,0.153041 -0.485455,0.230469 -0.785156,0.230469 -0.306086,0 -0.573174,-0.07743 -0.802735,-0.230469 -0.22318,-0.15304 -0.397853,-0.359649 -0.52539,-0.621093 -0.127531,-0.267821 -0.191406,-0.56685 -0.191406,-0.898438 0,-0.331587 0.06387,-0.625792 0.191406,-0.880859 0.127537,-0.261445 0.30221,-0.468053 0.52539,-0.621094 0.22956,-0.153041 0.496649,-0.230469 0.802735,-0.230469 z m -70.607422,0.0098 c 0.216807,0 0.420027,0.04888 0.611328,0.144531 0.197677,0.08927 0.364136,0.220408 0.498047,0.392578 0.133914,0.165794 0.209389,0.358847 0.228516,0.582032 v 0.06836 h -2.75586 c 0.01926,-0.09413 0.03795,-0.189991 0.06836,-0.269531 0.0829,-0.223184 0.190308,-0.401246 0.324218,-0.535157 0.13391,-0.133914 0.290202,-0.229722 0.46875,-0.287109 0.178548,-0.06377 0.36534,-0.0957 0.556641,-0.0957 z m 37.837891,0 c 0.216808,0 0.421981,0.04888 0.613281,0.144531 0.197679,0.08927 0.362184,0.220408 0.496094,0.392578 0.133913,0.165794 0.211342,0.358847 0.230468,0.582032 v 0.06836 H 62.4375 c 0.01925,-0.09413 0.03795,-0.189991 0.06836,-0.269531 0.0829,-0.223184 0.190309,-0.401246 0.324219,-0.535157 0.13391,-0.133914 0.290201,-0.229722 0.46875,-0.287109 0.178549,-0.06377 0.363388,-0.0957 0.554688,-0.0957 z" />
</svg>
